{
.appVersion = "1131";
DisplayStrings = (
"/Acircumflexacute",
"/horncomb",
"/Uhorn/Uhorntilde",
"O/Ohorn",
"o/ohorn",
"u/uhorn",
"/dieresiscomb",
"/dieresisacute",
"/circumflexacute",
"/dieresisgrave",
"/phinthu-thai",
"/brevecomb",
"/breveacute",
"/circumflexacute",
"/breveacute",
"/Abreveacute",
"/breveacute",
"/breveacute",
"/brevegrave",
"/Lslash",
"/ij"
);
copyright = "Copyright © 2018 by Cadson Demak Co.,Ltd.. All rights reserved.";
customParameters = (
{
name = vendorID;
value = CDK;
},
{
name = description;
value = "Copyright (c) 2018, Cadson Demak (info@cadsondemak.com)";
},
{
name = license;

glyphs = (
{
color = 6;
glyphname = A;
lastChange = "2018-05-04 06:16:17 +0000";
layers = (
{
anchors = (
{
name = bottom;
position = "{335, 0}";
},
{
name = ogonek;
position = "{598, 10}";
},
{
name = top;
position = "{335, 700}";
}
);
layerId = "0B1DFD06-3317-40CA-B510-4969A0718C16";
paths = (
{
closed = 1;
nodes = (
"181 218 LINE",
"490 218 LINE",
"576 -9 LINE",
"606 3 OFFCURVE",
"622 37 OFFCURVE",
"610 68 CURVE SMOOTH",
"363 691 LINE SMOOTH",
"358 703 OFFCURVE",
"346 709 OFFCURVE",
"335 709 CURVE SMOOTH",
"321 709 OFFCURVE",
"311 703 OFFCURVE",
"307 691 CURVE SMOOTH",
"59 68 LINE SMOOTH",
"47 37 OFFCURVE",
"62 3 OFFCURVE",
"93 -9 CURVE"
);
},
{
closed = 1;
nodes = (
"332 609 LINE",
"320 641 LINE",
"324 643 LINE",
"469 272 LINE",
"201 272 LINE"
);
}
);
width = 669;
},
{
anchors = (
{
name = bottom;
position = "{349, 0}";
},
{
name = ogonek;
position = "{612, 10}";
},
{
name = top;
position = "{349, 700}";
}
);
layerId = "671CEF0C-3804-4AAB-8F09-7652EF8CF253";
paths = (
{
closed = 1;
nodes = (
"221 174 LINE",
"476 174 LINE",
"560 -9 LINE",
"655 0 OFFCURVE",
"684 75 OFFCURVE",
"647 157 CURVE SMOOTH",
"421 660 LINE SMOOTH",
"408 689 OFFCURVE",
"388 709 OFFCURVE",
"349 709 CURVE SMOOTH",
"310 709 OFFCURVE",
"290 689 OFFCURVE",
"277 660 CURVE SMOOTH",
"51 157 LINE SMOOTH",
"14 75 OFFCURVE",
"42 0 OFFCURVE",
"137 -9 CURVE"
);
},
{
closed = 1;
nodes = (
"341 483 LINE",
"314 550 LINE",
"328 556 LINE",
"431 300 LINE",
"265 300 LINE"
);
}
);
width = 698;
}
);
leftKerningGroup = A;
note = A;
rightKerningGroup = A;
unicode = 0041;
},
{
color = 6;
glyphname = B;
lastChange = "2018-04-24 05:26:47 +0000";
layers = (
{
anchors = (
{
name = bottom;
position = "{327, 0}";
},
{
name = top;
position = "{327, 700}";
}
);
background = {
paths = (
{
closed = 1;
nodes = (
"545 395 OFFCURVE",
"574 460 OFFCURVE",
"574 513 CURVE SMOOTH",
"574 610 OFFCURVE",
"496 700 OFFCURVE",
"397 700 CURVE SMOOTH",
"110 700 LINE SMOOTH",
"94 700 OFFCURVE",
"80 688 OFFCURVE",
"80 671 CURVE SMOOTH",
"80 29 LINE SMOOTH",
"80 13 OFFCURVE",
"94 0 OFFCURVE",
"110 0 CURVE SMOOTH",
"456 0 LINE SMOOTH",
"568 0 OFFCURVE",
"633 88 OFFCURVE",
"633 190 CURVE SMOOTH",
"633 274 OFFCURVE",
"582 349 OFFCURVE",
"493 368 CURVE"
);
},
{
closed = 1;
nodes = (
"139 647 LINE",
"187 647 OFFCURVE",
"397 647 OFFCURVE",
"397 647 CURVE",
"464 647 OFFCURVE",
"515 576 OFFCURVE",
"515 513 CURVE SMOOTH",
"515 450 OFFCURVE",
"464 377 OFFCURVE",
"397 377 CURVE SMOOTH",
"397 377 OFFCURVE",
"187 377 OFFCURVE",
"139 377 CURVE"
);
},
{
closed = 1;
nodes = (
"139 53 LINE",
"139 324 LINE",
"456 324 LINE SMOOTH",
"523 324 OFFCURVE",
"574 273 OFFCURVE",
"574 190 CURVE SMOOTH",
"574 105 OFFCURVE",
"523 53 OFFCURVE",
"456 53 CURVE SMOOTH"
);
}
);
};
layerId = "0B1DFD06-3317-40CA-B510-4969A0718C16";
paths = (
{
closed = 1;
nodes = (
"426 0 LINE SMOOTH",
"538 0 OFFCURVE",
"597 88 OFFCURVE",
"597 190 CURVE SMOOTH",
"597 268 OFFCURVE",
"561 331 OFFCURVE",
"473 355 CURVE",
"473 357 LINE",
"529 380 OFFCURVE",
"568 446 OFFCURVE",
"568 513 CURVE SMOOTH",
"568 618 OFFCURVE",
"509 700 OFFCURVE",
"397 700 CURVE SMOOTH",
"110 700 LINE SMOOTH",
"94 700 OFFCURVE",
"80 688 OFFCURVE",
"80 671 CURVE SMOOTH",
"80 29 LINE SMOOTH",
"80 13 OFFCURVE",
"94 0 OFFCURVE",
"110 0 CURVE SMOOTH"
);
},
{
closed = 1;
nodes = (
"139 324 LINE",
"415 324 LINE SMOOTH",
"497 324 OFFCURVE",
"542 273 OFFCURVE",
"542 190 CURVE SMOOTH",
"542 105 OFFCURVE",
"497 53 OFFCURVE",
"415 53 CURVE SMOOTH",
"139 53 LINE"
);
},
{
closed = 1;
nodes = (
"139 647 LINE",
"395 647 LINE SMOOTH",
"475 647 OFFCURVE",
"513 593 OFFCURVE",
"513 513 CURVE SMOOTH",
"513 428 OFFCURVE",
"452 377 OFFCURVE",
"395 377 CURVE SMOOTH",
"139 377 LINE"
);
}
);
width = 652;
},
{
anchors = (
{
name = bottom;
position = "{346, 0}";
},
{
name = top;
position = "{346, 700}";
}
);
background = {
paths = (
{
closed = 1;
nodes = (
"564 395 OFFCURVE",
"593 460 OFFCURVE",
"593 513 CURVE SMOOTH",
"593 610 OFFCURVE",
"515 700 OFFCURVE",
"416 700 CURVE SMOOTH",
"129 700 LINE SMOOTH",
"113 700 OFFCURVE",
"99 688 OFFCURVE",
"99 671 CURVE SMOOTH",
"99 29 LINE SMOOTH",
"99 13 OFFCURVE",
"113 0 OFFCURVE",
"129 0 CURVE SMOOTH",
"475 0 LINE SMOOTH",
"587 0 OFFCURVE",
"652 88 OFFCURVE",
"652 190 CURVE SMOOTH",
"652 274 OFFCURVE",
"601 349 OFFCURVE",
"512 368 CURVE"
);
},
{
closed = 1;
nodes = (
"158 647 LINE",
"206 647 OFFCURVE",
"416 647 OFFCURVE",
"416 647 CURVE",
"483 647 OFFCURVE",
"534 576 OFFCURVE",
"534 513 CURVE SMOOTH",
"534 450 OFFCURVE",
"483 377 OFFCURVE",
"416 377 CURVE SMOOTH",
"416 377 OFFCURVE",
"206 377 OFFCURVE",
"158 377 CURVE"
);
},
{
closed = 1;
nodes = (
"158 53 LINE",
"158 324 LINE",
"475 324 LINE SMOOTH",
"542 324 OFFCURVE",
"593 273 OFFCURVE",
"593 190 CURVE SMOOTH",
"593 105 OFFCURVE",
"542 53 OFFCURVE",
"475 53 CURVE SMOOTH"
);
}
);
};
layerId = "671CEF0C-3804-4AAB-8F09-7652EF8CF253";
paths = (
{
closed = 1;
nodes = (
"413 0 LINE SMOOTH",
"550 0 OFFCURVE",
"642 87 OFFCURVE",
"642 209 CURVE SMOOTH",
"642 272 OFFCURVE",
"603 333 OFFCURVE",
"531 359 CURVE",
"531 363 LINE",
"581 392 OFFCURVE",
"613 447 OFFCURVE",
"613 501 CURVE SMOOTH",
"613 612 OFFCURVE",
"538 700 OFFCURVE",
"394 700 CURVE SMOOTH",
"129 700 LINE SMOOTH",
"90 700 OFFCURVE",
"55 672 OFFCURVE",
"55 633 CURVE SMOOTH",
"55 67 LINE SMOOTH",
"55 29 OFFCURVE",
"90 0 OFFCURVE",
"129 0 CURVE SMOOTH"
);
},
{
closed = 1;
nodes = (
"198 289 LINE",
"412 289 LINE SMOOTH",
"467 289 OFFCURVE",
"495 256 OFFCURVE",
"495 207 CURVE SMOOTH",
"495 160 OFFCURVE",
"467 124 OFFCURVE",
"412 124 CURVE SMOOTH",
"198 124 LINE"
);
},
{
closed = 1;
nodes = (
"198 576 LINE",
"392 576 LINE SMOOTH",
"441 576 OFFCURVE",
"466 541 OFFCURVE",
"466 495 CURVE SMOOTH",
"466 448 OFFCURVE",
"433 411 OFFCURVE",
"392 411 CURVE SMOOTH",
"198 411 LINE"
);
}
);
width = 677;
}
);
leftKerningGroup = B;
note = B;
rightKerningGroup = B;
unicode = 0042;
},
{
color = 6;
glyphname = C;
lastChange = "2018-05-04 06:25:26 +0000";
layers = (
{
anchors = (
{
name = bottom;
position = "{340, 0}";
},
{
name = top;
position = "{340, 700}";
}
);
background = {
paths = (
{
closed = 1;
nodes = (
"466 -9 OFFCURVE",
"596 62 OFFCURVE",
"618 180 CURVE SMOOTH",
"628 231 OFFCURVE",
"593 251 OFFCURVE",
"562 251 CURVE",
"563 240 OFFCURVE",
"563 230 OFFCURVE",
"563 221 CURVE SMOOTH",
"563 125 OFFCURVE",
"468 44 OFFCURVE",
"345 44 CURVE SMOOTH",
"224 44 OFFCURVE",
"129 125 OFFCURVE",
"129 221 CURVE SMOOTH",
"129 481 LINE SMOOTH",
"129 576 OFFCURVE",
"224 656 OFFCURVE",
"345 656 CURVE SMOOTH",
"468 656 OFFCURVE",
"563 576 OFFCURVE",
"563 481 CURVE SMOOTH",
"563 472 OFFCURVE",
"563 461 OFFCURVE",
"562 451 CURVE",
"593 451 OFFCURVE",
"630 470 OFFCURVE",
"618 523 CURVE SMOOTH",
"589 649 OFFCURVE",
"462 709 OFFCURVE",
"345 709 CURVE SMOOTH",
"213 709 OFFCURVE",
"70 621 OFFCURVE",
"70 481 CURVE SMOOTH",
"70 221 LINE SMOOTH",
"70 75 OFFCURVE",
"217 -9 OFFCURVE",
"345 -9 CURVE SMOOTH"
);
}
);
};
layerId = "0B1DFD06-3317-40CA-B510-4969A0718C16";
paths = (
{
closed = 1;
nodes = (
"500 -9 OFFCURVE",
"625 79 OFFCURVE",
"625 191 CURVE SMOOTH",
"625 234 OFFCURVE",
"596 251 OFFCURVE",
"567 251 CURVE",
"568 240 OFFCURVE",
"568 230 OFFCURVE",
"568 221 CURVE SMOOTH",
"568 109 OFFCURVE",
"482 44 OFFCURVE",
"345 44 CURVE SMOOTH",
"224 44 OFFCURVE",
"129 125 OFFCURVE",
"129 221 CURVE SMOOTH",
"129 481 LINE SMOOTH",
"129 576 OFFCURVE",
"224 656 OFFCURVE",
"345 656 CURVE SMOOTH",
"468 656 OFFCURVE",
"563 593 OFFCURVE",
"563 481 CURVE SMOOTH",
"563 472 OFFCURVE",
"563 461 OFFCURVE",
"562 451 CURVE",
"589 451 OFFCURVE",
"620 465 OFFCURVE",
"620 503 CURVE SMOOTH",
"620 622 OFFCURVE",
"493 709 OFFCURVE",
"345 709 CURVE SMOOTH",
"213 709 OFFCURVE",
"70 621 OFFCURVE",
"70 481 CURVE SMOOTH",
"70 221 LINE SMOOTH",
"70 75 OFFCURVE",
"217 -9 OFFCURVE",
"345 -9 CURVE SMOOTH"
);
}
);
width = 680;
},
{
anchors = (
{
name = bottom;
position = "{340, 0}";
},
{
name = top;
position = "{340, 700}";
}
);
background = {
paths = (
{
closed = 1;
nodes = (
"477 -9 OFFCURVE",
"607 62 OFFCURVE",
"629 180 CURVE SMOOTH",
"639 231 OFFCURVE",
"604 251 OFFCURVE",
"573 251 CURVE",
"574 240 OFFCURVE",
"574 230 OFFCURVE",
"574 221 CURVE SMOOTH",
"574 125 OFFCURVE",
"479 44 OFFCURVE",
"356 44 CURVE SMOOTH",
"235 44 OFFCURVE",
"140 125 OFFCURVE",
"140 221 CURVE SMOOTH",
"140 481 LINE SMOOTH",
"140 576 OFFCURVE",
"235 656 OFFCURVE",
"356 656 CURVE SMOOTH",
"479 656 OFFCURVE",
"574 576 OFFCURVE",
"574 481 CURVE SMOOTH",
"574 472 OFFCURVE",
"574 461 OFFCURVE",
"573 451 CURVE",
"604 451 OFFCURVE",
"641 470 OFFCURVE",
"629 523 CURVE SMOOTH",
"600 649 OFFCURVE",
"473 709 OFFCURVE",
"356 709 CURVE SMOOTH",
"224 709 OFFCURVE",
"81 621 OFFCURVE",
"81 481 CURVE SMOOTH",
"81 221 LINE SMOOTH",
"81 75 OFFCURVE",
"228 -9 OFFCURVE",
"356 -9 CURVE SMOOTH"
);
}
);
};
layerId = "671CEF0C-3804-4AAB-8F09-7652EF8CF253";
paths = (
{
closed = 1;
nodes = (
"512 -9 OFFCURVE",
"651 76 OFFCURVE",
"651 195 CURVE SMOOTH",
"651 261 OFFCURVE",
"586 295 OFFCURVE",
"503 275 CURVE",
"506 259 OFFCURVE",
"506 240 OFFCURVE",
"506 227 CURVE SMOOTH",
"506 172 OFFCURVE",
"453 119 OFFCURVE",
"346 119 CURVE SMOOTH",
"240 119 OFFCURVE",
"182 175 OFFCURVE",
"182 266 CURVE SMOOTH",
"182 436 LINE SMOOTH",
"182 526 OFFCURVE",
"238 581 OFFCURVE",
"340 581 CURVE SMOOTH",
"435 581 OFFCURVE",
"501 537 OFFCURVE",
"501 472 CURVE SMOOTH",
"501 454 OFFCURVE",
"501 441 OFFCURVE",
"498 421 CURVE",
"576 401 OFFCURVE",
"646 436 OFFCURVE",
"646 499 CURVE SMOOTH",
"646 623 OFFCURVE",
"503 709 OFFCURVE",
"340 709 CURVE SMOOTH",
"155 709 OFFCURVE",
"35 597 OFFCURVE",
"35 436 CURVE SMOOTH",
"35 266 LINE SMOOTH",
"35 98 OFFCURVE",
"161 -9 OFFCURVE",
"346 -9 CURVE SMOOTH"
);
}
);
width = 686;
}
);
leftKerningGroup = C;
note = C;
rightKerningGroup = C;
unicode = 0043;
},
{
color = 6;
glyphname = D;
lastChange = "2018-05-04 08:44:38 +0000";
layers = (
{
anchors = (
{
name = bottom;
position = "{351, 0}";
},
{
name = center;
position = "{351, 350}";
},
{
name = top;
position = "{351, 700}";
}
);
background = {
paths = (
{
closed = 1;
nodes = (
"356 0 LINE SMOOTH",
"489 0 OFFCURVE",
"632 90 OFFCURVE",
"632 230 CURVE SMOOTH",
"632 472 LINE SMOOTH",
"632 618 OFFCURVE",
"484 700 OFFCURVE",
"356 700 CURVE SMOOTH",
"110 700 LINE SMOOTH",
"92 700 OFFCURVE",
"80 688 OFFCURVE",
"80 671 CURVE SMOOTH",
"80 29 LINE SMOOTH",
"80 13 OFFCURVE",
"92 0 OFFCURVE",
"110 0 CURVE SMOOTH"
);
},
{
closed = 1;
nodes = (
"139 647 LINE",
"184 647 OFFCURVE",
"356 647 OFFCURVE",
"356 647 CURVE",
"475 647 OFFCURVE",
"574 567 OFFCURVE",
"574 472 CURVE SMOOTH",
"574 230 LINE SMOOTH",
"574 134 OFFCURVE",
"475 53 OFFCURVE",
"356 53 CURVE SMOOTH",
"356 53 OFFCURVE",
"184 53 OFFCURVE",
"139 53 CURVE"
);
}
);
};
layerId = "0B1DFD06-3317-40CA-B510-4969A0718C16";
paths = (
{
closed = 1;
nodes = (
"356 0 LINE SMOOTH",
"519 0 OFFCURVE",
"632 100 OFFCURVE",
"632 240 CURVE SMOOTH",
"632 462 LINE SMOOTH",
"632 608 OFFCURVE",
"514 700 OFFCURVE",
"356 700 CURVE SMOOTH",
"110 700 LINE SMOOTH",
"92 700 OFFCURVE",
"80 688 OFFCURVE",
"80 671 CURVE SMOOTH",
"80 29 LINE SMOOTH",
"80 13 OFFCURVE",
"92 0 OFFCURVE",
"110 0 CURVE SMOOTH"
);
},
{
closed = 1;
nodes = (
"139 647 LINE",
"346 647 LINE SMOOTH",
"495 647 OFFCURVE",
"574 567 OFFCURVE",
"574 462 CURVE SMOOTH",
"574 240 LINE SMOOTH",
"574 134 OFFCURVE",
"495 53 OFFCURVE",
"346 53 CURVE SMOOTH",
"139 53 LINE"
);
}
);
width = 702;
},
{
anchors = (
{
name = bottom;
position = "{320, 0}";
},
{
name = center;
position = "{370, 350}";
},
{
name = top;
position = "{320, 700}";
}
);
background = {
paths = (
{
closed = 1;
nodes = (
"375 0 LINE SMOOTH",
"508 0 OFFCURVE",
"651 90 OFFCURVE",
"651 230 CURVE SMOOTH",
"651 472 LINE SMOOTH",
"651 618 OFFCURVE",
"503 700 OFFCURVE",
"375 700 CURVE SMOOTH",
"129 700 LINE SMOOTH",
"111 700 OFFCURVE",
"99 688 OFFCURVE",
"99 671 CURVE SMOOTH",
"99 29 LINE SMOOTH",
"99 13 OFFCURVE",
"111 0 OFFCURVE",
"129 0 CURVE SMOOTH"
);
},
{
closed = 1;
nodes = (
"158 647 LINE",
"203 647 OFFCURVE",
"375 647 OFFCURVE",
"375 647 CURVE",
"494 647 OFFCURVE",
"593 567 OFFCURVE",
"593 472 CURVE SMOOTH",
"593 230 LINE SMOOTH",
"593 134 OFFCURVE",
"494 53 OFFCURVE",
"375 53 CURVE SMOOTH",
"375 53 OFFCURVE",
"203 53 OFFCURVE",
"158 53 CURVE"
);
}
);
};
layerId = "671CEF0C-3804-4AAB-8F09-7652EF8CF253";
paths = (
{
closed = 1;
nodes = (
"347 0 LINE SMOOTH",
"530 0 OFFCURVE",
"652 116 OFFCURVE",
"652 278 CURVE SMOOTH",
"652 424 LINE SMOOTH",
"652 586 OFFCURVE",
"531 700 OFFCURVE",
"347 700 CURVE SMOOTH",
"129 700 LINE SMOOTH",
"89 700 OFFCURVE",
"55 673 OFFCURVE",
"55 633 CURVE SMOOTH",
"55 67 LINE SMOOTH",
"55 28 OFFCURVE",
"89 0 OFFCURVE",
"129 0 CURVE SMOOTH"
);
},
{
closed = 1;
nodes = (
"202 574 LINE",
"337 574 LINE SMOOTH",
"450 574 OFFCURVE",
"505 522 OFFCURVE",
"505 426 CURVE SMOOTH",
"505 276 LINE SMOOTH",
"505 179 OFFCURVE",
"450 126 OFFCURVE",
"337 126 CURVE SMOOTH",
"202 126 LINE"
);
}
);
width = 687;
}
);
note = D;
rightKerningGroup = D;
unicode = 0044;
},
{
color = 6;
glyphname = E;
lastChange = "2018-05-03 08:04:38 +0000";
layers = (
{
anchors = (
{
name = bottom;
position = "{311, 0}";
},
{
name = ogonek;
position = "{559, 10}";
},
{
name = top;
position = "{311, 700}";
},
{
name = topleft;
position = "{20, 700}";
}
);
background = {
paths = (
{
closed = 1;
nodes = (
"476 -9 OFFCURVE",
"606 62 OFFCURVE",
"628 180 CURVE SMOOTH",
"638 231 OFFCURVE",
"603 251 OFFCURVE",
"572 251 CURVE",
"573 240 OFFCURVE",
"573 230 OFFCURVE",
"573 221 CURVE SMOOTH",
"573 125 OFFCURVE",
"478 44 OFFCURVE",
"355 44 CURVE SMOOTH",
"234 44 OFFCURVE",
"139 125 OFFCURVE",
"139 221 CURVE SMOOTH",
"139 324 LINE",
"377 324 LINE SMOOTH",
"413 324 OFFCURVE",
"431 342 OFFCURVE",
"431 377 CURVE",
"139 377 LINE",
"139 481 LINE SMOOTH",
"139 576 OFFCURVE",
"234 656 OFFCURVE",
"355 656 CURVE SMOOTH",
"478 656 OFFCURVE",
"573 576 OFFCURVE",
"573 481 CURVE SMOOTH",
"573 472 OFFCURVE",
"573 461 OFFCURVE",
"572 451 CURVE",
"603 451 OFFCURVE",
"640 470 OFFCURVE",
"628 523 CURVE SMOOTH",
"599 649 OFFCURVE",
"472 709 OFFCURVE",
"355 709 CURVE SMOOTH",
"223 709 OFFCURVE",
"80 621 OFFCURVE",
"80 481 CURVE SMOOTH",
"80 221 LINE SMOOTH",
"80 75 OFFCURVE",
"227 -9 OFFCURVE",
"355 -9 CURVE SMOOTH"
);
}
);
};
layerId = "0B1DFD06-3317-40CA-B510-4969A0718C16";
paths = (
{
closed = 1;
nodes = (
"80 13 OFFCURVE",
"92 0 OFFCURVE",
"110 0 CURVE SMOOTH",
"571 0 LINE",
"571 35 OFFCURVE",
"553 53 OFFCURVE",
"518 53 CURVE SMOOTH",
"139 53 LINE",
"139 326 LINE",
"377 326 LINE SMOOTH",
"413 326 OFFCURVE",
"431 344 OFFCURVE",
"431 379 CURVE",
"139 379 LINE",
"139 647 LINE",
"497 647 LINE SMOOTH",
"533 647 OFFCURVE",
"551 665 OFFCURVE",
"551 700 CURVE",
"110 700 LINE SMOOTH",
"94 700 OFFCURVE",
"80 688 OFFCURVE",
"80 671 CURVE SMOOTH",
"80 29 LINE SMOOTH"
);
}
);
width = 626;
},
{
anchors = (
{
name = bottom;
position = "{310, 0}";
},
{
name = ogonek;
position = "{578, 10}";
},
{
name = top;
position = "{310, 700}";
},
{
name = topleft;
position = "{39, 700}";
}
);
background = {
paths = (
{
closed = 1;
nodes = (
"495 -9 OFFCURVE",
"625 62 OFFCURVE",
"647 180 CURVE SMOOTH",
"657 231 OFFCURVE",
"622 251 OFFCURVE",
"591 251 CURVE",
"592 240 OFFCURVE",
"592 230 OFFCURVE",
"592 221 CURVE SMOOTH",
"592 125 OFFCURVE",
"497 44 OFFCURVE",
"374 44 CURVE SMOOTH",
"253 44 OFFCURVE",
"158 125 OFFCURVE",
"158 221 CURVE SMOOTH",
"158 324 LINE",
"396 324 LINE SMOOTH",
"432 324 OFFCURVE",
"450 342 OFFCURVE",
"450 377 CURVE",
"158 377 LINE",
"158 481 LINE SMOOTH",
"158 576 OFFCURVE",
"253 656 OFFCURVE",
"374 656 CURVE SMOOTH",
"497 656 OFFCURVE",
"592 576 OFFCURVE",
"592 481 CURVE SMOOTH",
"592 472 OFFCURVE",
"592 461 OFFCURVE",
"591 451 CURVE",
"622 451 OFFCURVE",
"659 470 OFFCURVE",
"647 523 CURVE SMOOTH",
"618 649 OFFCURVE",
"491 709 OFFCURVE",
"374 709 CURVE SMOOTH",
"242 709 OFFCURVE",
"99 621 OFFCURVE",
"99 481 CURVE SMOOTH",
"99 221 LINE SMOOTH",
"99 75 OFFCURVE",
"246 -9 OFFCURVE",
"374 -9 CURVE SMOOTH"
);
}
);
};
layerId = "671CEF0C-3804-4AAB-8F09-7652EF8CF253";
paths = (
{
closed = 1;
nodes = (
"55 28 OFFCURVE",
"89 0 OFFCURVE",
"129 0 CURVE SMOOTH",
"596 0 LINE",
"596 78 OFFCURVE",
"575 126 OFFCURVE",
"504 126 CURVE SMOOTH",
"202 126 LINE",
"202 290 LINE",
"371 290 LINE SMOOTH",
"443 290 OFFCURVE",
"464 337 OFFCURVE",
"464 416 CURVE",
"202 416 LINE",
"202 574 LINE",
"483 574 LINE SMOOTH",
"555 574 OFFCURVE",
"576 621 OFFCURVE",
"576 700 CURVE",
"129 700 LINE SMOOTH",
"90 700 OFFCURVE",
"55 672 OFFCURVE",
"55 633 CURVE SMOOTH",
"55 67 LINE SMOOTH"
);
}
);
width = 636;
}
);
note = E;
rightKerningGroup = E;
unicode = 0045;
},
{
color = 6;
glyphname = F;
lastChange = "2018-04-24 05:26:47 +0000";
layers = (
{
anchors = (
{
name = bottom;
position = "{296, 0}";
},
{
name = top;
position = "{296, 700}";
}
);
background = {
paths = (
{
closed = 1;
nodes = (
"118 -9 OFFCURVE",
"139 12 OFFCURVE",
"139 50 CURVE SMOOTH",
"139 324 LINE",
"377 324 LINE SMOOTH",
"413 324 OFFCURVE",
"431 342 OFFCURVE",
"431 377 CURVE",
"139 377 LINE",
"139 481 LINE SMOOTH",
"139 576 OFFCURVE",
"234 656 OFFCURVE",
"355 656 CURVE SMOOTH",
"478 656 OFFCURVE",
"573 576 OFFCURVE",
"573 481 CURVE SMOOTH",
"573 472 OFFCURVE",
"573 461 OFFCURVE",
"572 451 CURVE",
"603 451 OFFCURVE",
"638 470 OFFCURVE",
"628 523 CURVE",
"594 649 OFFCURVE",
"472 709 OFFCURVE",
"355 709 CURVE SMOOTH",
"223 709 OFFCURVE",
"80 621 OFFCURVE",
"80 481 CURVE SMOOTH",
"80 -9 LINE"
);
}
);
};
layerId = "0B1DFD06-3317-40CA-B510-4969A0718C16";
paths = (
{
closed = 1;
nodes = (
"119 -9 OFFCURVE",
"139 12 OFFCURVE",
"139 50 CURVE SMOOTH",
"139 331 LINE",
"377 331 LINE SMOOTH",
"413 331 OFFCURVE",
"431 349 OFFCURVE",
"431 384 CURVE",
"139 384 LINE",
"139 647 LINE",
"497 647 LINE SMOOTH",
"533 647 OFFCURVE",
"551 665 OFFCURVE",
"551 700 CURVE",
"110 700 LINE SMOOTH",
"94 700 OFFCURVE",
"80 688 OFFCURVE",
"80 671 CURVE SMOOTH",
"80 -9 LINE"
);
}
);
width = 596;
},
{
anchors = (
{
name = bottom;
position = "{296, 0}";
},
{
name = top;
position = "{296, 700}";
}
);
background = {
paths = (
{
closed = 1;
nodes = (
"118 -9 OFFCURVE",
"139 12 OFFCURVE",
"139 50 CURVE SMOOTH",
"139 324 LINE",
"377 324 LINE SMOOTH",
"413 324 OFFCURVE",
"431 342 OFFCURVE",
"431 377 CURVE",
"139 377 LINE",
"139 481 LINE SMOOTH",
"139 576 OFFCURVE",
"234 656 OFFCURVE",
"355 656 CURVE SMOOTH",
"478 656 OFFCURVE",
"573 576 OFFCURVE",
"573 481 CURVE SMOOTH",
"573 472 OFFCURVE",
"573 461 OFFCURVE",
"572 451 CURVE",
"603 451 OFFCURVE",
"638 470 OFFCURVE",
"628 523 CURVE",
"594 649 OFFCURVE",
"472 709 OFFCURVE",
"355 709 CURVE SMOOTH",
"223 709 OFFCURVE",
"80 621 OFFCURVE",
"80 481 CURVE SMOOTH",
"80 -9 LINE"
);
}
);
};
layerId = "671CEF0C-3804-4AAB-8F09-7652EF8CF253";
paths = (
{
closed = 1;
nodes = (
"156 -9 OFFCURVE",
"202 19 OFFCURVE",
"202 92 CURVE SMOOTH",
"202 295 LINE",
"371 295 LINE SMOOTH",
"443 295 OFFCURVE",
"464 342 OFFCURVE",
"464 421 CURVE",
"202 421 LINE",
"202 574 LINE",
"491 574 LINE SMOOTH",
"563 574 OFFCURVE",
"584 621 OFFCURVE",
"584 700 CURVE",
"129 700 LINE SMOOTH",
"90 700 OFFCURVE",
"55 672 OFFCURVE",
"55 633 CURVE SMOOTH",
"55 -9 LINE"
);
}
);
width = 614;
}
);
note = F;
unicode = 0046;
},
{
color = 6;
glyphname = G;
lastChange = "2018-04-24 05:26:47 +0000";
layers = (
{
anchors = (
{
name = bottom;
position = "{338, 0}";
},
{
name = top;
position = "{338, 700}";
}
);
background = {
paths = (
{
closed = 1;
nodes = (
"474 -9 OFFCURVE",
"621 75 OFFCURVE",
"621 221 CURVE",
"621 221 OFFCURVE",
"621 332 OFFCURVE",
"621 348 CURVE SMOOTH",
"621 364 OFFCURVE",
"608 377 OFFCURVE",
"591 377 CURVE SMOOTH",
"400 377 LINE SMOOTH",
"364 377 OFFCURVE",
"347 360 OFFCURVE",
"347 324 CURVE",
"562 324 LINE",
"562 221 LINE SMOOTH",
"562 125 OFFCURVE",
"466 44 OFFCURVE",
"345 44 CURVE SMOOTH",
"224 44 OFFCURVE",
"129 125 OFFCURVE",
"129 221 CURVE SMOOTH",
"129 481 LINE SMOOTH",
"129 576 OFFCURVE",
"224 656 OFFCURVE",
"345 656 CURVE SMOOTH",
"468 656 OFFCURVE",
"563 576 OFFCURVE",
"563 481 CURVE SMOOTH",
"563 472 OFFCURVE",
"563 461 OFFCURVE",
"562 451 CURVE",
"593 451 OFFCURVE",
"630 470 OFFCURVE",
"618 523 CURVE SMOOTH",
"589 649 OFFCURVE",
"462 709 OFFCURVE",
"345 709 CURVE SMOOTH",
"213 709 OFFCURVE",
"70 621 OFFCURVE",
"70 481 CURVE SMOOTH",
"70 221 LINE SMOOTH",
"70 75 OFFCURVE",
"217 -9 OFFCURVE",
"345 -9 CURVE SMOOTH"
);
}
);
};
layerId = "0B1DFD06-3317-40CA-B510-4969A0718C16";
paths = (
{
closed = 1;
nodes = (
"476 -9 OFFCURVE",
"625 75 OFFCURVE",
"625 221 CURVE SMOOTH",
"625 323 LINE SMOOTH",
"625 339 OFFCURVE",
"612 352 OFFCURVE",
"595 352 CURVE SMOOTH",
"351 352 LINE",
"351 316 OFFCURVE",
"368 299 OFFCURVE",
"404 299 CURVE SMOOTH",
"566 299 LINE",
"566 221 LINE SMOOTH",
"566 120 OFFCURVE",
"468 44 OFFCURVE",
"347 44 CURVE SMOOTH",
"226 44 OFFCURVE",
"129 120 OFFCURVE",
"129 221 CURVE SMOOTH",
"129 481 LINE SMOOTH",
"129 576 OFFCURVE",
"224 656 OFFCURVE",
"345 656 CURVE SMOOTH",
"468 656 OFFCURVE",
"563 593 OFFCURVE",
"563 481 CURVE SMOOTH",
"563 472 OFFCURVE",
"563 461 OFFCURVE",
"562 451 CURVE",
"589 451 OFFCURVE",
"620 465 OFFCURVE",
"620 503 CURVE SMOOTH",
"620 622 OFFCURVE",
"493 709 OFFCURVE",
"345 709 CURVE SMOOTH",
"213 709 OFFCURVE",
"70 621 OFFCURVE",
"70 481 CURVE SMOOTH",
"70 221 LINE SMOOTH",
"70 75 OFFCURVE",
"219 -9 OFFCURVE",
"347 -9 CURVE SMOOTH"
);
}
);
width = 690;
},
{
anchors = (
{
name = bottom;
position = "{338, 0}";
},
{
name = top;
position = "{338, 700}";
}
);
background = {
paths = (
{
closed = 1;
nodes = (
"474 -9 OFFCURVE",
"621 75 OFFCURVE",
"621 221 CURVE",
"621 221 OFFCURVE",
"621 332 OFFCURVE",
"621 348 CURVE SMOOTH",
"621 364 OFFCURVE",
"608 377 OFFCURVE",
"591 377 CURVE SMOOTH",
"400 377 LINE SMOOTH",
"364 377 OFFCURVE",
"347 360 OFFCURVE",
"347 324 CURVE",
"562 324 LINE",
"562 221 LINE SMOOTH",
"562 125 OFFCURVE",
"466 44 OFFCURVE",
"345 44 CURVE SMOOTH",
"224 44 OFFCURVE",
"129 125 OFFCURVE",
"129 221 CURVE SMOOTH",
"129 481 LINE SMOOTH",
"129 576 OFFCURVE",
"224 656 OFFCURVE",
"345 656 CURVE SMOOTH",
"468 656 OFFCURVE",
"563 576 OFFCURVE",
"563 481 CURVE SMOOTH",
"563 472 OFFCURVE",
"563 461 OFFCURVE",
"562 451 CURVE",
"593 451 OFFCURVE",
"630 470 OFFCURVE",
"618 523 CURVE SMOOTH",
"589 649 OFFCURVE",
"462 709 OFFCURVE",
"345 709 CURVE SMOOTH",
"213 709 OFFCURVE",
"70 621 OFFCURVE",
"70 481 CURVE SMOOTH",
"70 221 LINE SMOOTH",
"70 75 OFFCURVE",
"217 -9 OFFCURVE",
"345 -9 CURVE SMOOTH"
);
}
);
};
layerId = "671CEF0C-3804-4AAB-8F09-7652EF8CF253";
paths = (
{
closed = 1;
nodes = (
"532 -9 OFFCURVE",
"650 106 OFFCURVE",
"650 228 CURVE SMOOTH",
"650 302 LINE SMOOTH",
"650 341 OFFCURVE",
"629 369 OFFCURVE",
"582 369 CURVE SMOOTH",
"339 369 LINE",
"339 288 OFFCURVE",
"367 254 OFFCURVE",
"431 254 CURVE SMOOTH",
"504 254 LINE",
"504 231 LINE SMOOTH",
"504 175 OFFCURVE",
"473 117 OFFCURVE",
"346 117 CURVE SMOOTH",
"240 117 OFFCURVE",
"182 167 OFFCURVE",
"182 266 CURVE SMOOTH",
"182 436 LINE SMOOTH",
"182 526 OFFCURVE",
"238 583 OFFCURVE",
"340 583 CURVE SMOOTH",
"443 583 OFFCURVE",
"501 539 OFFCURVE",
"501 474 CURVE SMOOTH",
"501 456 OFFCURVE",
"501 444 OFFCURVE",
"498 424 CURVE",
"576 404 OFFCURVE",
"646 438 OFFCURVE",
"646 501 CURVE SMOOTH",
"646 625 OFFCURVE",
"503 709 OFFCURVE",
"340 709 CURVE SMOOTH",
"155 709 OFFCURVE",
"35 597 OFFCURVE",
"35 436 CURVE SMOOTH",
"35 266 LINE SMOOTH",
"35 98 OFFCURVE",
"161 -9 OFFCURVE",
"346 -9 CURVE SMOOTH"
);
}
);
width = 685;
}
);
leftKerningGroup = C;
note = G;
rightKerningGroup = C;
unicode = 0047;
},
{
color = 6;
glyphname = H;
lastChange = "2018-05-04 08:26:14 +0000";
layers = (
{
anchors = (
{
name = bottom;
position = "{341, 0}";
},
{
name = center;
position = "{341, 350}";
},
{
name = top;
position = "{341, 700}";
},
{
name = topleft;
position = "{20, 700}";
}
);
background = {
paths = (
{
closed = 1;
nodes = (
"119 -9 OFFCURVE",
"139 12 OFFCURVE",
"139 50 CURVE SMOOTH",
"139 324 LINE",
"573 324 LINE",
"573 -9 LINE",
"611 -9 OFFCURVE",
"632 12 OFFCURVE",
"632 50 CURVE SMOOTH",
"632 709 LINE",
"593 709 OFFCURVE",
"573 688 OFFCURVE",
"573 650 CURVE SMOOTH",
"573 377 LINE",
"139 377 LINE",
"139 709 LINE",
"101 709 OFFCURVE",
"80 688 OFFCURVE",
"80 650 CURVE SMOOTH",
"80 -9 LINE"
);
}
);
};
layerId = "0B1DFD06-3317-40CA-B510-4969A0718C16";
paths = (
{
closed = 1;
nodes = (
"119 -9 OFFCURVE",
"139 12 OFFCURVE",
"139 50 CURVE SMOOTH",
"139 326 LINE",
"543 326 LINE",
"543 -9 LINE",
"581 -9 OFFCURVE",
"602 12 OFFCURVE",
"602 50 CURVE SMOOTH",
"602 709 LINE",
"563 709 OFFCURVE",
"543 688 OFFCURVE",
"543 650 CURVE SMOOTH",
"543 379 LINE",
"139 379 LINE",
"139 709 LINE",
"101 709 OFFCURVE",
"80 688 OFFCURVE",
"80 650 CURVE SMOOTH",
"80 -9 LINE"
);
}
);
width = 682;
},
{
anchors = (
{
name = bottom;
position = "{345, -10}";
},
{
name = center;
position = "{345, 350}";
},
{
name = top;
position = "{345, 700}";
},
{
name = topleft;
position = "{39, 700}";
}
);
background = {
paths = (
{
closed = 1;
nodes = (
"138 -9 OFFCURVE",
"158 12 OFFCURVE",
"158 50 CURVE SMOOTH",
"158 324 LINE",
"592 324 LINE",
"592 -9 LINE",
"630 -9 OFFCURVE",
"651 12 OFFCURVE",
"651 50 CURVE SMOOTH",
"651 709 LINE",
"612 709 OFFCURVE",
"592 688 OFFCURVE",
"592 650 CURVE SMOOTH",
"592 377 LINE",
"158 377 LINE",
"158 709 LINE",
"120 709 OFFCURVE",
"99 688 OFFCURVE",
"99 650 CURVE SMOOTH",
"99 -9 LINE"
);
}
);
};
layerId = "671CEF0C-3804-4AAB-8F09-7652EF8CF253";
paths = (
{
closed = 1;
nodes = (
"146 -9 OFFCURVE",
"202 24 OFFCURVE",
"202 97 CURVE SMOOTH",
"202 289 LINE",
"483 289 LINE",
"483 -9 LINE",
"574 -9 OFFCURVE",
"630 24 OFFCURVE",
"630 97 CURVE SMOOTH",
"630 709 LINE",
"539 709 OFFCURVE",
"483 676 OFFCURVE",
"483 603 CURVE SMOOTH",
"483 416 LINE",
"202 416 LINE",
"202 709 LINE",
"111 709 OFFCURVE",
"55 676 OFFCURVE",
"55 603 CURVE SMOOTH",
"55 -9 LINE"
);
}
);
width = 685;
}
);
leftKerningGroup = H;
note = H;
rightKerningGroup = H;
unicode = 0048;
},
{
color = 6;
glyphname = I;
lastChange = "2018-04-24 05:26:47 +0000";
layers = (
{
anchors = (
{
name = bottom;
position = "{110, 0}";
},
{
name = ogonek;
position = "{169, 10}";
},
{
name = top;
position = "{110, 700}";
},
{
name = topleft;
position = "{20, 700}";
}
);
background = {
paths = (
{
closed = 1;
nodes = (
"119 -9 OFFCURVE",
"139 12 OFFCURVE",
"139 50 CURVE SMOOTH",
"139 709 LINE",
"101 709 OFFCURVE",
"80 688 OFFCURVE",
"80 650 CURVE SMOOTH",
"80 -9 LINE"
);
}
);
};
layerId = "0B1DFD06-3317-40CA-B510-4969A0718C16";
paths = (
{
closed = 1;
nodes = (
"119 -9 OFFCURVE",
"139 12 OFFCURVE",
"139 50 CURVE SMOOTH",
"139 709 LINE",
"101 709 OFFCURVE",
"80 688 OFFCURVE",
"80 650 CURVE SMOOTH",
"80 -9 LINE"
);
}
);
width = 219;
},
{
anchors = (
{
name = bottom;
position = "{129, 0}";
},
{
name = ogonek;
position = "{188, 10}";
},
{
name = top;
position = "{129, 700}";
},
{
name = topleft;
position = "{39, 700}";
}
);
background = {
paths = (
{
closed = 1;
nodes = (
"138 -9 OFFCURVE",
"158 12 OFFCURVE",
"158 50 CURVE SMOOTH",
"158 709 LINE",
"120 709 OFFCURVE",
"99 688 OFFCURVE",
"99 650 CURVE SMOOTH",
"99 -9 LINE"
);
}
);
};
layerId = "671CEF0C-3804-4AAB-8F09-7652EF8CF253";
paths = (
{
closed = 1;
nodes = (
"142 -9 OFFCURVE",
"202 25 OFFCURVE",
"202 98 CURVE SMOOTH",
"202 709 LINE",
"117 709 OFFCURVE",
"55 675 OFFCURVE",
"55 602 CURVE SMOOTH",
"55 -9 LINE"
);
}
);
width = 257;
}
);
note = I;
unicode = 0049;
},
{
color = 6;
glyphname = J;
lastChange = "2018-04-24 05:26:47 +0000";
layers = (
{
anchors = (
{
name = bottom;
position = "{304, 0}";
},
{
name = top;
position = "{389, 700}";
}
);
background = {
paths = (
{
closed = 1;
nodes = (
"422 -9 OFFCURVE",
"533 94 OFFCURVE",
"533 221 CURVE SMOOTH",
"533 671 LINE SMOOTH",
"533 688 OFFCURVE",
"521 700 OFFCURVE",
"505 700 CURVE SMOOTH",
"282 700 LINE",
"282 665 OFFCURVE",
"300 647 OFFCURVE",
"335 647 CURVE SMOOTH",
"474 647 LINE",
"474 597 OFFCURVE",
"474 221 OFFCURVE",
"474 221 CURVE",
"474 125 OFFCURVE",
"390 44 OFFCURVE",
"287 44 CURVE SMOOTH",
"182 44 OFFCURVE",
"98 125 OFFCURVE",
"98 221 CURVE SMOOTH",
"98 230 OFFCURVE",
"99 240 OFFCURVE",
"101 251 CURVE",
"68 251 OFFCURVE",
"33 231 OFFCURVE",
"43 180 CURVE SMOOTH",
"65 72 OFFCURVE",
"164 -9 OFFCURVE",
"287 -9 CURVE SMOOTH"
);
}
);
};
layerId = "0B1DFD06-3317-40CA-B510-4969A0718C16";
paths = (
{
closed = 1;
nodes = (
"435 -9 OFFCURVE",
"533 89 OFFCURVE",
"533 221 CURVE SMOOTH",
"533 671 LINE SMOOTH",
"533 688 OFFCURVE",
"521 700 OFFCURVE",
"505 700 CURVE SMOOTH",
"282 700 LINE",
"282 665 OFFCURVE",
"300 647 OFFCURVE",
"335 647 CURVE SMOOTH",
"474 647 LINE",
"474 221 LINE SMOOTH",
"474 115 OFFCURVE",
"410 46 OFFCURVE",
"292 46 CURVE SMOOTH",
"177 46 OFFCURVE",
"112 117 OFFCURVE",
"112 221 CURVE SMOOTH",
"112 230 OFFCURVE",
"113 240 OFFCURVE",
"115 251 CURVE",
"87 251 OFFCURVE",
"55 237 OFFCURVE",
"55 202 CURVE SMOOTH",
"55 86 OFFCURVE",
"153 -9 OFFCURVE",
"292 -9 CURVE SMOOTH"
);
}
);
width = 603;
},
{
anchors = (
{
name = bottom;
position = "{298, 0}";
},
{
name = top;
position = "{383, 700}";
}
);
background = {
paths = (
{
closed = 1;
nodes = (
"416 -9 OFFCURVE",
"527 94 OFFCURVE",
"527 221 CURVE SMOOTH",
"527 671 LINE SMOOTH",
"527 688 OFFCURVE",
"515 700 OFFCURVE",
"499 700 CURVE SMOOTH",
"276 700 LINE",
"276 665 OFFCURVE",
"294 647 OFFCURVE",
"329 647 CURVE SMOOTH",
"468 647 LINE",
"468 597 OFFCURVE",
"468 221 OFFCURVE",
"468 221 CURVE",
"468 125 OFFCURVE",
"384 44 OFFCURVE",
"281 44 CURVE SMOOTH",
"176 44 OFFCURVE",
"92 125 OFFCURVE",
"92 221 CURVE SMOOTH",
"92 230 OFFCURVE",
"93 240 OFFCURVE",
"95 251 CURVE",
"62 251 OFFCURVE",
"27 231 OFFCURVE",
"37 180 CURVE SMOOTH",
"59 72 OFFCURVE",
"158 -9 OFFCURVE",
"281 -9 CURVE SMOOTH"
);
}
);
};
layerId = "671CEF0C-3804-4AAB-8F09-7652EF8CF253";
paths = (
{
closed = 1;
nodes = (
"456 -9 OFFCURVE",
"571 104 OFFCURVE",
"571 259 CURVE SMOOTH",
"571 633 LINE SMOOTH",
"571 672 OFFCURVE",
"538 700 OFFCURVE",
"499 700 CURVE SMOOTH",
"230 700 LINE",
"230 619 OFFCURVE",
"258 573 OFFCURVE",
"329 573 CURVE SMOOTH",
"424 573 LINE",
"424 259 LINE SMOOTH",
"424 170 OFFCURVE",
"381 119 OFFCURVE",
"297 119 CURVE SMOOTH",
"216 119 OFFCURVE",
"170 160 OFFCURVE",
"170 247 CURVE SMOOTH",
"170 260 OFFCURVE",
"170 279 OFFCURVE",
"173 295 CURVE",
"90 315 OFFCURVE",
"25 281 OFFCURVE",
"25 215 CURVE SMOOTH",
"25 82 OFFCURVE",
"144 -9 OFFCURVE",
"297 -9 CURVE SMOOTH"
);
}
);
width = 621;
}
);
leftKerningGroup = J;
note = J;
rightKerningGroup = J;
unicode = 004A;
},
{
color = 6;
glyphname = K;
lastChange = "2018-04-24 05:26:47 +0000";
layers = (
{
anchors = (
{
name = bottom;
position = "{314, 0}";
},
{
name = top;
position = "{314, 700}";
}
);
background = {
paths = (
{
closed = 1;
nodes = (
"119 -9 OFFCURVE",
"139 12 OFFCURVE",
"139 50 CURVE SMOOTH",
"139 183 LINE SMOOTH",
"139 279 OFFCURVE",
"223 360 OFFCURVE",
"327 360 CURVE SMOOTH",
"430 360 OFFCURVE",
"514 279 OFFCURVE",
"514 183 CURVE SMOOTH",
"514 -9 LINE",
"552 -9 OFFCURVE",
"573 12 OFFCURVE",
"573 50 CURVE SMOOTH",
"573 183 LINE SMOOTH",
"573 310 OFFCURVE",
"462 413 OFFCURVE",
"327 413 CURVE SMOOTH",
"306 413 OFFCURVE",
"279 407 OFFCURVE",
"260 397 CURVE",
"256 398 LINE",
"268 405 OFFCURVE",
"282 413 OFFCURVE",
"306 420 CURVE",
"530 634 LINE SMOOTH",
"555 659 OFFCURVE",
"557 684 OFFCURVE",
"531 709 CURVE",
"139 335 LINE",
"139 709 LINE",
"101 709 OFFCURVE",
"80 688 OFFCURVE",
"80 650 CURVE SMOOTH",
"80 -9 LINE"
);
}
);
};
layerId = "0B1DFD06-3317-40CA-B510-4969A0718C16";
paths = (
{
closed = 1;
nodes = (
"119 -9 OFFCURVE",
"139 12 OFFCURVE",
"139 50 CURVE SMOOTH",
"139 203 LINE SMOOTH",
"139 306 OFFCURVE",
"215 373 OFFCURVE",
"329 373 CURVE SMOOTH",
"449 373 OFFCURVE",
"498 302 OFFCURVE",
"498 196 CURVE SMOOTH",
"498 -9 LINE",
"536 -9 OFFCURVE",
"557 12 OFFCURVE",
"557 50 CURVE SMOOTH",
"557 196 LINE SMOOTH",
"557 331 OFFCURVE",
"471 424 OFFCURVE",
"334 424 CURVE SMOOTH",
"303 424 OFFCURVE",
"272 410 OFFCURVE",
"253 400 CURVE",
"250 406 LINE",
"263 413 OFFCURVE",
"284 423 OFFCURVE",
"305 431 CURVE",
"530 634 LINE SMOOTH",
"544 646 OFFCURVE",
"550 660 OFFCURVE",
"550 673 CURVE SMOOTH",
"549 685 OFFCURVE",
"543 697 OFFCURVE",
"531 709 CURVE",
"139 348 LINE",
"139 709 LINE",
"101 709 OFFCURVE",
"80 688 OFFCURVE",
"80 650 CURVE SMOOTH",
"80 -9 LINE"
);
}
);
width = 622;
},
{
anchors = (
{
name = bottom;
position = "{333, 0}";
},
{
name = top;
position = "{333, 700}";
}
);
background = {
paths = (
{
closed = 1;
nodes = (
"138 -9 OFFCURVE",
"158 12 OFFCURVE",
"158 50 CURVE SMOOTH",
"158 183 LINE SMOOTH",
"158 279 OFFCURVE",
"242 360 OFFCURVE",
"346 360 CURVE SMOOTH",
"449 360 OFFCURVE",
"533 279 OFFCURVE",
"533 183 CURVE SMOOTH",
"533 -9 LINE",
"571 -9 OFFCURVE",
"592 12 OFFCURVE",
"592 50 CURVE SMOOTH",
"592 183 LINE SMOOTH",
"592 310 OFFCURVE",
"481 413 OFFCURVE",
"346 413 CURVE SMOOTH",
"325 413 OFFCURVE",
"298 407 OFFCURVE",
"279 397 CURVE",
"275 398 LINE",
"287 405 OFFCURVE",
"301 413 OFFCURVE",
"325 420 CURVE",
"549 634 LINE SMOOTH",
"574 659 OFFCURVE",
"576 684 OFFCURVE",
"550 709 CURVE",
"158 335 LINE",
"158 709 LINE",
"120 709 OFFCURVE",
"99 688 OFFCURVE",
"99 650 CURVE SMOOTH",
"99 -9 LINE"
);
}
);
};
layerId = "671CEF0C-3804-4AAB-8F09-7652EF8CF253";
paths = (
{
closed = 1;
nodes = (
"152 -9 OFFCURVE",
"202 19 OFFCURVE",
"202 92 CURVE SMOOTH",
"202 203 LINE SMOOTH",
"202 279 OFFCURVE",
"242 337 OFFCURVE",
"323 337 CURVE SMOOTH",
"407 337 OFFCURVE",
"444 286 OFFCURVE",
"444 204 CURVE SMOOTH",
"444 -9 LINE",
"541 -9 OFFCURVE",
"591 19 OFFCURVE",
"591 92 CURVE SMOOTH",
"591 217 LINE SMOOTH",
"591 324 OFFCURVE",
"542 423 OFFCURVE",
"433 423 CURVE SMOOTH",
"396 423 OFFCURVE",
"363 411 OFFCURVE",
"343 397 CURVE",
"334 411 LINE",
"351 424 OFFCURVE",
"382 437 OFFCURVE",
"405 442 CURVE",
"552 553 LINE SMOOTH",
"577 572 OFFCURVE",
"591 595 OFFCURVE",
"591 621 CURVE SMOOTH",
"591 646 OFFCURVE",
"564 682 OFFCURVE",
"527 709 CURVE",
"202 445 LINE",
"202 709 LINE",
"107 709 OFFCURVE",
"55 669 OFFCURVE",
"55 600 CURVE SMOOTH",
"55 -9 LINE"
);
}
);
width = 626;
}
);
note = K;
rightKerningGroup = K;
unicode = 004B;
},
{
color = 6;
glyphname = L;
lastChange = "2018-05-04 08:45:00 +0000";
layers = (
{
anchors = (
{
name = bottom;
position = "{306, 0}";
},
{
name = center;
position = "{306, 350}";
},
{
name = top;
position = "{125, 700}";
},
{
name = topright;
position = "{591, 700}";
}
);
background = {
paths = (
{
closed = 1;
nodes = (
"573 0 LINE",
"573 35 OFFCURVE",
"555 53 OFFCURVE",
"520 53 CURVE SMOOTH",
"139 53 LINE",
"139 709 LINE",
"101 709 OFFCURVE",
"80 688 OFFCURVE",
"80 650 CURVE SMOOTH",
"80 29 LINE SMOOTH",
"80 13 OFFCURVE",
"92 0 OFFCURVE",
"110 0 CURVE SMOOTH"
);
}
);
};
layerId = "0B1DFD06-3317-40CA-B510-4969A0718C16";
paths = (
{
closed = 1;
nodes = (
"531 0 LINE",
"531 35 OFFCURVE",
"513 53 OFFCURVE",
"478 53 CURVE SMOOTH",
"139 53 LINE",
"139 709 LINE",
"101 709 OFFCURVE",
"80 688 OFFCURVE",
"80 650 CURVE SMOOTH",
"80 29 LINE SMOOTH",
"80 13 OFFCURVE",
"92 0 OFFCURVE",
"110 0 CURVE SMOOTH"
);
}
);
width = 576;
},
{
anchors = (
{
name = bottom;
position = "{308, 0}";
},
{
name = center;
position = "{325, 350}";
},
{
name = top;
position = "{144, 700}";
},
{
name = topright;
position = "{610, 700}";
}
);
background = {
paths = (
{
closed = 1;
nodes = (
"592 0 LINE",
"592 35 OFFCURVE",
"574 53 OFFCURVE",
"539 53 CURVE SMOOTH",
"158 53 LINE",
"158 709 LINE",
"120 709 OFFCURVE",
"99 688 OFFCURVE",
"99 650 CURVE SMOOTH",
"99 29 LINE SMOOTH",
"99 13 OFFCURVE",
"111 0 OFFCURVE",
"129 0 CURVE SMOOTH"
);
}
);
};
layerId = "671CEF0C-3804-4AAB-8F09-7652EF8CF253";
paths = (
{
closed = 1;
nodes = (
"563 0 LINE",
"563 78 OFFCURVE",
"531 127 OFFCURVE",
"460 127 CURVE SMOOTH",
"202 127 LINE",
"202 709 LINE",
"95 709 OFFCURVE",
"55 670 OFFCURVE",
"55 603 CURVE SMOOTH",
"55 78 LINE SMOOTH",
"55 36 OFFCURVE",
"89 0 OFFCURVE",
"132 0 CURVE SMOOTH"
);
}
);
width = 588;
}
);
note = L;
rightKerningGroup = L;
unicode = 004C;
},
{
color = 6;
glyphname = M;
lastChange = "2018-04-25 06:23:49 +0000";
layers = (
{
anchors = (
{
name = bottom;
position = "{411, 0}";
},
{
name = top;
position = "{411, 700}";
}
);
background = {
paths = (
{
closed = 1;
nodes = (
"119 -9 OFFCURVE",
"139 12 OFFCURVE",
"139 50 CURVE SMOOTH",
"139 556 LINE",
"123 606 LINE",
"125 610 LINE",
"384 10 LINE SMOOTH",
"389 0 OFFCURVE",
"399 -9 OFFCURVE",
"411 -9 CURVE SMOOTH",
"422 -9 OFFCURVE",
"433 0 OFFCURVE",
"437 10 CURVE SMOOTH",
"697 610 LINE",
"698 606 LINE",
"682 556 LINE",
"682 -9 LINE",
"720 -9 OFFCURVE",
"741 12 OFFCURVE",
"741 50 CURVE SMOOTH",
"741 650 LINE SMOOTH",
"741 688 OFFCURVE",
"720 709 OFFCURVE",
"682 709 CURVE",
"400 60 LINE",
"399 65 LINE",
"408 91 LINE",
"139 709 LINE",
"101 709 OFFCURVE",
"80 688 OFFCURVE",
"80 650 CURVE SMOOTH",
"80 -9 LINE"
);
}
);
};
layerId = "0B1DFD06-3317-40CA-B510-4969A0718C16";
paths = (
{
closed = 1;
nodes = (
"119 -9 OFFCURVE",
"139 12 OFFCURVE",
"139 50 CURVE SMOOTH",
"139 561 LINE",
"120 608 LINE",
"125 610 LINE",
"384 10 LINE SMOOTH",
"389 0 OFFCURVE",
"399 -9 OFFCURVE",
"411 -9 CURVE SMOOTH",
"422 -9 OFFCURVE",
"433 0 OFFCURVE",
"437 10 CURVE SMOOTH",
"696 610 LINE",
"701 608 LINE",
"682 561 LINE",
"682 50 LINE SMOOTH",
"682 12 OFFCURVE",
"702 -9 OFFCURVE",
"741 -9 CURVE",
"741 650 LINE SMOOTH",
"741 688 OFFCURVE",
"720 709 OFFCURVE",
"682 709 CURVE",
"398 45 LINE",
"394 47 LINE",
"408 80 LINE",
"139 709 LINE",
"101 709 OFFCURVE",
"80 688 OFFCURVE",
"80 650 CURVE SMOOTH",
"80 -9 LINE"
);
}
);
width = 821;
},
{
anchors = (
{
name = bottom;
position = "{398, 0}";
},
{
name = top;
position = "{398, 700}";
}
);
background = {
paths = (
{
closed = 1;
nodes = (
"106 -9 OFFCURVE",
"126 12 OFFCURVE",
"126 50 CURVE SMOOTH",
"126 556 LINE",
"110 606 LINE",
"112 610 LINE",
"371 10 LINE SMOOTH",
"376 0 OFFCURVE",
"386 -9 OFFCURVE",
"398 -9 CURVE SMOOTH",
"409 -9 OFFCURVE",
"420 0 OFFCURVE",
"424 10 CURVE SMOOTH",
"684 610 LINE",
"685 606 LINE",
"669 556 LINE",
"669 -9 LINE",
"707 -9 OFFCURVE",
"728 12 OFFCURVE",
"728 50 CURVE SMOOTH",
"728 650 LINE SMOOTH",
"728 688 OFFCURVE",
"707 709 OFFCURVE",
"669 709 CURVE",
"387 60 LINE",
"386 65 LINE",
"395 91 LINE",
"126 709 LINE",
"88 709 OFFCURVE",
"67 688 OFFCURVE",
"67 650 CURVE SMOOTH",
"67 -9 LINE"
);
}
);
};
layerId = "671CEF0C-3804-4AAB-8F09-7652EF8CF253";
paths = (
{
closed = 1;
nodes = (
"160 -9 OFFCURVE",
"198 34 OFFCURVE",
"198 96 CURVE SMOOTH",
"198 383 LINE",
"162 483 LINE",
"174 488 LINE",
"344 31 LINE SMOOTH",
"353 7 OFFCURVE",
"376 -9 OFFCURVE",
"403 -9 CURVE SMOOTH",
"429 -9 OFFCURVE",
"452 7 OFFCURVE",
"461 30 CURVE SMOOTH",
"631 486 LINE",
"643 482 LINE",
"607 382 LINE",
"607 96 LINE SMOOTH",
"607 34 OFFCURVE",
"645 -9 OFFCURVE",
"750 -9 CURVE",
"750 601 LINE SMOOTH",
"750 670 OFFCURVE",
"688 709 OFFCURVE",
"603 709 CURVE",
"388 127 LINE",
"377 132 LINE",
"402 200 LINE",
"202 710 LINE",
"117 710 OFFCURVE",
"55 671 OFFCURVE",
"55 602 CURVE SMOOTH",
"55 -9 LINE"
);
}
);
width = 805;
}
);
leftKerningGroup = M;
note = M;
rightKerningGroup = M;
unicode = 004D;
},
{
color = 6;
glyphname = N;
lastChange = "2018-05-03 08:04:30 +0000";
layers = (
{
anchors = (
{
name = bottom;
position = "{349, 0}";
},
{
name = top;
position = "{349, 700}";
}
);
background = {
paths = (
{
closed = 1;
nodes = (
"119 -9 OFFCURVE",
"139 12 OFFCURVE",
"139 50 CURVE SMOOTH",
"139 600 LINE",
"123 631 LINE",
"125 635 LINE",
"125 635 OFFCURVE",
"571 -10 OFFCURVE",
"573 -9 CURVE",
"611 -9 OFFCURVE",
"632 12 OFFCURVE",
"632 50 CURVE SMOOTH",
"632 650 LINE SMOOTH",
"632 688 OFFCURVE",
"611 709 OFFCURVE",
"573 709 CURVE",
"573 100 LINE",
"589 69 LINE",
"587 65 LINE",
"587 65 OFFCURVE",
"139 708 OFFCURVE",
"139 709 CURVE",
"101 709 OFFCURVE",
"80 688 OFFCURVE",
"80 650 CURVE SMOOTH",
"80 -9 LINE"
);
}
);
};
layerId = "0B1DFD06-3317-40CA-B510-4969A0718C16";
paths = (
{
closed = 1;
nodes = (
"119 -9 OFFCURVE",
"139 12 OFFCURVE",
"139 50 CURVE SMOOTH",
"139 602 LINE",
"120 632 LINE",
"125 635 LINE",
"558 -9 LINE",
"596 -9 OFFCURVE",
"617 12 OFFCURVE",
"617 50 CURVE SMOOTH",
"617 650 LINE SMOOTH",
"617 688 OFFCURVE",
"596 709 OFFCURVE",
"558 709 CURVE",
"558 98 LINE",
"576 68 LINE",
"572 65 LINE",
"139 709 LINE",
"101 709 OFFCURVE",
"80 688 OFFCURVE",
"80 650 CURVE SMOOTH",
"80 -9 LINE"
);
}
);
width = 697;
},
{
anchors = (
{
name = bottom;
position = "{341, 0}";
},
{
name = top;
position = "{341, 700}";
}
);
background = {
paths = (
{
closed = 1;
nodes = (
"138 -9 OFFCURVE",
"158 12 OFFCURVE",
"158 50 CURVE SMOOTH",
"158 600 LINE",
"142 631 LINE",
"144 635 LINE",
"144 635 OFFCURVE",
"590 -10 OFFCURVE",
"592 -9 CURVE",
"630 -9 OFFCURVE",
"651 12 OFFCURVE",
"651 50 CURVE SMOOTH",
"651 650 LINE SMOOTH",
"651 688 OFFCURVE",
"630 709 OFFCURVE",
"592 709 CURVE",
"592 100 LINE",
"608 69 LINE",
"606 65 LINE",
"606 65 OFFCURVE",
"158 708 OFFCURVE",
"158 709 CURVE",
"120 709 OFFCURVE",
"99 688 OFFCURVE",
"99 650 CURVE SMOOTH",
"99 -9 LINE"
);
}
);
};
layerId = "671CEF0C-3804-4AAB-8F09-7652EF8CF253";
paths = (
{
closed = 1;
nodes = (
"146 -9 OFFCURVE",
"200 24 OFFCURVE",
"200 97 CURVE SMOOTH",
"200 448 LINE",
"155 523 LINE",
"166 532 LINE",
"508 -9 LINE",
"562 -9 OFFCURVE",
"620 32 OFFCURVE",
"620 88 CURVE SMOOTH",
"620 603 LINE SMOOTH",
"620 676 OFFCURVE",
"566 709 OFFCURVE",
"475 709 CURVE",
"475 285 LINE",
"520 210 LINE",
"509 201 LINE",
"188 709 LINE",
"112 709 OFFCURVE",
"55 668 OFFCURVE",
"55 594 CURVE SMOOTH",
"55 -9 LINE"
);
}
);
width = 675;
}
);
leftKerningGroup = N;
note = N;
rightKerningGroup = N;
unicode = 004E;
},
{
color = 6;
glyphname = O;
lastChange = "2018-05-04 09:24:31 +0000";
layers = (
{
anchors = (
{
name = bottom;
position = "{415, 0}";
},
{
name = center;
position = "{415, 350}";
},
{
name = ogonek;
position = "{743, 10}";
},
{
name = top;
position = "{415, 700}";
},
{
name = topleft;
position = "{25, 700}";
},
{
name = topright;
position = "{687, 567}";
}
);
background = {
paths = (
{
closed = 1;
nodes = (
"613 -9 OFFCURVE",
"774 150 OFFCURVE",
"774 349 CURVE SMOOTH",
"774 548 OFFCURVE",
"613 709 OFFCURVE",
"414 709 CURVE SMOOTH",
"215 709 OFFCURVE",
"56 548 OFFCURVE",
"56 349 CURVE SMOOTH",
"56 150 OFFCURVE",
"215 -9 OFFCURVE",
"414 -9 CURVE SMOOTH"
);
},
{
closed = 1;
nodes = (
"248 44 OFFCURVE",
"115 180 OFFCURVE",
"115 349 CURVE SMOOTH",
"115 519 OFFCURVE",
"248 656 OFFCURVE",
"414 656 CURVE SMOOTH",
"581 656 OFFCURVE",
"715 519 OFFCURVE",
"715 349 CURVE SMOOTH",
"715 180 OFFCURVE",
"581 44 OFFCURVE",
"414 44 CURVE SMOOTH"
);
}
);
};
layerId = "0B1DFD06-3317-40CA-B510-4969A0718C16";
paths = (
{
closed = 1;
nodes = (
"613 -9 OFFCURVE",
"775 150 OFFCURVE",
"775 349 CURVE SMOOTH",
"775 548 OFFCURVE",
"613 709 OFFCURVE",
"414 709 CURVE SMOOTH",
"215 709 OFFCURVE",
"55 548 OFFCURVE",
"55 349 CURVE SMOOTH",
"55 150 OFFCURVE",
"215 -9 OFFCURVE",
"414 -9 CURVE SMOOTH"
);
},
{
closed = 1;
nodes = (
"248 46 OFFCURVE",
"116 170 OFFCURVE",
"116 349 CURVE SMOOTH",
"116 529 OFFCURVE",
"248 654 OFFCURVE",
"414 654 CURVE SMOOTH",
"581 654 OFFCURVE",
"714 529 OFFCURVE",
"714 349 CURVE SMOOTH",
"714 170 OFFCURVE",
"581 46 OFFCURVE",
"414 46 CURVE SMOOTH"
);
}
);
width = 830;
},
{
anchors = (
{
name = bottom;
position = "{413, 0}";
},
{
name = center;
position = "{414, 350}";
},
{
name = ogonek;
position = "{711, 42}";
},
{
name = top;
position = "{413, 700}";
},
{
name = topleft;
position = "{61, 667}";
},
{
name = topright;
position = "{720, 546}";
}
);
background = {
paths = (
{
closed = 1;
nodes = (
"612 -9 OFFCURVE",
"773 150 OFFCURVE",
"773 349 CURVE SMOOTH",
"773 548 OFFCURVE",
"612 709 OFFCURVE",
"413 709 CURVE SMOOTH",
"214 709 OFFCURVE",
"55 548 OFFCURVE",
"55 349 CURVE SMOOTH",
"55 150 OFFCURVE",
"214 -9 OFFCURVE",
"413 -9 CURVE SMOOTH"
);
},
{
closed = 1;
nodes = (
"247 44 OFFCURVE",
"114 180 OFFCURVE",
"114 349 CURVE SMOOTH",
"114 519 OFFCURVE",
"247 656 OFFCURVE",
"413 656 CURVE SMOOTH",
"580 656 OFFCURVE",
"714 519 OFFCURVE",
"714 349 CURVE SMOOTH",
"714 180 OFFCURVE",
"580 44 OFFCURVE",
"413 44 CURVE SMOOTH"
);
}
);
};
layerId = "671CEF0C-3804-4AAB-8F09-7652EF8CF253";
paths = (
{
closed = 1;
nodes = (
"628 -9 OFFCURVE",
"791 133 OFFCURVE",
"791 349 CURVE SMOOTH",
"791 566 OFFCURVE",
"628 709 OFFCURVE",
"413 709 CURVE SMOOTH",
"198 709 OFFCURVE",
"35 566 OFFCURVE",
"35 349 CURVE SMOOTH",
"35 133 OFFCURVE",
"198 -9 OFFCURVE",
"413 -9 CURVE SMOOTH"
);
},
{
closed = 1;
nodes = (
"275 120 OFFCURVE",
"184 205 OFFCURVE",
"184 349 CURVE SMOOTH",
"184 494 OFFCURVE",
"276 580 OFFCURVE",
"413 580 CURVE SMOOTH",
"550 580 OFFCURVE",
"642 494 OFFCURVE",
"642 349 CURVE SMOOTH",
"642 205 OFFCURVE",
"551 120 OFFCURVE",
"413 120 CURVE SMOOTH"
);
}
);
width = 826;
}
);
leftKerningGroup = O;
note = O;
rightKerningGroup = O;
unicode = 004F;
},
{
color = 6;
glyphname = P;
lastChange = "2018-04-24 05:26:47 +0000";
layers = (
{
anchors = (
{
name = bottom;
position = "{336, 0}";
},
{
name = top;
position = "{336, 700}";
}
);
background = {
paths = (
{
closed = 1;
nodes = (
"119 -9 OFFCURVE",
"139 12 OFFCURVE",
"139 50 CURVE SMOOTH",
"139 324 LINE",
"188 324 OFFCURVE",
"455 324 OFFCURVE",
"455 324 CURVE",
"554 324 OFFCURVE",
"632 416 OFFCURVE",
"632 513 CURVE SMOOTH",
"632 610 OFFCURVE",
"554 700 OFFCURVE",
"455 700 CURVE SMOOTH",
"110 700 LINE SMOOTH",
"92 700 OFFCURVE",
"80 688 OFFCURVE",
"80 671 CURVE SMOOTH",
"80 -9 LINE"
);
},
{
closed = 1;
nodes = (
"139 647 LINE",
"188 647 OFFCURVE",
"455 647 OFFCURVE",
"455 647 CURVE",
"521 647 OFFCURVE",
"573 576 OFFCURVE",
"573 513 CURVE SMOOTH",
"573 450 OFFCURVE",
"521 377 OFFCURVE",
"455 377 CURVE SMOOTH",
"455 377 OFFCURVE",
"188 377 OFFCURVE",
"139 377 CURVE"
);
}
);
};
layerId = "0B1DFD06-3317-40CA-B510-4969A0718C16";
paths = (
{
closed = 1;
nodes = (
"119 -9 OFFCURVE",
"139 12 OFFCURVE",
"139 50 CURVE SMOOTH",
"139 284 LINE",
"415 284 LINE SMOOTH",
"534 284 OFFCURVE",
"622 361 OFFCURVE",
"622 493 CURVE SMOOTH",
"622 620 OFFCURVE",
"534 700 OFFCURVE",
"415 700 CURVE SMOOTH",
"110 700 LINE SMOOTH",
"92 700 OFFCURVE",
"80 688 OFFCURVE",
"80 671 CURVE SMOOTH",
"80 -9 LINE"
);
},
{
closed = 1;
nodes = (
"139 647 LINE",
"415 647 LINE SMOOTH",
"501 647 OFFCURVE",
"563 586 OFFCURVE",
"563 493 CURVE SMOOTH",
"563 395 OFFCURVE",
"501 337 OFFCURVE",
"415 337 CURVE SMOOTH",
"139 337 LINE"
);
}
);
width = 677;
},
{
anchors = (
{
name = bottom;
position = "{355, 0}";
},
{
name = top;
position = "{355, 700}";
}
);
background = {
paths = (
{
closed = 1;
nodes = (
"138 -9 OFFCURVE",
"158 12 OFFCURVE",
"158 50 CURVE SMOOTH",
"158 324 LINE",
"207 324 OFFCURVE",
"474 324 OFFCURVE",
"474 324 CURVE",
"573 324 OFFCURVE",
"651 416 OFFCURVE",
"651 513 CURVE SMOOTH",
"651 610 OFFCURVE",
"573 700 OFFCURVE",
"474 700 CURVE SMOOTH",
"129 700 LINE SMOOTH",
"111 700 OFFCURVE",
"99 688 OFFCURVE",
"99 671 CURVE SMOOTH",
"99 -9 LINE"
);
},
{
closed = 1;
nodes = (
"158 647 LINE",
"207 647 OFFCURVE",
"474 647 OFFCURVE",
"474 647 CURVE",
"540 647 OFFCURVE",
"592 576 OFFCURVE",
"592 513 CURVE SMOOTH",
"592 450 OFFCURVE",
"540 377 OFFCURVE",
"474 377 CURVE SMOOTH",
"474 377 OFFCURVE",
"207 377 OFFCURVE",
"158 377 CURVE"
);
}
);
};
layerId = "671CEF0C-3804-4AAB-8F09-7652EF8CF253";
paths = (
{
closed = 1;
nodes = (
"146 -9 OFFCURVE",
"202 24 OFFCURVE",
"202 97 CURVE SMOOTH",
"202 229 LINE",
"402 229 LINE SMOOTH",
"551 229 OFFCURVE",
"653 318 OFFCURVE",
"653 465 CURVE SMOOTH",
"653 609 OFFCURVE",
"549 700 OFFCURVE",
"402 700 CURVE SMOOTH",
"129 700 LINE SMOOTH",
"89 700 OFFCURVE",
"55 673 OFFCURVE",
"55 633 CURVE SMOOTH",
"55 -9 LINE"
);
},
{
closed = 1;
nodes = (
"202 573 LINE",
"402 573 LINE SMOOTH",
"465 573 OFFCURVE",
"506 537 OFFCURVE",
"506 466 CURVE SMOOTH",
"506 392 OFFCURVE",
"466 356 OFFCURVE",
"402 356 CURVE SMOOTH",
"202 356 LINE"
);
}
);
width = 688;
}
);
note = P;
rightKerningGroup = P;
unicode = 0050;
},
{
color = 6;
glyphname = Q;
lastChange = "2018-04-25 06:56:58 +0000";
layers = (
{
anchors = (
{
name = bottom;
position = "{414, 0}";
},
{
name = top;
position = "{414, 700}";
}
);
background = {
paths = (
{
closed = 1;
nodes = (
"488 -9 OFFCURVE",
"558 13 OFFCURVE",
"615 52 CURVE",
"645 28 OFFCURVE",
"674 6 OFFCURVE",
"708 -4 CURVE SMOOTH",
"749 -18 OFFCURVE",
"773 -3 OFFCURVE",
"773 37 CURVE",
"732 37 OFFCURVE",
"695 59 OFFCURVE",
"659 87 CURVE",
"729 152 OFFCURVE",
"773 245 OFFCURVE",
"773 349 CURVE SMOOTH",
"773 548 OFFCURVE",
"612 709 OFFCURVE",
"413 709 CURVE SMOOTH",
"214 709 OFFCURVE",
"55 548 OFFCURVE",
"55 349 CURVE SMOOTH",
"55 150 OFFCURVE",
"214 -9 OFFCURVE",
"413 -9 CURVE SMOOTH"
);
},
{
closed = 1;
nodes = (
"294 44 OFFCURVE",
"191 113 OFFCURVE",
"143 215 CURVE",
"180 233 OFFCURVE",
"219 239 OFFCURVE",
"255 239 CURVE SMOOTH",
"325 239 OFFCURVE",
"397 217 OFFCURVE",
"457 180 CURVE SMOOTH",
"491 158 OFFCURVE",
"530 127 OFFCURVE",
"562 99 CURVE SMOOTH",
"572 90 LINE",
"525 60 OFFCURVE",
"471 44 OFFCURVE",
"413 44 CURVE SMOOTH"
);
},
{
closed = 1;
nodes = (
"609 128 OFFCURVE",
"603 134 OFFCURVE",
"597 140 CURVE",
"565 167 OFFCURVE",
"531 196 OFFCURVE",
"487 224 CURVE SMOOTH",
"416 268 OFFCURVE",
"336 292 OFFCURVE",
"255 292 CURVE SMOOTH",
"211 292 OFFCURVE",
"166 284 OFFCURVE",
"124 270 CURVE",
"117 295 OFFCURVE",
"114 321 OFFCURVE",
"114 349 CURVE SMOOTH",
"114 519 OFFCURVE",
"247 656 OFFCURVE",
"413 656 CURVE SMOOTH",
"580 656 OFFCURVE",
"714 519 OFFCURVE",
"714 349 CURVE SMOOTH",
"714 259 OFFCURVE",
"676 178 OFFCURVE",
"617 124 CURVE"
);
}
);
};
layerId = "0B1DFD06-3317-40CA-B510-4969A0718C16";
paths = (
{
closed = 1;
nodes = (
"488 -9 OFFCURVE",
"557 12 OFFCURVE",
"613 50 CURVE",
"642 19 OFFCURVE",
"685 -9 OFFCURVE",
"725 -9 CURVE SMOOTH",
"749 -9 OFFCURVE",
"763 8 OFFCURVE",
"763 38 CURVE",
"722 38 OFFCURVE",
"687 49 OFFCURVE",
"655 82 CURVE",
"729 147 OFFCURVE",
"773 245 OFFCURVE",
"773 349 CURVE SMOOTH",
"773 548 OFFCURVE",
"612 709 OFFCURVE",
"413 709 CURVE SMOOTH",
"214 709 OFFCURVE",
"55 548 OFFCURVE",
"55 349 CURVE SMOOTH",
"55 150 OFFCURVE",
"214 -9 OFFCURVE",
"413 -9 CURVE SMOOTH"
);
},
{
closed = 1;
nodes = (
"294 46 OFFCURVE",
"191 114 OFFCURVE",
"143 216 CURVE",
"180 234 OFFCURVE",
"244 242 OFFCURVE",
"280 242 CURVE SMOOTH",
"405 242 OFFCURVE",
"491 191 OFFCURVE",
"575 91 CURVE",
"528 61 OFFCURVE",
"471 46 OFFCURVE",
"413 46 CURVE SMOOTH"
);
},
{
closed = 1;
nodes = (
"522 236 OFFCURVE",
"420 293 OFFCURVE",
"280 293 CURVE SMOOTH",
"236 293 OFFCURVE",
"169 281 OFFCURVE",
"128 265 CURVE",
"120 290 OFFCURVE",
"116 321 OFFCURVE",
"116 349 CURVE SMOOTH",
"116 519 OFFCURVE",
"247 654 OFFCURVE",
"413 654 CURVE SMOOTH",
"580 654 OFFCURVE",
"712 519 OFFCURVE",
"712 349 CURVE SMOOTH",
"712 259 OFFCURVE",
"675 177 OFFCURVE",
"616 123 CURVE"
);
}
);
width = 828;
},
{
anchors = (
{
name = bottom;
position = "{414, 0}";
},
{
name = top;
position = "{414, 700}";
}
);
background = {
paths = (
{
closed = 1;
nodes = (
"488 -9 OFFCURVE",
"558 13 OFFCURVE",
"615 52 CURVE",
"645 28 OFFCURVE",
"674 6 OFFCURVE",
"708 -4 CURVE SMOOTH",
"749 -18 OFFCURVE",
"773 -3 OFFCURVE",
"773 37 CURVE",
"732 37 OFFCURVE",
"695 59 OFFCURVE",
"659 87 CURVE",
"729 152 OFFCURVE",
"773 245 OFFCURVE",
"773 349 CURVE SMOOTH",
"773 548 OFFCURVE",
"612 709 OFFCURVE",
"413 709 CURVE SMOOTH",
"214 709 OFFCURVE",
"55 548 OFFCURVE",
"55 349 CURVE SMOOTH",
"55 150 OFFCURVE",
"214 -9 OFFCURVE",
"413 -9 CURVE SMOOTH"
);
},
{
closed = 1;
nodes = (
"294 44 OFFCURVE",
"191 113 OFFCURVE",
"143 215 CURVE",
"180 233 OFFCURVE",
"219 239 OFFCURVE",
"255 239 CURVE SMOOTH",
"325 239 OFFCURVE",
"397 217 OFFCURVE",
"457 180 CURVE SMOOTH",
"491 158 OFFCURVE",
"530 127 OFFCURVE",
"562 99 CURVE SMOOTH",
"572 90 LINE",
"525 60 OFFCURVE",
"471 44 OFFCURVE",
"413 44 CURVE SMOOTH"
);
},
{
closed = 1;
nodes = (
"609 128 OFFCURVE",
"603 134 OFFCURVE",
"597 140 CURVE",
"565 167 OFFCURVE",
"531 196 OFFCURVE",
"487 224 CURVE SMOOTH",
"416 268 OFFCURVE",
"336 292 OFFCURVE",
"255 292 CURVE SMOOTH",
"211 292 OFFCURVE",
"166 284 OFFCURVE",
"124 270 CURVE",
"117 295 OFFCURVE",
"114 321 OFFCURVE",
"114 349 CURVE SMOOTH",
"114 519 OFFCURVE",
"247 656 OFFCURVE",
"413 656 CURVE SMOOTH",
"580 656 OFFCURVE",
"714 519 OFFCURVE",
"714 349 CURVE SMOOTH",
"714 259 OFFCURVE",
"676 178 OFFCURVE",
"617 124 CURVE"
);
}
);
};
layerId = "671CEF0C-3804-4AAB-8F09-7652EF8CF253";
paths = (
{
closed = 1;
nodes = (
"475 -9 OFFCURVE",
"531 6 OFFCURVE",
"578 32 CURVE",
"623 3 OFFCURVE",
"663 -9 OFFCURVE",
"707 -9 CURVE SMOOTH",
"768 -9 OFFCURVE",
"801 36 OFFCURVE",
"782 105 CURVE",
"751 90 OFFCURVE",
"720 88 OFFCURVE",
"682 99 CURVE",
"744 160 OFFCURVE",
"791 254 OFFCURVE",
"791 349 CURVE SMOOTH",
"791 566 OFFCURVE",
"628 709 OFFCURVE",
"413 709 CURVE SMOOTH",
"198 709 OFFCURVE",
"35 566 OFFCURVE",
"35 349 CURVE SMOOTH",
"35 133 OFFCURVE",
"205 -9 OFFCURVE",
"413 -9 CURVE SMOOTH"
);
},
{
closed = 1;
nodes = (
"318 116 OFFCURVE",
"255 146 OFFCURVE",
"216 212 CURVE",
"229 216 OFFCURVE",
"250 221 OFFCURVE",
"265 221 CURVE SMOOTH",
"359 221 OFFCURVE",
"418 194 OFFCURVE",
"483 122 CURVE",
"467 119 OFFCURVE",
"431 116 OFFCURVE",
"413 116 CURVE SMOOTH"
);
},
{
closed = 1;
nodes = (
"496 275 OFFCURVE",
"402 330 OFFCURVE",
"274 330 CURVE SMOOTH",
"249 330 OFFCURVE",
"211 323 OFFCURVE",
"185 314 CURVE",
"183 325 OFFCURVE",
"182 338 OFFCURVE",
"182 349 CURVE SMOOTH",
"182 494 OFFCURVE",
"276 580 OFFCURVE",
"413 580 CURVE SMOOTH",
"550 580 OFFCURVE",
"644 494 OFFCURVE",
"644 349 CURVE SMOOTH",
"644 272 OFFCURVE",
"621 215 OFFCURVE",
"579 174 CURVE"
);
}
);
width = 826;
}
);
leftKerningGroup = O;
note = Q;
rightKerningGroup = O;
unicode = 0051;
},
{
color = 6;
glyphname = R;
lastChange = "2018-05-04 08:45:13 +0000";
layers = (
{
anchors = (
{
name = bottom;
position = "{332, 0}";
},
{
name = top;
position = "{332, 700}";
}
);
background = {
paths = (
{
closed = 1;
nodes = (
"119 -9 OFFCURVE",
"139 12 OFFCURVE",
"139 50 CURVE SMOOTH",
"139 324 LINE",
"455 324 LINE SMOOTH",
"521 324 OFFCURVE",
"574 273 OFFCURVE",
"574 190 CURVE SMOOTH",
"574 -9 LINE",
"613 -9 OFFCURVE",
"633 12 OFFCURVE",
"633 50 CURVE SMOOTH",
"633 190 LINE SMOOTH",
"633 256 OFFCURVE",
"596 321 OFFCURVE",
"537 348 CURVE",
"589 377 OFFCURVE",
"632 448 OFFCURVE",
"632 513 CURVE SMOOTH",
"632 610 OFFCURVE",
"554 700 OFFCURVE",
"455 700 CURVE SMOOTH",
"110 700 LINE SMOOTH",
"92 700 OFFCURVE",
"80 688 OFFCURVE",
"80 671 CURVE SMOOTH",
"80 -9 LINE"
);
},
{
closed = 1;
nodes = (
"139 647 LINE",
"455 647 LINE SMOOTH",
"521 647 OFFCURVE",
"573 576 OFFCURVE",
"573 513 CURVE SMOOTH",
"573 450 OFFCURVE",
"521 377 OFFCURVE",
"455 377 CURVE SMOOTH",
"139 377 LINE"
);
}
);
};
layerId = "0B1DFD06-3317-40CA-B510-4969A0718C16";
paths = (
{
closed = 1;
nodes = (
"119 -9 OFFCURVE",
"139 12 OFFCURVE",
"139 50 CURVE SMOOTH",
"139 304 LINE",
"401 304 LINE SMOOTH",
"479 304 OFFCURVE",
"524 258 OFFCURVE",
"524 170 CURVE SMOOTH",
"524 -9 LINE",
"563 -9 OFFCURVE",
"583 12 OFFCURVE",
"583 50 CURVE SMOOTH",
"583 176 LINE SMOOTH",
"583 243 OFFCURVE",
"552 303 OFFCURVE",
"485 329 CURVE",
"485 332 LINE",
"556 365 OFFCURVE",
"594 422 OFFCURVE",
"594 503 CURVE SMOOTH",
"594 605 OFFCURVE",
"526 700 OFFCURVE",
"395 700 CURVE SMOOTH",
"110 700 LINE SMOOTH",
"92 700 OFFCURVE",
"80 688 OFFCURVE",
"80 671 CURVE SMOOTH",
"80 -9 LINE"
);
},
{
closed = 1;
nodes = (
"139 647 LINE",
"395 647 LINE SMOOTH",
"486 647 OFFCURVE",
"533 587 OFFCURVE",
"533 503 CURVE SMOOTH",
"533 412 OFFCURVE",
"474 357 OFFCURVE",
"395 357 CURVE SMOOTH",
"139 357 LINE"
);
}
);
width = 664;
},
{
anchors = (
{
name = bottom;
position = "{321, 0}";
},
{
name = top;
position = "{321, 700}";
}
);
background = {
paths = (
{
closed = 1;
nodes = (
"138 -9 OFFCURVE",
"158 12 OFFCURVE",
"158 50 CURVE SMOOTH",
"158 324 LINE",
"474 324 LINE SMOOTH",
"540 324 OFFCURVE",
"593 273 OFFCURVE",
"593 190 CURVE SMOOTH",
"593 -9 LINE",
"632 -9 OFFCURVE",
"652 12 OFFCURVE",
"652 50 CURVE SMOOTH",
"652 190 LINE SMOOTH",
"652 256 OFFCURVE",
"615 321 OFFCURVE",
"556 348 CURVE",
"608 377 OFFCURVE",
"651 448 OFFCURVE",
"651 513 CURVE SMOOTH",
"651 610 OFFCURVE",
"573 700 OFFCURVE",
"474 700 CURVE SMOOTH",
"129 700 LINE SMOOTH",
"111 700 OFFCURVE",
"99 688 OFFCURVE",
"99 671 CURVE SMOOTH",
"99 -9 LINE"
);
},
{
closed = 1;
nodes = (
"158 647 LINE",
"474 647 LINE SMOOTH",
"540 647 OFFCURVE",
"592 576 OFFCURVE",
"592 513 CURVE SMOOTH",
"592 450 OFFCURVE",
"540 377 OFFCURVE",
"474 377 CURVE SMOOTH",
"158 377 LINE"
);
}
);
};
layerId = "671CEF0C-3804-4AAB-8F09-7652EF8CF253";
paths = (
{
closed = 1;
nodes = (
"146 -9 OFFCURVE",
"200 24 OFFCURVE",
"200 97 CURVE SMOOTH",
"200 258 LINE",
"390 258 LINE SMOOTH",
"443 258 OFFCURVE",
"469 228 OFFCURVE",
"469 161 CURVE SMOOTH",
"469 -9 LINE",
"560 -9 OFFCURVE",
"616 24 OFFCURVE",
"616 97 CURVE SMOOTH",
"616 166 LINE SMOOTH",
"616 234 OFFCURVE",
"591 285 OFFCURVE",
"529 313 CURVE",
"529 317 LINE",
"602 352 OFFCURVE",
"625 409 OFFCURVE",
"625 479 CURVE SMOOTH",
"625 616 OFFCURVE",
"545 700 OFFCURVE",
"392 700 CURVE SMOOTH",
"129 700 LINE SMOOTH",
"89 700 OFFCURVE",
"55 673 OFFCURVE",
"55 633 CURVE SMOOTH",
"55 -9 LINE"
);
},
{
closed = 1;
nodes = (
"200 575 LINE",
"384 575 LINE SMOOTH",
"445 575 OFFCURVE",
"478 549 OFFCURVE",
"478 480 CURVE SMOOTH",
"478 413 OFFCURVE",
"441 383 OFFCURVE",
"384 383 CURVE SMOOTH",
"200 383 LINE"
);
}
);
width = 670;
}
);
leftKerningGroup = R;
note = R;
rightKerningGroup = R;
unicode = 0052;
},
{
color = 6;
glyphname = S;
lastChange = "2018-05-04 05:01:48 +0000";
layers = (
{
anchors = (
{
name = bottom;
position = "{322, 0}";
},
{
name = top;
position = "{322, 700}";
}
);
background = {
paths = (
{
closed = 1;
nodes = (
"468 -9 OFFCURVE",
"601 100 OFFCURVE",
"592 223 CURVE SMOOTH",
"583 339 OFFCURVE",
"474 358 OFFCURVE",
"322 388 CURVE SMOOTH",
"194 413 OFFCURVE",
"136 435 OFFCURVE",
"130 506 CURVE SMOOTH",
"123 581 OFFCURVE",
"200 656 OFFCURVE",
"316 656 CURVE SMOOTH",
"433 656 OFFCURVE",
"500 575 OFFCURVE",
"500 481 CURVE SMOOTH",
"500 472 OFFCURVE",
"500 461 OFFCURVE",
"499 451 CURVE",
"528 451 OFFCURVE",
"564 472 OFFCURVE",
"556 520 CURVE SMOOTH",
"540 628 OFFCURVE",
"455 709 OFFCURVE",
"316 709 CURVE SMOOTH",
"160 709 OFFCURVE",
"61 607 OFFCURVE",
"71 500 CURVE SMOOTH",
"82 394 OFFCURVE",
"160 364 OFFCURVE",
"310 335 CURVE SMOOTH",
"433 311 OFFCURVE",
"527 287 OFFCURVE",
"533 218 CURVE SMOOTH",
"539 130 OFFCURVE",
"436 44 OFFCURVE",
"316 44 CURVE SMOOTH",
"195 44 OFFCURVE",
"98 127 OFFCURVE",
"98 221 CURVE SMOOTH",
"98 231 OFFCURVE",
"98 240 OFFCURVE",
"99 251 CURVE",
"68 251 OFFCURVE",
"33 231 OFFCURVE",
"43 180 CURVE SMOOTH",
"67 72 OFFCURVE",
"181 -9 OFFCURVE",
"316 -9 CURVE SMOOTH"
);
}
);
};
layerId = "0B1DFD06-3317-40CA-B510-4969A0718C16";
paths = (
{
closed = 1;
nodes = (
"506 -9 OFFCURVE",
"588 67 OFFCURVE",
"588 183 CURVE SMOOTH",
"588 308 OFFCURVE",
"495 350 OFFCURVE",
"322 386 CURVE SMOOTH",
"186 414 OFFCURVE",
"131 444 OFFCURVE",
"131 531 CURVE SMOOTH",
"131 606 OFFCURVE",
"193 655 OFFCURVE",
"314 655 CURVE SMOOTH",
"431 655 OFFCURVE",
"497 594 OFFCURVE",
"497 501 CURVE SMOOTH",
"497 492 OFFCURVE",
"497 481 OFFCURVE",
"496 471 CURVE",
"521 471 OFFCURVE",
"552 487 OFFCURVE",
"554 523 CURVE SMOOTH",
"561 636 OFFCURVE",
"449 709 OFFCURVE",
"314 709 CURVE SMOOTH",
"158 709 OFFCURVE",
"71 632 OFFCURVE",
"71 525 CURVE SMOOTH",
"71 413 OFFCURVE",
"152 363 OFFCURVE",
"310 331 CURVE SMOOTH",
"444 304 OFFCURVE",
"528 279 OFFCURVE",
"528 183 CURVE SMOOTH",
"528 90 OFFCURVE",
"468 45 OFFCURVE",
"331 45 CURVE SMOOTH",
"187 45 OFFCURVE",
"111 127 OFFCURVE",
"111 221 CURVE SMOOTH",
"111 231 OFFCURVE",
"111 240 OFFCURVE",
"112 251 CURVE",
"86 251 OFFCURVE",
"55 237 OFFCURVE",
"55 204 CURVE SMOOTH",
"55 79 OFFCURVE",
"173 -9 OFFCURVE",
"331 -9 CURVE SMOOTH"
);
}
);
width = 643;
},
{
anchors = (
{
name = bottom;
position = "{326, -9}";
},
{
name = top;
position = "{323, 700}";
}
);
background = {
paths = (
{
closed = 1;
nodes = (
"472 -9 OFFCURVE",
"605 100 OFFCURVE",
"596 223 CURVE SMOOTH",
"587 339 OFFCURVE",
"478 358 OFFCURVE",
"326 388 CURVE SMOOTH",
"198 413 OFFCURVE",
"140 435 OFFCURVE",
"134 506 CURVE SMOOTH",
"127 581 OFFCURVE",
"204 656 OFFCURVE",
"320 656 CURVE SMOOTH",
"437 656 OFFCURVE",
"504 575 OFFCURVE",
"504 481 CURVE SMOOTH",
"504 472 OFFCURVE",
"504 461 OFFCURVE",
"503 451 CURVE",
"532 451 OFFCURVE",
"568 472 OFFCURVE",
"560 520 CURVE SMOOTH",
"544 628 OFFCURVE",
"459 709 OFFCURVE",
"320 709 CURVE SMOOTH",
"164 709 OFFCURVE",
"65 607 OFFCURVE",
"75 500 CURVE SMOOTH",
"86 394 OFFCURVE",
"164 364 OFFCURVE",
"314 335 CURVE SMOOTH",
"437 311 OFFCURVE",
"531 287 OFFCURVE",
"537 218 CURVE SMOOTH",
"543 130 OFFCURVE",
"440 44 OFFCURVE",
"320 44 CURVE SMOOTH",
"199 44 OFFCURVE",
"102 127 OFFCURVE",
"102 221 CURVE SMOOTH",
"102 231 OFFCURVE",
"102 240 OFFCURVE",
"103 251 CURVE",
"72 251 OFFCURVE",
"37 231 OFFCURVE",
"47 180 CURVE SMOOTH",
"71 72 OFFCURVE",
"185 -9 OFFCURVE",
"320 -9 CURVE SMOOTH"
);
}
);
};
layerId = "671CEF0C-3804-4AAB-8F09-7652EF8CF253";
paths = (
{
closed = 1;
nodes = (
"513 -9 OFFCURVE",
"620 71 OFFCURVE",
"620 193 CURVE SMOOTH",
"620 311 OFFCURVE",
"546 371 OFFCURVE",
"341 417 CURVE SMOOTH",
"226 443 OFFCURVE",
"193 466 OFFCURVE",
"193 515 CURVE SMOOTH",
"193 565 OFFCURVE",
"239 593 OFFCURVE",
"324 593 CURVE SMOOTH",
"414 593 OFFCURVE",
"458 550 OFFCURVE",
"458 502 CURVE SMOOTH",
"458 483 OFFCURVE",
"456 470 OFFCURVE",
"454 454 CURVE",
"518 429 OFFCURVE",
"596 471 OFFCURVE",
"596 530 CURVE SMOOTH",
"596 634 OFFCURVE",
"478 709 OFFCURVE",
"324 709 CURVE SMOOTH",
"168 709 OFFCURVE",
"49 639 OFFCURVE",
"49 517 CURVE SMOOTH",
"49 391 OFFCURVE",
"131 339 OFFCURVE",
"314 296 CURVE SMOOTH",
"441 266 OFFCURVE",
"477 244 OFFCURVE",
"477 192 CURVE SMOOTH",
"477 142 OFFCURVE",
"430 107 OFFCURVE",
"338 107 CURVE SMOOTH",
"238 107 OFFCURVE",
"173 149 OFFCURVE",
"173 214 CURVE SMOOTH",
"173 232 OFFCURVE",
"174 246 OFFCURVE",
"177 265 CURVE",
"103 287 OFFCURVE",
"35 253 OFFCURVE",
"35 193 CURVE SMOOTH",
"35 71 OFFCURVE",
"151 -9 OFFCURVE",
"338 -9 CURVE SMOOTH"
);
}
);
width = 655;
}
);
leftKerningGroup = S;
note = S;
rightKerningGroup = S;
unicode = 0053;
},
{
color = 6;
glyphname = T;
lastChange = "2018-04-24 05:26:47 +0000";
layers = (
{
anchors = (
{
name = bottom;
position = "{315, 0}";
},
{
name = center;
position = "{320, 350}";
},
{
name = top;
position = "{320, 700}";
}
);
background = {
paths = (
{
closed = 1;
nodes = (
"329 -9 OFFCURVE",
"350 12 OFFCURVE",
"350 50 CURVE SMOOTH",
"350 647 LINE",
"542 647 LINE SMOOTH",
"577 647 OFFCURVE",
"595 665 OFFCURVE",
"595 700 CURVE",
"98 700 LINE SMOOTH",
"63 700 OFFCURVE",
"45 682 OFFCURVE",
"45 647 CURVE",
"291 647 LINE",
"291 -9 LINE"
);
}
);
};
layerId = "0B1DFD06-3317-40CA-B510-4969A0718C16";
paths = (
{
closed = 1;
nodes = (
"329 -9 OFFCURVE",
"350 12 OFFCURVE",
"350 50 CURVE SMOOTH",
"350 647 LINE",
"542 647 LINE SMOOTH",
"577 647 OFFCURVE",
"595 665 OFFCURVE",
"595 700 CURVE",
"98 700 LINE SMOOTH",
"63 700 OFFCURVE",
"45 682 OFFCURVE",
"45 647 CURVE",
"291 647 LINE",
"291 -9 LINE"
);
}
);
width = 640;
},
{
anchors = (
{
name = bottom;
position = "{334, 0}";
},
{
name = center;
position = "{339, 350}";
},
{
name = top;
position = "{339, 700}";
}
);
background = {
paths = (
{
closed = 1;
nodes = (
"348 -9 OFFCURVE",
"369 12 OFFCURVE",
"369 50 CURVE SMOOTH",
"369 647 LINE",
"561 647 LINE SMOOTH",
"596 647 OFFCURVE",
"614 665 OFFCURVE",
"614 700 CURVE",
"117 700 LINE SMOOTH",
"82 700 OFFCURVE",
"64 682 OFFCURVE",
"64 647 CURVE",
"310 647 LINE",
"310 -9 LINE"
);
}
);
};
layerId = "671CEF0C-3804-4AAB-8F09-7652EF8CF253";
paths = (
{
closed = 1;
nodes = (
"357 -9 OFFCURVE",
"413 24 OFFCURVE",
"413 97 CURVE SMOOTH",
"413 573 LINE",
"538 573 LINE SMOOTH",
"620 573 OFFCURVE",
"653 622 OFFCURVE",
"653 700 CURVE",
"140 700 LINE SMOOTH",
"58 700 OFFCURVE",
"25 651 OFFCURVE",
"25 573 CURVE",
"266 573 LINE",
"266 -9 LINE"
);
}
);
width = 678;
}
);
leftKerningGroup = T;
note = T;
rightKerningGroup = T;
unicode = 0054;
},
{
color = 6;
glyphname = U;
lastChange = "2018-05-04 09:23:25 +0000";
layers = (
{
anchors = (
{
name = bottom;
position = "{341, 0}";
},
{
name = ogonek;
position = "{428, 10}";
},
{
name = top;
position = "{341, 700}";
},
{
name = topright;
position = "{604, 591}";
}
);
background = {
paths = (
{
closed = 1;
nodes = (
"479 -9 OFFCURVE",
"627 75 OFFCURVE",
"627 221 CURVE SMOOTH",
"627 709 LINE",
"588 709 OFFCURVE",
"568 688 OFFCURVE",
"568 650 CURVE SMOOTH",
"568 221 LINE SMOOTH",
"568 125 OFFCURVE",
"472 44 OFFCURVE",
"351 44 CURVE SMOOTH",
"230 44 OFFCURVE",
"134 125 OFFCURVE",
"134 221 CURVE SMOOTH",
"134 709 LINE",
"96 709 OFFCURVE",
"75 688 OFFCURVE",
"75 650 CURVE SMOOTH",
"75 221 LINE SMOOTH",
"75 75 OFFCURVE",
"223 -9 OFFCURVE",
"351 -9 CURVE SMOOTH"
);
}
);
};
layerId = "0B1DFD06-3317-40CA-B510-4969A0718C16";
paths = (
{
closed = 1;
nodes = (
"479 -9 OFFCURVE",
"607 77 OFFCURVE",
"607 223 CURVE SMOOTH",
"607 709 LINE",
"568 709 OFFCURVE",
"548 688 OFFCURVE",
"548 650 CURVE SMOOTH",
"548 223 LINE SMOOTH",
"548 127 OFFCURVE",
"472 46 OFFCURVE",
"341 46 CURVE SMOOTH",
"210 46 OFFCURVE",
"134 127 OFFCURVE",
"134 223 CURVE SMOOTH",
"134 709 LINE",
"96 709 OFFCURVE",
"75 688 OFFCURVE",
"75 650 CURVE SMOOTH",
"75 223 LINE SMOOTH",
"75 77 OFFCURVE",
"203 -9 OFFCURVE",
"341 -9 CURVE SMOOTH"
);
}
);
width = 682;
},
{
anchors = (
{
name = bottom;
position = "{360, 0}";
},
{
name = ogonek;
position = "{447, 10}";
},
{
name = top;
position = "{360, 700}";
},
{
name = topright;
position = "{662, 591}";
}
);
background = {
paths = (
{
closed = 1;
nodes = (
"498 -9 OFFCURVE",
"646 75 OFFCURVE",
"646 221 CURVE SMOOTH",
"646 709 LINE",
"607 709 OFFCURVE",
"587 688 OFFCURVE",
"587 650 CURVE SMOOTH",
"587 221 LINE SMOOTH",
"587 125 OFFCURVE",
"491 44 OFFCURVE",
"370 44 CURVE SMOOTH",
"249 44 OFFCURVE",
"153 125 OFFCURVE",
"153 221 CURVE SMOOTH",
"153 709 LINE",
"115 709 OFFCURVE",
"94 688 OFFCURVE",
"94 650 CURVE SMOOTH",
"94 221 LINE SMOOTH",
"94 75 OFFCURVE",
"242 -9 OFFCURVE",
"370 -9 CURVE SMOOTH"
);
}
);
};
layerId = "671CEF0C-3804-4AAB-8F09-7652EF8CF253";
paths = (
{
closed = 1;
nodes = (
"526 -9 OFFCURVE",
"650 106 OFFCURVE",
"650 261 CURVE SMOOTH",
"650 709 LINE",
"559 709 OFFCURVE",
"503 676 OFFCURVE",
"503 603 CURVE SMOOTH",
"503 261 LINE SMOOTH",
"503 178 OFFCURVE",
"449 119 OFFCURVE",
"350 119 CURVE SMOOTH",
"251 119 OFFCURVE",
"197 178 OFFCURVE",
"197 261 CURVE SMOOTH",
"197 709 LINE",
"106 709 OFFCURVE",
"50 676 OFFCURVE",
"50 603 CURVE SMOOTH",
"50 261 LINE SMOOTH",
"50 106 OFFCURVE",
"174 -9 OFFCURVE",
"350 -9 CURVE SMOOTH"
);
}
);
width = 700;
}
);
leftKerningGroup = U;
note = U;
rightKerningGroup = U;
unicode = 0055;
},
{
color = 6;
glyphname = V;
lastChange = "2018-04-25 06:31:37 +0000";
layers = (
{
anchors = (
{
name = bottom;
position = "{344, 0}";
},
{
name = top;
position = "{344, 700}";
}
);
background = {
paths = (
{
closed = 1;
nodes = (
"355 -9 OFFCURVE",
"367 -1 OFFCURVE",
"371 9 CURVE SMOOTH",
"647 706 LINE",
"616 719 OFFCURVE",
"582 703 OFFCURVE",
"570 672 CURVE SMOOTH",
"333 57 LINE",
"332 62 LINE",
"340 91 LINE",
"116 672 LINE SMOOTH",
"105 703 OFFCURVE",
"71 719 OFFCURVE",
"40 706 CURVE",
"315 9 LINE SMOOTH",
"320 -1 OFFCURVE",
"332 -9 OFFCURVE",
"343 -9 CURVE SMOOTH"
);
}
);
};
layerId = "0B1DFD06-3317-40CA-B510-4969A0718C16";
paths = (
{
closed = 1;
nodes = (
"357 -9 OFFCURVE",
"367 -3 OFFCURVE",
"371 9 CURVE SMOOTH",
"632 705 LINE",
"625 708 OFFCURVE",
"617 710 OFFCURVE",
"610 710 CURVE SMOOTH",
"586 710 OFFCURVE",
"564 695 OFFCURVE",
"555 671 CURVE SMOOTH",
"331 46 LINE",
"326 48 LINE",
"340 88 LINE",
"131 671 LINE SMOOTH",
"122 695 OFFCURVE",
"101 710 OFFCURVE",
"77 710 CURVE SMOOTH",
"70 710 OFFCURVE",
"62 708 OFFCURVE",
"55 705 CURVE",
"315 9 LINE SMOOTH",
"319 -3 OFFCURVE",
"330 -9 OFFCURVE",
"343 -9 CURVE SMOOTH"
);
}
);
width = 687;
},
{
anchors = (
{
name = bottom;
position = "{352, 0}";
},
{
name = top;
position = "{352, 700}";
}
);
background = {
paths = (
{
closed = 1;
nodes = (
"363 -9 OFFCURVE",
"375 -1 OFFCURVE",
"379 9 CURVE SMOOTH",
"655 706 LINE",
"624 719 OFFCURVE",
"590 703 OFFCURVE",
"578 672 CURVE SMOOTH",
"341 57 LINE",
"340 62 LINE",
"348 91 LINE",
"124 672 LINE SMOOTH",
"113 703 OFFCURVE",
"79 719 OFFCURVE",
"48 706 CURVE",
"323 9 LINE SMOOTH",
"328 -1 OFFCURVE",
"340 -9 OFFCURVE",
"351 -9 CURVE SMOOTH"
);
}
);
};
layerId = "671CEF0C-3804-4AAB-8F09-7652EF8CF253";
paths = (
{
closed = 1;
nodes = (
"400 -9 OFFCURVE",
"422 11 OFFCURVE",
"433 40 CURVE SMOOTH",
"686 694 LINE",
"671 703 OFFCURVE",
"641 709 OFFCURVE",
"622 709 CURVE SMOOTH",
"568 709 OFFCURVE",
"529 688 OFFCURVE",
"512 640 CURVE SMOOTH",
"340 163 LINE",
"328 168 LINE",
"353 236 LINE",
"209 640 LINE SMOOTH",
"192 688 OFFCURVE",
"153 709 OFFCURVE",
"99 709 CURVE SMOOTH",
"80 709 OFFCURVE",
"50 703 OFFCURVE",
"35 694 CURVE",
"289 40 LINE SMOOTH",
"300 11 OFFCURVE",
"322 -9 OFFCURVE",
"361 -9 CURVE SMOOTH"
);
}
);
width = 721;
}
);
note = V;
unicode = 0056;
},
{
color = 6;
glyphname = W;
lastChange = "2018-04-25 06:32:01 +0000";
layers = (
{
anchors = (
{
name = bottom;
position = "{464, 0}";
},
{
name = top;
position = "{464, 700}";
}
);
background = {
paths = (
{
closed = 1;
nodes = (
"461 525 LINE",
"453 557 LINE",
"455 562 LINE",
"638 -9 LINE",
"669 -9 OFFCURVE",
"686 9 OFFCURVE",
"697 40 CURVE SMOOTH",
"918 708 LINE",
"887 718 OFFCURVE",
"853 700 OFFCURVE",
"843 669 CURVE SMOOTH",
"649 72 LINE",
"648 77 LINE",
"655 108 LINE",
"492 622 LINE",
"487 634 OFFCURVE",
"477 641 OFFCURVE",
"464 641 CURVE SMOOTH",
"450 641 OFFCURVE",
"440 634 OFFCURVE",
"436 622 CURVE",
"260 72 LINE",
"259 77 LINE",
"266 108 LINE",
"85 669 LINE SMOOTH",
"75 700 OFFCURVE",
"41 718 OFFCURVE",
"10 708 CURVE",
"231 40 LINE SMOOTH",
"241 9 OFFCURVE",
"259 -9 OFFCURVE",
"290 -9 CURVE"
);
}
);
};
layerId = "0B1DFD06-3317-40CA-B510-4969A0718C16";
paths = (
{
closed = 1;
nodes = (
"461 603 LINE",
"451 639 LINE",
"455 640 LINE",
"643 -9 LINE",
"674 -9 OFFCURVE",
"694 9 OFFCURVE",
"702 40 CURVE SMOOTH",
"873 706 LINE",
"867 708 OFFCURVE",
"860 709 OFFCURVE",
"854 709 CURVE SMOOTH",
"829 709 OFFCURVE",
"804 692 OFFCURVE",
"798 667 CURVE SMOOTH",
"652 64 LINE",
"648 66 LINE",
"658 108 LINE",
"492 690 LINE SMOOTH",
"487 702 OFFCURVE",
"477 709 OFFCURVE",
"464 709 CURVE SMOOTH",
"450 709 OFFCURVE",
"440 702 OFFCURVE",
"436 690 CURVE SMOOTH",
"253 64 LINE",
"249 66 LINE",
"261 108 LINE",
"130 667 LINE SMOOTH",
"124 692 OFFCURVE",
"98 709 OFFCURVE",
"72 709 CURVE SMOOTH",
"66 709 OFFCURVE",
"61 708 OFFCURVE",
"55 706 CURVE",
"226 40 LINE SMOOTH",
"234 9 OFFCURVE",
"254 -9 OFFCURVE",
"285 -9 CURVE"
);
}
);
width = 928;
},
{
anchors = (
{
name = bottom;
position = "{463, 0}";
},
{
name = top;
position = "{463, 700}";
}
);
background = {
paths = (
{
closed = 1;
nodes = (
"460 525 LINE",
"452 557 LINE",
"454 562 LINE",
"637 -9 LINE",
"668 -9 OFFCURVE",
"685 9 OFFCURVE",
"696 40 CURVE SMOOTH",
"917 708 LINE",
"886 718 OFFCURVE",
"852 700 OFFCURVE",
"842 669 CURVE SMOOTH",
"648 72 LINE",
"647 77 LINE",
"654 108 LINE",
"491 622 LINE",
"486 634 OFFCURVE",
"476 641 OFFCURVE",
"463 641 CURVE SMOOTH",
"449 641 OFFCURVE",
"439 634 OFFCURVE",
"435 622 CURVE",
"259 72 LINE",
"258 77 LINE",
"265 108 LINE",
"84 669 LINE SMOOTH",
"74 700 OFFCURVE",
"40 718 OFFCURVE",
"9 708 CURVE",
"230 40 LINE SMOOTH",
"240 9 OFFCURVE",
"258 -9 OFFCURVE",
"289 -9 CURVE"
);
}
);
};
layerId = "671CEF0C-3804-4AAB-8F09-7652EF8CF253";
paths = (
{
closed = 1;
nodes = (
"456 464 LINE",
"439 527 LINE",
"448 530 LINE",
"594 -9 LINE",
"670 -9 OFFCURVE",
"717 26 OFFCURVE",
"732 85 CURVE SMOOTH",
"887 692 LINE",
"870 702 OFFCURVE",
"846 709 OFFCURVE",
"817 709 CURVE SMOOTH",
"756 709 OFFCURVE",
"727 679 OFFCURVE",
"718 638 CURVE SMOOTH",
"615 189 LINE",
"605 192 LINE",
"626 280 LINE",
"526 659 LINE SMOOTH",
"518 689 OFFCURVE",
"494 709 OFFCURVE",
"461 709 CURVE SMOOTH",
"428 709 OFFCURVE",
"404 689 OFFCURVE",
"396 659 CURVE SMOOTH",
"269 204 LINE",
"259 207 LINE",
"280 290 LINE",
"204 638 LINE SMOOTH",
"195 679 OFFCURVE",
"166 709 OFFCURVE",
"105 709 CURVE SMOOTH",
"76 709 OFFCURVE",
"52 702 OFFCURVE",
"35 692 CURVE",
"190 85 LINE SMOOTH",
"205 26 OFFCURVE",
"252 -9 OFFCURVE",
"328 -9 CURVE"
);
}
);
width = 922;
}
);
leftKerningGroup = W;
note = W;
rightKerningGroup = W;
unicode = 0057;
},
{
color = 6;
glyphname = X;
lastChange = "2018-04-24 05:26:47 +0000";
layers = (
{
anchors = (
{
name = bottom;
position = "{345, 0}";
},
{
name = top;
position = "{345, 700}";
}
);
background = {
paths = (
{
closed = 1;
nodes = (
"76 -18 OFFCURVE",
"107 -9 OFFCURVE",
"126 18 CURVE SMOOTH",
"345 317 LINE",
"563 18 LINE SMOOTH",
"582 -9 OFFCURVE",
"613 -18 OFFCURVE",
"639 1 CURVE",
"377 361 LINE",
"625 700 LINE",
"598 719 OFFCURVE",
"566 710 OFFCURVE",
"548 685 CURVE SMOOTH",
"345 405 LINE",
"141 685 LINE SMOOTH",
"123 710 OFFCURVE",
"91 719 OFFCURVE",
"64 700 CURVE",
"312 361 LINE",
"50 1 LINE"
);
}
);
};
layerId = "0B1DFD06-3317-40CA-B510-4969A0718C16";
paths = (
{
closed = 1;
nodes = (
"102 -9 OFFCURVE",
"119 1 OFFCURVE",
"131 18 CURVE SMOOTH",
"345 317 LINE",
"558 18 LINE SMOOTH",
"570 1 OFFCURVE",
"587 -9 OFFCURVE",
"604 -9 CURVE SMOOTH",
"614 -9 OFFCURVE",
"625 -6 OFFCURVE",
"634 1 CURVE",
"377 361 LINE",
"620 699 LINE",
"610 706 OFFCURVE",
"599 709 OFFCURVE",
"589 709 CURVE SMOOTH",
"571 709 OFFCURVE",
"554 700 OFFCURVE",
"543 684 CURVE SMOOTH",
"328 382 LINE",
"324 385 LINE",
"342 410 LINE",
"146 684 LINE SMOOTH",
"134 700 OFFCURVE",
"117 709 OFFCURVE",
"99 709 CURVE SMOOTH",
"89 709 OFFCURVE",
"79 706 OFFCURVE",
"69 699 CURVE",
"312 361 LINE",
"55 1 LINE",
"65 -6 OFFCURVE",
"75 -9 OFFCURVE",
"85 -9 CURVE SMOOTH"
);
}
);
width = 689;
},
{
anchors = (
{
name = bottom;
position = "{353, 33}";
},
{
name = top;
position = "{353, 667}";
}
);
background = {
paths = (
{
closed = 1;
nodes = (
"84 -18 OFFCURVE",
"115 -9 OFFCURVE",
"134 18 CURVE SMOOTH",
"353 317 LINE",
"571 18 LINE SMOOTH",
"590 -9 OFFCURVE",
"621 -18 OFFCURVE",
"647 1 CURVE",
"385 361 LINE",
"633 700 LINE",
"606 719 OFFCURVE",
"574 710 OFFCURVE",
"556 685 CURVE SMOOTH",
"353 405 LINE",
"149 685 LINE SMOOTH",
"131 710 OFFCURVE",
"99 719 OFFCURVE",
"72 700 CURVE",
"320 361 LINE",
"58 1 LINE"
);
}
);
};
layerId = "671CEF0C-3804-4AAB-8F09-7652EF8CF253";
paths = (
{
closed = 1;
nodes = (
"151 -9 OFFCURVE",
"174 6 OFFCURVE",
"191 30 CURVE SMOOTH",
"353 258 LINE",
"515 30 LINE SMOOTH",
"532 6 OFFCURVE",
"555 -9 OFFCURVE",
"591 -9 CURVE SMOOTH",
"622 -9 OFFCURVE",
"645 0 OFFCURVE",
"671 29 CURVE",
"432 360 LINE",
"660 681 LINE",
"643 699 OFFCURVE",
"617 709 OFFCURVE",
"588 709 CURVE SMOOTH",
"547 709 OFFCURVE",
"513 695 OFFCURVE",
"497 672 CURVE SMOOTH",
"326 426 LINE",
"315 434 LINE",
"344 475 LINE",
"209 672 LINE SMOOTH",
"193 695 OFFCURVE",
"159 709 OFFCURVE",
"118 709 CURVE SMOOTH",
"89 709 OFFCURVE",
"63 699 OFFCURVE",
"46 681 CURVE",
"274 360 LINE",
"35 29 LINE",
"61 0 OFFCURVE",
"84 -9 OFFCURVE",
"115 -9 CURVE SMOOTH"
);
}
);
width = 706;
}
);
note = X;
unicode = 0058;
},
{
color = 6;
glyphname = Y;
lastChange = "2018-04-25 06:32:20 +0000";
layers = (
{
anchors = (
{
name = bottom;
position = "{335, 0}";
},
{
name = top;
position = "{335, 700}";
},
{
name = topleft;
position = "{25, 700}";
}
);
background = {
paths = (
{
closed = 1;
nodes = (
"344 -9 OFFCURVE",
"364 12 OFFCURVE",
"364 50 CURVE SMOOTH",
"364 357 LINE",
"615 700 LINE",
"588 719 OFFCURVE",
"556 710 OFFCURVE",
"538 685 CURVE SMOOTH",
"335 405 LINE",
"131 685 LINE SMOOTH",
"114 710 OFFCURVE",
"81 719 OFFCURVE",
"55 700 CURVE",
"305 357 LINE",
"305 -9 LINE"
);
}
);
};
layerId = "0B1DFD06-3317-40CA-B510-4969A0718C16";
paths = (
{
closed = 1;
nodes = (
"344 -9 OFFCURVE",
"364 12 OFFCURVE",
"364 50 CURVE SMOOTH",
"364 257 LINE",
"615 699 LINE",
"605 706 OFFCURVE",
"594 709 OFFCURVE",
"584 709 CURVE SMOOTH",
"565 709 OFFCURVE",
"547 701 OFFCURVE",
"538 684 CURVE SMOOTH",
"321 278 LINE",
"316 281 LINE",
"332 311 LINE",
"131 684 LINE SMOOTH",
"122 700 OFFCURVE",
"105 709 OFFCURVE",
"86 709 CURVE SMOOTH",
"76 709 OFFCURVE",
"65 706 OFFCURVE",
"55 699 CURVE",
"305 257 LINE",
"305 -9 LINE"
);
}
);
width = 670;
},
{
anchors = (
{
name = bottom;
position = "{335, 0}";
},
{
name = top;
position = "{335, 700}";
},
{
name = topleft;
position = "{25, 700}";
}
);
background = {
paths = (
{
closed = 1;
nodes = (
"344 -9 OFFCURVE",
"364 12 OFFCURVE",
"364 50 CURVE SMOOTH",
"364 257 LINE",
"615 699 LINE",
"605 706 OFFCURVE",
"594 709 OFFCURVE",
"584 709 CURVE SMOOTH",
"565 709 OFFCURVE",
"547 701 OFFCURVE",
"538 684 CURVE SMOOTH",
"321 278 LINE",
"316 281 LINE",
"332 311 LINE",
"131 684 LINE SMOOTH",
"122 700 OFFCURVE",
"105 709 OFFCURVE",
"86 709 CURVE SMOOTH",
"76 709 OFFCURVE",
"65 706 OFFCURVE",
"55 699 CURVE",
"305 257 LINE",
"305 -9 LINE"
);
}
);
};
layerId = "671CEF0C-3804-4AAB-8F09-7652EF8CF253";
paths = (
{
closed = 1;
nodes = (
"350 -9 OFFCURVE",
"406 24 OFFCURVE",
"406 97 CURVE SMOOTH",
"406 249 LINE",
"653 694 LINE",
"638 703 OFFCURVE",
"601 709 OFFCURVE",
"582 709 CURVE SMOOTH",
"528 709 OFFCURVE",
"491 687 OFFCURVE",
"468 640 CURVE SMOOTH",
"312 325 LINE",
"300 330 LINE",
"330 392 LINE",
"197 640 LINE SMOOTH",
"171 688 OFFCURVE",
"137 709 OFFCURVE",
"83 709 CURVE SMOOTH",
"64 709 OFFCURVE",
"27 703 OFFCURVE",
"12 694 CURVE",
"259 250 LINE",
"259 -9 LINE"
);
}
);
width = 670;
}
);
leftKerningGroup = Y;
note = Y;
rightKerningGroup = Y;
unicode = 0059;
},
{
color = 6;
glyphname = Z;
lastChange = "2018-04-24 05:26:47 +0000";
layers = (
{
anchors = (
{
name = bottom;
position = "{338, 0}";
},
{
name = top;
position = "{338, 700}";
}
);
background = {
paths = (
{
closed = 1;
nodes = (
"615 0 LINE",
"615 35 OFFCURVE",
"597 53 OFFCURVE",
"562 53 CURVE SMOOTH",
"140 53 LINE",
"122 34 LINE",
"118 32 LINE",
"609 654 LINE SMOOTH",
"622 672 OFFCURVE",
"609 700 OFFCURVE",
"585 700 CURVE SMOOTH",
"54 700 LINE",
"54 665 OFFCURVE",
"72 647 OFFCURVE",
"108 647 CURVE SMOOTH",
"529 647 LINE",
"547 666 LINE",
"551 668 LINE",
"60 46 LINE SMOOTH",
"47 28 OFFCURVE",
"60 0 OFFCURVE",
"84 0 CURVE SMOOTH"
);
}
);
};
layerId = "0B1DFD06-3317-40CA-B510-4969A0718C16";
paths = (
{
closed = 1;
nodes = (
"621 0 LINE",
"621 33 OFFCURVE",
"603 51 OFFCURVE",
"568 51 CURVE SMOOTH",
"140 51 LINE",
"122 28 LINE",
"118 30 LINE",
"609 656 LINE SMOOTH",
"613 661 OFFCURVE",
"614 667 OFFCURVE",
"614 672 CURVE SMOOTH",
"614 690 OFFCURVE",
"606 700 OFFCURVE",
"587 700 CURVE SMOOTH",
"74 700 LINE",
"74 667 OFFCURVE",
"92 649 OFFCURVE",
"128 649 CURVE SMOOTH",
"529 649 LINE",
"547 672 LINE",
"551 670 LINE",
"60 44 LINE SMOOTH",
"56 39 OFFCURVE",
"55 33 OFFCURVE",
"55 28 CURVE SMOOTH",
"55 11 OFFCURVE",
"65 0 OFFCURVE",
"82 0 CURVE SMOOTH"
);
}
);
width = 676;
},
{
anchors = (
{
name = bottom;
position = "{362, 0}";
},
{
name = top;
position = "{362, 700}";
}
);
background = {
paths = (
{
closed = 1;
nodes = (
"639 0 LINE",
"639 35 OFFCURVE",
"621 53 OFFCURVE",
"586 53 CURVE SMOOTH",
"164 53 LINE",
"146 34 LINE",
"142 32 LINE",
"633 654 LINE SMOOTH",
"646 672 OFFCURVE",
"633 700 OFFCURVE",
"609 700 CURVE SMOOTH",
"78 700 LINE",
"78 665 OFFCURVE",
"96 647 OFFCURVE",
"132 647 CURVE SMOOTH",
"553 647 LINE",
"571 666 LINE",
"575 668 LINE",
"84 46 LINE SMOOTH",
"71 28 OFFCURVE",
"84 0 OFFCURVE",
"108 0 CURVE SMOOTH"
);
}
);
};
layerId = "671CEF0C-3804-4AAB-8F09-7652EF8CF253";
paths = (
{
closed = 1;
nodes = (
"665 0 LINE",
"665 78 OFFCURVE",
"632 125 OFFCURVE",
"562 125 CURVE SMOOTH",
"267 125 LINE",
"226 79 LINE",
"216 87 LINE",
"649 595 LINE",
"659 607 OFFCURVE",
"663 622 OFFCURVE",
"663 638 CURVE SMOOTH",
"663 679 OFFCURVE",
"638 700 OFFCURVE",
"596 700 CURVE SMOOTH",
"59 700 LINE",
"59 622 OFFCURVE",
"92 575 OFFCURVE",
"163 575 CURVE SMOOTH",
"435 575 LINE",
"477 621 LINE",
"487 613 LINE",
"49 105 LINE SMOOTH",
"39 93 OFFCURVE",
"35 78 OFFCURVE",
"35 62 CURVE SMOOTH",
"35 22 OFFCURVE",
"63 0 OFFCURVE",
"102 0 CURVE SMOOTH"
);
}
);
width = 700;
}
);
leftKerningGroup = Z;
note = Z;
rightKerningGroup = Z;
unicode = 005A;
},
{
color = 6;
glyphname = a;
lastChange = "2018-05-03 08:09:50 +0000";
layers = (
{
anchors = (
{
name = bottom;
position = "{265, 0}";
},
{
name = ogonek;
position = "{487, 10}";
},
{
name = top;
position = "{265, 509}";
}
);
layerId = "0B1DFD06-3317-40CA-B510-4969A0718C16";
paths = (
{
closed = 1;
nodes = (
"325 -9 OFFCURVE",
"383 27 OFFCURVE",
"419 73 CURVE",
"422 70 LINE",
"416 61 OFFCURVE",
"411 55 OFFCURVE",
"401 44 CURVE",
"401 -9 LINE",
"436 -9 OFFCURVE",
"454 9 OFFCURVE",
"454 44 CURVE SMOOTH",
"454 338 LINE SMOOTH",
"454 444 OFFCURVE",
"381 509 OFFCURVE",
"265 509 CURVE SMOOTH",
"184 509 OFFCURVE",
"81 462 OFFCURVE",
"81 407 CURVE SMOOTH",
"81 391 OFFCURVE",
"91 375 OFFCURVE",
"105 364 CURVE",
"132 421 OFFCURVE",
"180 460 OFFCURVE",
"265 460 CURVE SMOOTH",
"363 460 OFFCURVE",
"401 407 OFFCURVE",
"401 338 CURVE SMOOTH",
"401 276 LINE",
"409 267 OFFCURVE",
"414 261 OFFCURVE",
"420 252 CURVE",
"417 250 LINE",
"381 294 OFFCURVE",
"329 326 OFFCURVE",
"252 326 CURVE SMOOTH",
"138 326 OFFCURVE",
"55 267 OFFCURVE",
"55 158 CURVE SMOOTH",
"55 54 OFFCURVE",
"135 -9 OFFCURVE",
"249 -9 CURVE SMOOTH"
);
},
{
closed = 1;
nodes = (
"164 40 OFFCURVE",
"110 82 OFFCURVE",
"110 158 CURVE SMOOTH",
"110 233 OFFCURVE",
"164 277 OFFCURVE",
"252 277 CURVE SMOOTH",
"348 277 OFFCURVE",
"403 230 OFFCURVE",
"403 158 CURVE SMOOTH",
"403 87 OFFCURVE",
"345 40 OFFCURVE",
"249 40 CURVE SMOOTH"
);
}
);
width = 529;
},
{
anchors = (
{
name = bottom;
position = "{290, -3}";
},
{
name = ogonek;
position = "{458, 36}";
},
{
name = top;
position = "{290, 509}";
}
);
background = {
paths = (
{
closed = 1;
nodes = (
"321 -9 OFFCURVE",
"379 27 OFFCURVE",
"415 73 CURVE",
"418 70 LINE",
"412 61 OFFCURVE",
"407 55 OFFCURVE",
"397 44 CURVE",
"397 -9 LINE",
"432 -9 OFFCURVE",
"450 9 OFFCURVE",
"450 44 CURVE SMOOTH",
"450 338 LINE SMOOTH",
"450 444 OFFCURVE",
"377 509 OFFCURVE",
"261 509 CURVE SMOOTH",
"180 509 OFFCURVE",
"77 462 OFFCURVE",
"77 407 CURVE SMOOTH",
"77 391 OFFCURVE",
"87 375 OFFCURVE",
"101 364 CURVE",
"128 421 OFFCURVE",
"176 460 OFFCURVE",
"261 460 CURVE SMOOTH",
"359 460 OFFCURVE",
"397 407 OFFCURVE",
"397 338 CURVE SMOOTH",
"397 276 LINE",
"405 267 OFFCURVE",
"410 261 OFFCURVE",
"416 252 CURVE",
"413 250 LINE",
"377 294 OFFCURVE",
"325 326 OFFCURVE",
"248 326 CURVE SMOOTH",
"134 326 OFFCURVE",
"51 267 OFFCURVE",
"51 158 CURVE SMOOTH",
"51 54 OFFCURVE",
"131 -9 OFFCURVE",
"245 -9 CURVE SMOOTH"
);
},
{
closed = 1;
nodes = (
"160 40 OFFCURVE",
"106 82 OFFCURVE",
"106 158 CURVE SMOOTH",
"106 233 OFFCURVE",
"160 277 OFFCURVE",
"248 277 CURVE SMOOTH",
"344 277 OFFCURVE",
"399 230 OFFCURVE",
"399 158 CURVE SMOOTH",
"399 87 OFFCURVE",
"341 40 OFFCURVE",
"245 40 CURVE SMOOTH"
);
}
);
};
guideLines = (
{
angle = 90;
position = "{390, 364}";
}
);
layerId = "671CEF0C-3804-4AAB-8F09-7652EF8CF253";
paths = (
{
closed = 1;
nodes = (
"307 -9 OFFCURVE",
"348 20 OFFCURVE",
"386 60 CURVE",
"391 55 LINE",
"384 46 OFFCURVE",
"377 39 OFFCURVE",
"367 30 CURVE",
"367 -9 LINE",
"455 -9 OFFCURVE",
"494 17 OFFCURVE",
"494 80 CURVE SMOOTH",
"494 323 LINE SMOOTH",
"494 435 OFFCURVE",
"415 509 OFFCURVE",
"267 509 CURVE SMOOTH",
"154 509 OFFCURVE",
"64 461 OFFCURVE",
"64 398 CURVE SMOOTH",
"64 370 OFFCURVE",
"90 347 OFFCURVE",
"121 339 CURVE",
"149 381 OFFCURVE",
"196 402 OFFCURVE",
"254 402 CURVE SMOOTH",
"322 402 OFFCURVE",
"359 368 OFFCURVE",
"359 319 CURVE SMOOTH",
"359 306 LINE",
"371 298 OFFCURVE",
"381 289 OFFCURVE",
"392 279 CURVE",
"387 273 LINE",
"348 307 OFFCURVE",
"304 328 OFFCURVE",
"239 328 CURVE SMOOTH",
"131 328 OFFCURVE",
"35 267 OFFCURVE",
"35 158 CURVE SMOOTH",
"35 48 OFFCURVE",
"126 -9 OFFCURVE",
"221 -9 CURVE SMOOTH"
);
},
{
closed = 1;
nodes = (
"204 89 OFFCURVE",
"168 112 OFFCURVE",
"168 159 CURVE SMOOTH",
"168 204 OFFCURVE",
"204 230 OFFCURVE",
"259 230 CURVE SMOOTH",
"322 230 OFFCURVE",
"361 203 OFFCURVE",
"361 159 CURVE SMOOTH",
"361 113 OFFCURVE",
"322 89 OFFCURVE",
"259 89 CURVE SMOOTH"
);
}
);
width = 544;
}
);
leftKerningGroup = a;
note = a;
rightKerningGroup = a;
unicode = 0061;
},
{
color = 6;
glyphname = b;
lastChange = "2018-04-30 06:32:43 +0000";
layers = (
{
anchors = (
{
name = bottom;
position = "{274, 0}";
},
{
name = top;
position = "{274, 509}";
}
);
layerId = "0B1DFD06-3317-40CA-B510-4969A0718C16";
paths = (
{
closed = 1;
nodes = (
"119 -9 OFFCURVE",
"134 11 OFFCURVE",
"134 49 CURVE",
"128 56 OFFCURVE",
"120 66 OFFCURVE",
"114 74 CURVE",
"116 78 LINE",
"151 34 OFFCURVE",
"204 -9 OFFCURVE",
"281 -9 CURVE SMOOTH",
"399 -9 OFFCURVE",
"478 54 OFFCURVE",
"478 159 CURVE SMOOTH",
"478 342 LINE SMOOTH",
"478 445 OFFCURVE",
"399 509 OFFCURVE",
"283 509 CURVE SMOOTH",
"211 509 OFFCURVE",
"153 469 OFFCURVE",
"116 426 CURVE",
"114 431 LINE",
"119 438 OFFCURVE",
"128 448 OFFCURVE",
"134 455 CURVE",
"134 709 LINE",
"98 709 OFFCURVE",
"80 691 OFFCURVE",
"80 656 CURVE SMOOTH",
"80 -9 LINE"
);
},
{
closed = 1;
nodes = (
"199 40 OFFCURVE",
"134 91 OFFCURVE",
"134 154 CURVE SMOOTH",
"134 347 LINE SMOOTH",
"134 409 OFFCURVE",
"202 460 OFFCURVE",
"281 460 CURVE SMOOTH",
"371 460 OFFCURVE",
"425 414 OFFCURVE",
"425 342 CURVE SMOOTH",
"425 159 LINE SMOOTH",
"425 84 OFFCURVE",
"371 40 OFFCURVE",
"279 40 CURVE SMOOTH"
);
}
);
width = 548;
},
{
anchors = (
{
name = bottom;
position = "{268, 38}";
},
{
name = top;
position = "{268, 492}";
}
);
layerId = "671CEF0C-3804-4AAB-8F09-7652EF8CF253";
paths = (
{
closed = 1;
nodes = (
"150 -9 OFFCURVE",
"181 13 OFFCURVE",
"181 46 CURVE",
"172 57 OFFCURVE",
"167 63 OFFCURVE",
"162 72 CURVE",
"167 76 LINE",
"206 23 OFFCURVE",
"254 -9 OFFCURVE",
"330 -9 CURVE SMOOTH",
"427 -9 OFFCURVE",
"519 66 OFFCURVE",
"519 173 CURVE SMOOTH",
"519 328 LINE SMOOTH",
"519 434 OFFCURVE",
"444 509 OFFCURVE",
"324 509 CURVE SMOOTH",
"282 509 OFFCURVE",
"213 491 OFFCURVE",
"176 456 CURVE",
"172 461 LINE",
"177 468 OFFCURVE",
"186 475 OFFCURVE",
"194 481 CURVE",
"194 709 LINE",
"97 709 OFFCURVE",
"55 673 OFFCURVE",
"55 619 CURVE SMOOTH",
"55 -9 LINE"
);
},
{
closed = 1;
nodes = (
"230 109 OFFCURVE",
"192 139 OFFCURVE",
"192 178 CURVE SMOOTH",
"192 322 LINE SMOOTH",
"192 360 OFFCURVE",
"230 391 OFFCURVE",
"287 391 CURVE SMOOTH",
"349 391 OFFCURVE",
"382 364 OFFCURVE",
"382 318 CURVE SMOOTH",
"382 183 LINE SMOOTH",
"382 135 OFFCURVE",
"349 109 OFFCURVE",
"287 109 CURVE SMOOTH"
);
}
);
width = 569;
}
);
leftKerningGroup = b;
note = b;
rightKerningGroup = b;
unicode = 0062;
},
{
color = 6;
glyphname = c;
lastChange = "2018-05-03 08:10:00 +0000";
layers = (
{
anchors = (
{
name = bottom;
position = "{268, 0}";
},
{
name = top;
position = "{268, 509}";
}
);
layerId = "0B1DFD06-3317-40CA-B510-4969A0718C16";
paths = (
{
closed = 1;
nodes = (
"360 -9 OFFCURVE",
"459 45 OFFCURVE",
"459 118 CURVE SMOOTH",
"459 142 OFFCURVE",
"434 159 OFFCURVE",
"417 159 CURVE",
"417 86 OFFCURVE",
"364 40 OFFCURVE",
"270 40 CURVE SMOOTH",
"186 40 OFFCURVE",
"123 91 OFFCURVE",
"123 158 CURVE SMOOTH",
"123 340 LINE SMOOTH",
"123 409 OFFCURVE",
"184 460 OFFCURVE",
"268 460 CURVE SMOOTH",
"362 460 OFFCURVE",
"414 414 OFFCURVE",
"414 340 CURVE",
"431 340 OFFCURVE",
"456 357 OFFCURVE",
"456 382 CURVE SMOOTH",
"456 453 OFFCURVE",
"361 509 OFFCURVE",
"268 509 CURVE SMOOTH",
"157 509 OFFCURVE",
"70 433 OFFCURVE",
"70 340 CURVE SMOOTH",
"70 158 LINE SMOOTH",
"70 65 OFFCURVE",
"159 -9 OFFCURVE",
"270 -9 CURVE SMOOTH"
);
}
);
width = 514;
},
{
anchors = (
{
name = bottom;
position = "{275, -3}";
},
{
name = top;
position = "{275, 509}";
}
);
layerId = "671CEF0C-3804-4AAB-8F09-7652EF8CF253";
paths = (
{
closed = 1;
nodes = (
"399 -9 OFFCURVE",
"485 61 OFFCURVE",
"485 128 CURVE SMOOTH",
"485 177 OFFCURVE",
"434 206 OFFCURVE",
"370 199 CURVE",
"370 140 OFFCURVE",
"342 109 OFFCURVE",
"279 109 CURVE SMOOTH",
"217 109 OFFCURVE",
"187 138 OFFCURVE",
"187 188 CURVE SMOOTH",
"187 304 LINE SMOOTH",
"187 356 OFFCURVE",
"216 391 OFFCURVE",
"278 391 CURVE SMOOTH",
"340 391 OFFCURVE",
"368 358 OFFCURVE",
"368 300 CURVE",
"430 294 OFFCURVE",
"482 323 OFFCURVE",
"482 372 CURVE SMOOTH",
"482 439 OFFCURVE",
"393 509 OFFCURVE",
"274 509 CURVE SMOOTH",
"135 509 OFFCURVE",
"50 422 OFFCURVE",
"50 311 CURVE SMOOTH",
"50 178 LINE SMOOTH",
"50 68 OFFCURVE",
"142 -9 OFFCURVE",
"275 -9 CURVE SMOOTH"
);
}
);
width = 520;
}
);
leftKerningGroup = c;
note = c;
rightKerningGroup = c;
unicode = 0063;
},
{
color = 6;
glyphname = d;
lastChange = "2018-05-04 08:45:50 +0000";
layers = (
{
anchors = (
{
name = bottom;
position = "{274, 0}";
},
{
name = center;
position = "{274, 235}";
},
{
name = top;
position = "{274, 509}";
},
{
name = topright;
position = "{528, 470}";
}
);
background = {
paths = (
{
closed = 1;
nodes = (
"336 -9 OFFCURVE",
"397 19 OFFCURVE",
"432 63 CURVE",
"434 59 LINE",
"429 53 OFFCURVE",
"421 43 OFFCURVE",
"415 38 CURVE",
"415 -9 LINE",
"450 -9 OFFCURVE",
"468 9 OFFCURVE",
"468 44 CURVE SMOOTH",
"468 709 LINE",
"432 709 OFFCURVE",
"415 691 OFFCURVE",
"415 656 CURVE SMOOTH",
"415 461 LINE",
"421 457 OFFCURVE",
"429 447 OFFCURVE",
"434 441 CURVE",
"432 436 LINE",
"397 481 OFFCURVE",
"336 509 OFFCURVE",
"269 509 CURVE SMOOTH",
"158 509 OFFCURVE",
"70 433 OFFCURVE",
"70 340 CURVE SMOOTH",
"70 158 LINE SMOOTH",
"70 65 OFFCURVE",
"158 -9 OFFCURVE",
"269 -9 CURVE SMOOTH"
);
},
{
closed = 1;
nodes = (
"185 40 OFFCURVE",
"123 96 OFFCURVE",
"123 158 CURVE SMOOTH",
"123 340 LINE SMOOTH",
"123 404 OFFCURVE",
"185 460 OFFCURVE",
"269 460 CURVE SMOOTH",
"353 460 OFFCURVE",
"415 404 OFFCURVE",
"415 340 CURVE SMOOTH",
"415 158 LINE SMOOTH",
"415 96 OFFCURVE",
"353 40 OFFCURVE",
"269 40 CURVE SMOOTH"
);
}
);
};
layerId = "0B1DFD06-3317-40CA-B510-4969A0718C16";
paths = (
{
closed = 1;
nodes = (
"342 -9 OFFCURVE",
"397 34 OFFCURVE",
"432 78 CURVE",
"434 74 LINE",
"428 66 OFFCURVE",
"420 56 OFFCURVE",
"414 49 CURVE",
"414 -9 LINE",
"453 -9 OFFCURVE",
"468 11 OFFCURVE",
"468 49 CURVE SMOOTH",
"468 709 LINE",
"432 709 OFFCURVE",
"414 691 OFFCURVE",
"414 656 CURVE SMOOTH",
"414 455 LINE",
"420 448 OFFCURVE",
"429 438 OFFCURVE",
"434 431 CURVE",
"432 426 LINE",
"395 469 OFFCURVE",
"345 509 OFFCURVE",
"263 509 CURVE SMOOTH",
"147 509 OFFCURVE",
"70 445 OFFCURVE",
"70 342 CURVE SMOOTH",
"70 159 LINE SMOOTH",
"70 54 OFFCURVE",
"147 -9 OFFCURVE",
"265 -9 CURVE SMOOTH"
);
},
{
closed = 1;
nodes = (
"177 40 OFFCURVE",
"123 84 OFFCURVE",
"123 159 CURVE SMOOTH",
"123 342 LINE SMOOTH",
"123 414 OFFCURVE",
"177 460 OFFCURVE",
"267 460 CURVE SMOOTH",
"361 460 OFFCURVE",
"414 409 OFFCURVE",
"414 347 CURVE SMOOTH",
"414 154 LINE SMOOTH",
"414 91 OFFCURVE",
"349 40 OFFCURVE",
"269 40 CURVE SMOOTH"
);
}
);
width = 548;
},
{
anchors = (
{
name = bottom;
position = "{278, 0}";
},
{
name = center;
position = "{278, 235}";
},
{
name = top;
position = "{278, 509}";
},
{
name = topright;
position = "{520, 470}";
}
);
background = {
paths = (
{
closed = 1;
nodes = (
"406 455 LINE",
"412 448 OFFCURVE",
"421 438 OFFCURVE",
"426 431 CURVE",
"424 426 LINE",
"387 469 OFFCURVE",
"337 509 OFFCURVE",
"255 509 CURVE SMOOTH",
"139 509 OFFCURVE",
"62 445 OFFCURVE",
"62 342 CURVE SMOOTH",
"62 159 LINE SMOOTH",
"62 54 OFFCURVE",
"139 -9 OFFCURVE",
"257 -9 CURVE SMOOTH",
"334 -9 OFFCURVE",
"389 34 OFFCURVE",
"424 78 CURVE",
"426 74 LINE",
"420 66 OFFCURVE",
"412 56 OFFCURVE",
"406 49 CURVE",
"406 -9 LINE",
"445 -9 OFFCURVE",
"460 11 OFFCURVE",
"460 49 CURVE SMOOTH",
"460 709 LINE",
"424 709 OFFCURVE",
"406 691 OFFCURVE",
"406 656 CURVE SMOOTH"
);
},
{
closed = 1;
nodes = (
"169 40 OFFCURVE",
"115 84 OFFCURVE",
"115 159 CURVE SMOOTH",
"115 342 LINE SMOOTH",
"115 414 OFFCURVE",
"169 460 OFFCURVE",
"259 460 CURVE SMOOTH",
"353 460 OFFCURVE",
"406 409 OFFCURVE",
"406 347 CURVE SMOOTH",
"406 154 LINE SMOOTH",
"406 91 OFFCURVE",
"341 40 OFFCURVE",
"261 40 CURVE SMOOTH"
);
}
);
};
layerId = "671CEF0C-3804-4AAB-8F09-7652EF8CF253";
paths = (
{
closed = 1;
nodes = (
"321 -9 OFFCURVE",
"363 23 OFFCURVE",
"402 76 CURVE",
"407 72 LINE",
"402 63 OFFCURVE",
"397 56 OFFCURVE",
"388 45 CURVE",
"388 -9 LINE",
"480 -9 OFFCURVE",
"514 35 OFFCURVE",
"514 82 CURVE SMOOTH",
"514 709 LINE",
"417 709 OFFCURVE",
"375 673 OFFCURVE",
"375 619 CURVE SMOOTH",
"375 481 LINE",
"383 475 OFFCURVE",
"392 468 OFFCURVE",
"397 461 CURVE",
"393 456 LINE",
"356 491 OFFCURVE",
"296 509 OFFCURVE",
"254 509 CURVE SMOOTH",
"138 509 OFFCURVE",
"50 433 OFFCURVE",
"50 327 CURVE SMOOTH",
"50 173 LINE SMOOTH",
"50 66 OFFCURVE",
"133 -9 OFFCURVE",
"239 -9 CURVE SMOOTH"
);
},
{
closed = 1;
nodes = (
"220 109 OFFCURVE",
"187 135 OFFCURVE",
"187 183 CURVE SMOOTH",
"187 318 LINE SMOOTH",
"187 364 OFFCURVE",
"220 391 OFFCURVE",
"282 391 CURVE SMOOTH",
"339 391 OFFCURVE",
"377 360 OFFCURVE",
"377 322 CURVE SMOOTH",
"377 178 LINE SMOOTH",
"377 139 OFFCURVE",
"339 109 OFFCURVE",
"282 109 CURVE SMOOTH"
);
}
);
width = 569;
}
);
leftKerningGroup = d;
note = d;
rightKerningGroup = d;
unicode = 0064;
},
{
color = 6;
glyphname = e;
lastChange = "2018-05-03 08:10:09 +0000";
layers = (
{
anchors = (
{
name = bottom;
position = "{269, 0}";
},
{
name = ogonek;
position = "{358, 10}";
},
{
name = top;
position = "{269, 509}";
}
);
background = {
paths = (
{
closed = 1;
nodes = (
"353 -9 OFFCURVE",
"423 34 OFFCURVE",
"453 96 CURVE SMOOTH",
"469 131 OFFCURVE",
"437 159 OFFCURVE",
"415 159 CURVE",
"415 96 OFFCURVE",
"353 40 OFFCURVE",
"269 40 CURVE SMOOTH",
"185 40 OFFCURVE",
"123 96 OFFCURVE",
"123 158 CURVE SMOOTH",
"123 261 LINE",
"441 261 LINE SMOOTH",
"454 261 OFFCURVE",
"468 273 OFFCURVE",
"468 287 CURVE SMOOTH",
"468 340 LINE SMOOTH",
"468 433 OFFCURVE",
"379 509 OFFCURVE",
"269 509 CURVE SMOOTH",
"158 509 OFFCURVE",
"70 433 OFFCURVE",
"70 340 CURVE SMOOTH",
"70 158 LINE SMOOTH",
"70 65 OFFCURVE",
"158 -9 OFFCURVE",
"269 -9 CURVE SMOOTH"
);
},
{
closed = 1;
nodes = (
"123 340 LINE SMOOTH",
"123 404 OFFCURVE",
"185 460 OFFCURVE",
"269 460 CURVE SMOOTH",
"353 460 OFFCURVE",
"415 404 OFFCURVE",
"415 340 CURVE SMOOTH",
"415 310 LINE",
"123 310 LINE"
);
}
);
};
layerId = "0B1DFD06-3317-40CA-B510-4969A0718C16";
paths = (
{
closed = 1;
nodes = (
"359 -9 OFFCURVE",
"458 45 OFFCURVE",
"458 118 CURVE SMOOTH",
"458 142 OFFCURVE",
"433 159 OFFCURVE",
"416 159 CURVE",
"416 86 OFFCURVE",
"363 40 OFFCURVE",
"269 40 CURVE SMOOTH",
"173 40 OFFCURVE",
"123 91 OFFCURVE",
"123 168 CURVE SMOOTH",
"123 234 LINE",
"441 234 LINE SMOOTH",
"454 234 OFFCURVE",
"468 246 OFFCURVE",
"468 260 CURVE SMOOTH",
"468 330 LINE SMOOTH",
"468 433 OFFCURVE",
"379 509 OFFCURVE",
"269 509 CURVE SMOOTH",
"158 509 OFFCURVE",
"70 433 OFFCURVE",
"70 330 CURVE SMOOTH",
"70 168 LINE SMOOTH",
"70 65 OFFCURVE",
"148 -9 OFFCURVE",
"269 -9 CURVE SMOOTH"
);
},
{
closed = 1;
nodes = (
"123 330 LINE SMOOTH",
"123 404 OFFCURVE",
"180 460 OFFCURVE",
"269 460 CURVE SMOOTH",
"358 460 OFFCURVE",
"415 404 OFFCURVE",
"415 330 CURVE SMOOTH",
"415 283 LINE",
"123 283 LINE"
);
}
);
width = 523;
},
{
anchors = (
{
name = bottom;
position = "{278, -3}";
},
{
name = ogonek;
position = "{357, 36}";
},
{
name = top;
position = "{278, 509}";
}
);
background = {
paths = (
{
closed = 1;
nodes = (
"362 -9 OFFCURVE",
"432 34 OFFCURVE",
"462 96 CURVE SMOOTH",
"478 131 OFFCURVE",
"446 159 OFFCURVE",
"424 159 CURVE",
"424 96 OFFCURVE",
"362 40 OFFCURVE",
"278 40 CURVE SMOOTH",
"194 40 OFFCURVE",
"132 96 OFFCURVE",
"132 158 CURVE SMOOTH",
"132 261 LINE",
"450 261 LINE SMOOTH",
"463 261 OFFCURVE",
"477 273 OFFCURVE",
"477 287 CURVE SMOOTH",
"477 340 LINE SMOOTH",
"477 433 OFFCURVE",
"388 509 OFFCURVE",
"278 509 CURVE SMOOTH",
"167 509 OFFCURVE",
"79 433 OFFCURVE",
"79 340 CURVE SMOOTH",
"79 158 LINE SMOOTH",
"79 65 OFFCURVE",
"167 -9 OFFCURVE",
"278 -9 CURVE SMOOTH"
);
},
{
closed = 1;
nodes = (
"132 340 LINE SMOOTH",
"132 404 OFFCURVE",
"194 460 OFFCURVE",
"278 460 CURVE SMOOTH",
"362 460 OFFCURVE",
"424 404 OFFCURVE",
"424 340 CURVE SMOOTH",
"424 310 LINE",
"132 310 LINE"
);
}
);
};
layerId = "671CEF0C-3804-4AAB-8F09-7652EF8CF253";
paths = (
{
closed = 1;
nodes = (
"401 -9 OFFCURVE",
"486 52 OFFCURVE",
"486 106 CURVE SMOOTH",
"486 158 OFFCURVE",
"443 180 OFFCURVE",
"371 171 CURVE",
"371 133 OFFCURVE",
"347 99 OFFCURVE",
"280 99 CURVE SMOOTH",
"212 99 OFFCURVE",
"183 140 OFFCURVE",
"183 190 CURVE SMOOTH",
"183 204 LINE",
"435 204 LINE SMOOTH",
"473 204 OFFCURVE",
"499 229 OFFCURVE",
"499 261 CURVE SMOOTH",
"499 315 LINE SMOOTH",
"499 430 OFFCURVE",
"401 509 OFFCURVE",
"280 509 CURVE SMOOTH",
"158 509 OFFCURVE",
"50 424 OFFCURVE",
"50 308 CURVE SMOOTH",
"50 180 LINE SMOOTH",
"50 72 OFFCURVE",
"153 -9 OFFCURVE",
"279 -9 CURVE SMOOTH"
);
},
{
closed = 1;
nodes = (
"183 315 LINE SMOOTH",
"183 369 OFFCURVE",
"223 402 OFFCURVE",
"279 402 CURVE SMOOTH",
"335 402 OFFCURVE",
"375 369 OFFCURVE",
"375 315 CURVE SMOOTH",
"375 301 LINE",
"183 301 LINE"
);
}
);
width = 534;
}
);
leftKerningGroup = c;
note = e;
rightKerningGroup = c;
unicode = 0065;
},
{
color = 6;
glyphname = f;
lastChange = "2018-04-30 06:32:43 +0000";
layers = (
{
anchors = (
{
name = bottom;
position = "{186, 0}";
},
{
name = top;
position = "{186, 509}";
}
);
layerId = "0B1DFD06-3317-40CA-B510-4969A0718C16";
paths = (
{
closed = 1;
nodes = (
"166 -9 OFFCURVE",
"184 9 OFFCURVE",
"184 44 CURVE SMOOTH",
"184 450 LINE",
"258 450 LINE SMOOTH",
"288 450 OFFCURVE",
"306 468 OFFCURVE",
"306 499 CURVE",
"184 499 LINE",
"184 575 LINE SMOOTH",
"184 632 OFFCURVE",
"204 660 OFFCURVE",
"258 660 CURVE SMOOTH",
"282 660 OFFCURVE",
"306 651 OFFCURVE",
"320 642 CURVE",
"324 649 OFFCURVE",
"326 654 OFFCURVE",
"326 663 CURVE SMOOTH",
"326 684 OFFCURVE",
"304 709 OFFCURVE",
"261 709 CURVE SMOOTH",
"168 709 OFFCURVE",
"130 649 OFFCURVE",
"130 579 CURVE SMOOTH",
"130 499 LINE",
"93 499 LINE SMOOTH",
"62 499 OFFCURVE",
"45 481 OFFCURVE",
"45 450 CURVE",
"130 450 LINE",
"130 -9 LINE"
);
}
);
width = 371;
},
{
anchors = (
{
name = bottom;
position = "{204, 0}";
},
{
name = top;
position = "{204, 509}";
}
);
layerId = "671CEF0C-3804-4AAB-8F09-7652EF8CF253";
paths = (
{
closed = 1;
nodes = (
"195 -9 OFFCURVE",
"241 12 OFFCURVE",
"241 71 CURVE SMOOTH",
"241 398 LINE",
"286 398 LINE SMOOTH",
"347 398 OFFCURVE",
"372 426 OFFCURVE",
"372 499 CURVE",
"241 499 LINE",
"241 529 LINE SMOOTH",
"241 573 OFFCURVE",
"260 591 OFFCURVE",
"303 591 CURVE SMOOTH",
"327 591 OFFCURVE",
"352 585 OFFCURVE",
"378 571 CURVE",
"393 584 OFFCURVE",
"402 606 OFFCURVE",
"402 626 CURVE SMOOTH",
"402 664 OFFCURVE",
"365 709 OFFCURVE",
"279 709 CURVE SMOOTH",
"159 709 OFFCURVE",
"104 628 OFFCURVE",
"104 534 CURVE SMOOTH",
"104 499 LINE",
"84 499 LINE SMOOTH",
"45 499 OFFCURVE",
"25 469 OFFCURVE",
"25 398 CURVE",
"104 398 LINE",
"104 -9 LINE"
);
}
);
width = 425;
}
);
note = f;
unicode = 0066;
},
{
color = 6;
glyphname = g;
lastChange = "2018-05-01 07:33:52 +0000";
layers = (
{
anchors = (
{
name = bottom;
position = "{274, 0}";
},
{
name = top;
position = "{274, 509}";
}
);
layerId = "0B1DFD06-3317-40CA-B510-4969A0718C16";
paths = (
{
closed = 1;
nodes = (
"389 -209 OFFCURVE",
"468 -134 OFFCURVE",
"468 -23 CURVE SMOOTH",
"468 509 LINE",
"429 509 OFFCURVE",
"414 489 OFFCURVE",
"414 451 CURVE",
"420 444 OFFCURVE",
"428 434 OFFCURVE",
"434 426 CURVE",
"432 422 LINE",
"397 466 OFFCURVE",
"344 509 OFFCURVE",
"267 509 CURVE SMOOTH",
"149 509 OFFCURVE",
"70 446 OFFCURVE",
"70 341 CURVE SMOOTH",
"70 168 LINE SMOOTH",
"70 65 OFFCURVE",
"149 1 OFFCURVE",
"265 1 CURVE SMOOTH",
"337 1 OFFCURVE",
"395 41 OFFCURVE",
"432 84 CURVE",
"434 79 LINE",
"429 72 OFFCURVE",
"420 62 OFFCURVE",
"414 55 CURVE",
"414 -23 LINE SMOOTH",
"414 -110 OFFCURVE",
"367 -161 OFFCURVE",
"269 -161 CURVE SMOOTH",
"185 -161 OFFCURVE",
"125 -114 OFFCURVE",
"125 -45 CURVE",
"102 -45 OFFCURVE",
"82 -57 OFFCURVE",
"82 -85 CURVE SMOOTH",
"82 -151 OFFCURVE",
"174 -209 OFFCURVE",
"269 -209 CURVE SMOOTH"
);
},
{
closed = 1;
nodes = (
"177 50 OFFCURVE",
"123 96 OFFCURVE",
"123 168 CURVE SMOOTH",
"123 341 LINE SMOOTH",
"123 416 OFFCURVE",
"177 460 OFFCURVE",
"269 460 CURVE SMOOTH",
"349 460 OFFCURVE",
"414 409 OFFCURVE",
"414 346 CURVE SMOOTH",
"414 163 LINE SMOOTH",
"414 101 OFFCURVE",
"346 50 OFFCURVE",
"267 50 CURVE SMOOTH"
);
}
);
width = 548;
},
{
anchors = (
{
name = bottom;
position = "{274, 0}";
},
{
name = top;
position = "{274, 509}";
}
);
layerId = "671CEF0C-3804-4AAB-8F09-7652EF8CF253";
paths = (
{
closed = 1;
nodes = (
"403 -209 OFFCURVE",
"505 -113 OFFCURVE",
"505 24 CURVE SMOOTH",
"505 509 LINE",
"414 509 OFFCURVE",
"379 487 OFFCURVE",
"379 454 CURVE",
"388 443 OFFCURVE",
"393 437 OFFCURVE",
"398 428 CURVE",
"393 424 LINE",
"354 477 OFFCURVE",
"306 509 OFFCURVE",
"230 509 CURVE SMOOTH",
"133 509 OFFCURVE",
"41 429 OFFCURVE",
"41 327 CURVE SMOOTH",
"41 182 LINE SMOOTH",
"41 76 OFFCURVE",
"125 1 OFFCURVE",
"236 1 CURVE SMOOTH",
"278 1 OFFCURVE",
"347 19 OFFCURVE",
"384 54 CURVE",
"388 49 LINE",
"383 42 OFFCURVE",
"374 35 OFFCURVE",
"366 29 CURVE",
"366 3 LINE SMOOTH",
"366 -55 OFFCURVE",
"346 -101 OFFCURVE",
"265 -101 CURVE SMOOTH",
"195 -101 OFFCURVE",
"163 -71 OFFCURVE",
"157 -20 CURVE",
"98 -20 OFFCURVE",
"59 -36 OFFCURVE",
"59 -86 CURVE SMOOTH",
"59 -154 OFFCURVE",
"140 -209 OFFCURVE",
"265 -209 CURVE SMOOTH"
);
},
{
closed = 1;
nodes = (
"209 118 OFFCURVE",
"178 146 OFFCURVE",
"178 192 CURVE SMOOTH",
"178 317 LINE SMOOTH",
"178 365 OFFCURVE",
"211 392 OFFCURVE",
"273 392 CURVE SMOOTH",
"330 392 OFFCURVE",
"369 361 OFFCURVE",
"369 322 CURVE SMOOTH",
"369 188 LINE SMOOTH",
"369 150 OFFCURVE",
"330 118 OFFCURVE",
"273 118 CURVE SMOOTH"
);
}
);
width = 556;
}
);
leftKerningGroup = d;
note = g;
rightKerningGroup = d;
unicode = 0067;
},
{
color = 6;
glyphname = h;
lastChange = "2018-05-04 08:26:33 +0000";
layers = (
{
anchors = (
{
name = bottom;
position = "{274, 0}";
},
{
name = center;
position = "{274, 235}";
},
{
name = top;
position = "{226, 665}";
}
);
layerId = "0B1DFD06-3317-40CA-B510-4969A0718C16";
paths = (
{
closed = 1;
nodes = (
"116 -9 OFFCURVE",
"134 9 OFFCURVE",
"134 44 CURVE SMOOTH",
"134 340 LINE SMOOTH",
"134 404 OFFCURVE",
"216 460 OFFCURVE",
"296 460 CURVE SMOOTH",
"387 460 OFFCURVE",
"424 412 OFFCURVE",
"424 340 CURVE SMOOTH",
"424 -9 LINE",
"460 -9 OFFCURVE",
"478 9 OFFCURVE",
"478 44 CURVE SMOOTH",
"478 340 LINE SMOOTH",
"478 438 OFFCURVE",
"417 509 OFFCURVE",
"299 509 CURVE SMOOTH",
"224 509 OFFCURVE",
"154 465 OFFCURVE",
"116 415 CURVE",
"114 420 LINE",
"119 426 OFFCURVE",
"128 437 OFFCURVE",
"134 443 CURVE",
"134 709 LINE",
"98 709 OFFCURVE",
"80 691 OFFCURVE",
"80 655 CURVE SMOOTH",
"80 -9 LINE"
);
}
);
width = 548;
},
{
anchors = (
{
name = bottom;
position = "{279, -21}";
},
{
name = center;
position = "{279, 254}";
},
{
name = top;
position = "{226, 709}";
}
);
background = {
paths = (
{
closed = 1;
nodes = (
"116 -9 OFFCURVE",
"134 9 OFFCURVE",
"134 44 CURVE SMOOTH",
"134 340 LINE SMOOTH",
"134 404 OFFCURVE",
"216 460 OFFCURVE",
"296 460 CURVE SMOOTH",
"387 460 OFFCURVE",
"424 412 OFFCURVE",
"424 340 CURVE SMOOTH",
"424 -9 LINE",
"460 -9 OFFCURVE",
"478 9 OFFCURVE",
"478 44 CURVE SMOOTH",
"478 340 LINE SMOOTH",
"478 438 OFFCURVE",
"417 509 OFFCURVE",
"299 509 CURVE SMOOTH",
"224 509 OFFCURVE",
"154 465 OFFCURVE",
"116 415 CURVE",
"114 420 LINE",
"119 426 OFFCURVE",
"128 437 OFFCURVE",
"134 443 CURVE",
"134 709 LINE",
"98 709 OFFCURVE",
"80 691 OFFCURVE",
"80 655 CURVE SMOOTH",
"80 -9 LINE"
);
}
);
};
layerId = "671CEF0C-3804-4AAB-8F09-7652EF8CF253";
paths = (
{
closed = 1;
nodes = (
"144 -9 OFFCURVE",
"192 12 OFFCURVE",
"192 71 CURVE SMOOTH",
"192 282 LINE SMOOTH",
"192 344 OFFCURVE",
"235 391 OFFCURVE",
"300 391 CURVE SMOOTH",
"355 391 OFFCURVE",
"382 354 OFFCURVE",
"382 311 CURVE SMOOTH",
"382 -9 LINE",
"471 -9 OFFCURVE",
"519 12 OFFCURVE",
"519 71 CURVE SMOOTH",
"519 332 LINE SMOOTH",
"519 432 OFFCURVE",
"449 509 OFFCURVE",
"348 509 CURVE SMOOTH",
"270 509 OFFCURVE",
"215 471 OFFCURVE",
"174 412 CURVE",
"167 416 LINE",
"174 428 OFFCURVE",
"183 440 OFFCURVE",
"192 450 CURVE",
"192 709 LINE",
"103 709 OFFCURVE",
"55 670 OFFCURVE",
"55 605 CURVE SMOOTH",
"55 -9 LINE"
);
}
);
width = 565;
}
);
leftKerningGroup = n;
note = h;
rightKerningGroup = n;
unicode = 0068;
},
{
color = 6;
glyphname = i;
lastChange = "2018-04-30 06:32:43 +0000";
layers = (
{
anchors = (
{
name = bottom;
position = "{130, 0}";
}
);
layerId = "0B1DFD06-3317-40CA-B510-4969A0718C16";
paths = (
{
closed = 1;
nodes = (
"139 -9 OFFCURVE",
"157 9 OFFCURVE",
"157 44 CURVE SMOOTH",
"157 509 LINE",
"121 509 OFFCURVE",
"103 491 OFFCURVE",
"103 455 CURVE SMOOTH",
"103 -9 LINE"
);
},
{
closed = 1;
nodes = (
"158 609 OFFCURVE",
"180 631 OFFCURVE",
"180 659 CURVE SMOOTH",
"180 687 OFFCURVE",
"158 709 OFFCURVE",
"130 709 CURVE SMOOTH",
"102 709 OFFCURVE",
"80 687 OFFCURVE",
"80 659 CURVE SMOOTH",
"80 631 OFFCURVE",
"102 609 OFFCURVE",
"130 609 CURVE SMOOTH"
);
}
);
width = 260;
},
{
anchors = (
{
name = bottom;
position = "{143, 0}";
}
);
layerId = "671CEF0C-3804-4AAB-8F09-7652EF8CF253";
paths = (
{
closed = 1;
nodes = (
"164 -9 OFFCURVE",
"212 12 OFFCURVE",
"212 71 CURVE SMOOTH",
"212 509 LINE",
"123 509 OFFCURVE",
"75 488 OFFCURVE",
"75 429 CURVE SMOOTH",
"75 -9 LINE"
);
},
{
closed = 1;
nodes = (
"194 547 OFFCURVE",
"233 580 OFFCURVE",
"233 628 CURVE SMOOTH",
"233 676 OFFCURVE",
"194 709 OFFCURVE",
"144 709 CURVE SMOOTH",
"94 709 OFFCURVE",
"55 676 OFFCURVE",
"55 628 CURVE SMOOTH",
"55 580 OFFCURVE",
"94 547 OFFCURVE",
"144 547 CURVE SMOOTH"
);
}
);
width = 288;
}
);
note = i;
unicode = 0069;
},
{
color = 6;
glyphname = j;
lastChange = "2018-05-01 07:32:44 +0000";
layers = (
{
layerId = "0B1DFD06-3317-40CA-B510-4969A0718C16";
paths = (
{
closed = 1;
nodes = (
"203 -209 OFFCURVE",
"241 -149 OFFCURVE",
"241 -79 CURVE SMOOTH",
"241 509 LINE",
"205 509 OFFCURVE",
"187 491 OFFCURVE",
"187 455 CURVE SMOOTH",
"187 -75 LINE SMOOTH",
"187 -132 OFFCURVE",
"167 -160 OFFCURVE",
"113 -160 CURVE SMOOTH",
"89 -160 OFFCURVE",
"65 -151 OFFCURVE",
"51 -142 CURVE",
"47 -149 OFFCURVE",
"45 -154 OFFCURVE",
"45 -163 CURVE SMOOTH",
"45 -184 OFFCURVE",
"67 -209 OFFCURVE",
"110 -209 CURVE SMOOTH"
);
},
{
closed = 1;
nodes = (
"242 609 OFFCURVE",
"264 631 OFFCURVE",
"264 659 CURVE SMOOTH",
"264 687 OFFCURVE",
"242 709 OFFCURVE",
"214 709 CURVE SMOOTH",
"186 709 OFFCURVE",
"164 687 OFFCURVE",
"164 659 CURVE SMOOTH",
"164 631 OFFCURVE",
"186 609 OFFCURVE",
"214 609 CURVE SMOOTH"
);
}
);
width = 344;
},
{
layerId = "671CEF0C-3804-4AAB-8F09-7652EF8CF253";
paths = (
{
closed = 1;
nodes = (
"276 -209 OFFCURVE",
"353 -126 OFFCURVE",
"353 -19 CURVE SMOOTH",
"353 509 LINE",
"264 509 OFFCURVE",
"216 488 OFFCURVE",
"216 429 CURVE SMOOTH",
"216 -18 LINE SMOOTH",
"216 -62 OFFCURVE",
"192 -91 OFFCURVE",
"142 -91 CURVE SMOOTH",
"106 -91 OFFCURVE",
"76 -79 OFFCURVE",
"55 -54 CURVE",
"37 -63 OFFCURVE",
"25 -82 OFFCURVE",
"25 -108 CURVE SMOOTH",
"25 -164 OFFCURVE",
"81 -209 OFFCURVE",
"164 -209 CURVE SMOOTH"
);
},
{
closed = 1;
nodes = (
"335 547 OFFCURVE",
"374 580 OFFCURVE",
"374 628 CURVE SMOOTH",
"374 676 OFFCURVE",
"335 709 OFFCURVE",
"285 709 CURVE SMOOTH",
"235 709 OFFCURVE",
"196 676 OFFCURVE",
"196 628 CURVE SMOOTH",
"196 580 OFFCURVE",
"235 547 OFFCURVE",
"285 547 CURVE SMOOTH"
);
}
);
width = 429;
}
);
note = j;
unicode = 006A;
},
{
color = 6;
glyphname = k;
lastChange = "2018-05-01 07:35:13 +0000";
layers = (
{
anchors = (
{
name = bottom;
position = "{269, 0}";
},
{
name = top;
position = "{269, 509}";
}
);
layerId = "0B1DFD06-3317-40CA-B510-4969A0718C16";
paths = (
{
closed = 1;
nodes = (
"116 -9 OFFCURVE",
"134 9 OFFCURVE",
"134 44 CURVE SMOOTH",
"134 170 LINE SMOOTH",
"134 238 OFFCURVE",
"195 291 OFFCURVE",
"287 291 CURVE SMOOTH",
"387 291 OFFCURVE",
"415 240 OFFCURVE",
"415 170 CURVE SMOOTH",
"415 -9 LINE",
"451 -9 OFFCURVE",
"468 9 OFFCURVE",
"468 44 CURVE SMOOTH",
"468 177 LINE SMOOTH",
"468 274 OFFCURVE",
"405 341 OFFCURVE",
"306 340 CURVE SMOOTH",
"291 340 OFFCURVE",
"278 338 OFFCURVE",
"259 333 CURVE",
"258 338 LINE",
"273 342 OFFCURVE",
"287 345 OFFCURVE",
"302 347 CURVE",
"428 433 LINE SMOOTH",
"459 451 OFFCURVE",
"464 476 OFFCURVE",
"446 507 CURVE",
"134 290 LINE",
"134 709 LINE",
"98 709 OFFCURVE",
"80 691 OFFCURVE",
"80 656 CURVE SMOOTH",
"80 -9 LINE"
);
}
);
width = 533;
},
{
anchors = (
{
name = bottom;
position = "{267, 37}";
},
{
name = top;
position = "{267, 492}";
}
);
layerId = "671CEF0C-3804-4AAB-8F09-7652EF8CF253";
paths = (
{
closed = 1;
nodes = (
"143 -9 OFFCURVE",
"191 12 OFFCURVE",
"191 71 CURVE SMOOTH",
"191 164 LINE SMOOTH",
"191 214 OFFCURVE",
"227 247 OFFCURVE",
"284 247 CURVE SMOOTH",
"339 247 OFFCURVE",
"374 211 OFFCURVE",
"374 154 CURVE SMOOTH",
"374 -9 LINE",
"465 -9 OFFCURVE",
"508 12 OFFCURVE",
"508 71 CURVE SMOOTH",
"508 164 LINE SMOOTH",
"508 255 OFFCURVE",
"463 313 OFFCURVE",
"355 313 CURVE SMOOTH",
"338 313 OFFCURVE",
"319 311 OFFCURVE",
"301 306 CURVE",
"299 314 LINE",
"314 319 OFFCURVE",
"335 322 OFFCURVE",
"350 323 CURVE",
"462 384 LINE SMOOTH",
"505 407 OFFCURVE",
"513 461 OFFCURVE",
"464 509 CURVE",
"193 345 LINE",
"193 709 LINE",
"95 709 OFFCURVE",
"55 670 OFFCURVE",
"55 605 CURVE SMOOTH",
"55 -9 LINE"
);
}
);
width = 543;
}
);
note = k;
unicode = 006B;
},
{
color = 6;
glyphname = l;
lastChange = "2018-04-30 06:32:43 +0000";
layers = (
{
anchors = (
{
name = bottom;
position = "{188, 0}";
},
{
name = center;
position = "{158, 235}";
},
{
name = top;
position = "{115, 666}";
},
{
name = topright;
position = "{296, 470}";
}
);
layerId = "0B1DFD06-3317-40CA-B510-4969A0718C16";
paths = (
{
closed = 1;
nodes = (
"248 -9 OFFCURVE",
"276 13 OFFCURVE",
"276 35 CURVE SMOOTH",
"276 44 OFFCURVE",
"274 51 OFFCURVE",
"270 58 CURVE",
"256 49 OFFCURVE",
"232 40 OFFCURVE",
"208 40 CURVE SMOOTH",
"152 40 OFFCURVE",
"134 64 OFFCURVE",
"134 121 CURVE SMOOTH",
"134 709 LINE",
"98 709 OFFCURVE",
"80 691 OFFCURVE",
"80 656 CURVE SMOOTH",
"80 119 LINE SMOOTH",
"80 44 OFFCURVE",
"117 -9 OFFCURVE",
"205 -9 CURVE SMOOTH"
);
}
);
width = 321;
},
{
anchors = (
{
name = bottom;
position = "{203, 0}";
},
{
name = center;
position = "{173, 235}";
},
{
name = top;
position = "{130, 666}";
},
{
name = topright;
position = "{311, 470}";
}
);
background = {
paths = (
{
closed = 1;
nodes = (
"149 709 LINE",
"113 709 OFFCURVE",
"95 691 OFFCURVE",
"95 656 CURVE SMOOTH",
"95 119 LINE SMOOTH",
"95 44 OFFCURVE",
"132 -9 OFFCURVE",
"220 -9 CURVE SMOOTH",
"263 -9 OFFCURVE",
"291 13 OFFCURVE",
"291 35 CURVE SMOOTH",
"291 44 OFFCURVE",
"289 51 OFFCURVE",
"285 58 CURVE",
"271 49 OFFCURVE",
"247 40 OFFCURVE",
"223 40 CURVE SMOOTH",
"167 40 OFFCURVE",
"149 64 OFFCURVE",
"149 121 CURVE SMOOTH"
);
}
);
};
layerId = "671CEF0C-3804-4AAB-8F09-7652EF8CF253";
paths = (
{
closed = 1;
nodes = (
"311 -9 OFFCURVE",
"348 36 OFFCURVE",
"348 74 CURVE SMOOTH",
"348 94 OFFCURVE",
"339 116 OFFCURVE",
"324 129 CURVE",
"298 115 OFFCURVE",
"273 109 OFFCURVE",
"249 109 CURVE SMOOTH",
"206 109 OFFCURVE",
"187 127 OFFCURVE",
"187 171 CURVE SMOOTH",
"187 709 LINE",
"96 709 OFFCURVE",
"50 688 OFFCURVE",
"50 629 CURVE SMOOTH",
"50 166 LINE SMOOTH",
"50 72 OFFCURVE",
"103 -9 OFFCURVE",
"225 -9 CURVE SMOOTH"
);
}
);
width = 373;
}
);
note = l;
unicode = 006C;
},
{
color = 6;
glyphname = m;
lastChange = "2018-04-30 06:32:43 +0000";
layers = (
{
anchors = (
{
name = bottom;
position = "{384, 0}";
},
{
name = top;
position = "{384, 509}";
}
);
background = {
paths = (
{
closed = 1;
nodes = (
"116 -9 OFFCURVE",
"134 9 OFFCURVE",
"134 44 CURVE SMOOTH",
"134 374 LINE SMOOTH",
"134 422 OFFCURVE",
"181 460 OFFCURVE",
"241 460 CURVE SMOOTH",
"302 460 OFFCURVE",
"350 422 OFFCURVE",
"350 374 CURVE SMOOTH",
"350 -9 LINE",
"386 -9 OFFCURVE",
"403 9 OFFCURVE",
"403 44 CURVE SMOOTH",
"403 374 LINE SMOOTH",
"403 422 OFFCURVE",
"450 460 OFFCURVE",
"511 460 CURVE SMOOTH",
"571 460 OFFCURVE",
"620 422 OFFCURVE",
"620 374 CURVE SMOOTH",
"620 -9 LINE",
"655 -9 OFFCURVE",
"673 9 OFFCURVE",
"673 44 CURVE SMOOTH",
"673 374 LINE SMOOTH",
"673 448 OFFCURVE",
"601 509 OFFCURVE",
"511 509 CURVE SMOOTH",
"443 509 OFFCURVE",
"386 475 OFFCURVE",
"362 426 CURVE",
"360 430 LINE",
"362 436 OFFCURVE",
"368 448 OFFCURVE",
"372 454 CURVE",
"343 488 OFFCURVE",
"294 509 OFFCURVE",
"241 509 CURVE SMOOTH",
"190 509 OFFCURVE",
"145 489 OFFCURVE",
"116 460 CURVE",
"111 461 LINE",
"116 467 OFFCURVE",
"128 478 OFFCURVE",
"134 482 CURVE",
"134 509 LINE",
"98 509 OFFCURVE",
"80 491 OFFCURVE",
"80 455 CURVE SMOOTH",
"80 -9 LINE"
);
}
);
};
layerId = "0B1DFD06-3317-40CA-B510-4969A0718C16";
paths = (
{
closed = 1;
nodes = (
"116 -9 OFFCURVE",
"134 9 OFFCURVE",
"134 44 CURVE SMOOTH",
"134 340 LINE SMOOTH",
"134 404 OFFCURVE",
"201 460 OFFCURVE",
"265 460 CURVE SMOOTH",
"336 460 OFFCURVE",
"363 412 OFFCURVE",
"363 340 CURVE SMOOTH",
"363 -9 LINE",
"399 -9 OFFCURVE",
"416 9 OFFCURVE",
"416 44 CURVE SMOOTH",
"416 340 LINE SMOOTH",
"416 404 OFFCURVE",
"476 460 OFFCURVE",
"547 460 CURVE SMOOTH",
"618 460 OFFCURVE",
"644 412 OFFCURVE",
"644 340 CURVE SMOOTH",
"644 -9 LINE",
"680 -9 OFFCURVE",
"698 9 OFFCURVE",
"698 44 CURVE SMOOTH",
"698 340 LINE SMOOTH",
"698 438 OFFCURVE",
"651 509 OFFCURVE",
"550 509 CURVE SMOOTH",
"479 509 OFFCURVE",
"433 472 OFFCURVE",
"398 421 CURVE",
"377 475 OFFCURVE",
"338 509 OFFCURVE",
"268 509 CURVE SMOOTH",
"200 509 OFFCURVE",
"154 465 OFFCURVE",
"116 415 CURVE",
"114 420 LINE",
"119 426 OFFCURVE",
"126 435 OFFCURVE",
"132 441 CURVE",
"132 509 LINE",
"96 509 OFFCURVE",
"80 491 OFFCURVE",
"80 455 CURVE SMOOTH",
"80 -9 LINE"
);
}
);
width = 768;
},
{
anchors = (
{
name = bottom;
position = "{384, 0}";
},
{
name = top;
position = "{384, 509}";
}
);
background = {
paths = (
{
closed = 1;
nodes = (
"116 -9 OFFCURVE",
"134 9 OFFCURVE",
"134 44 CURVE SMOOTH",
"134 340 LINE SMOOTH",
"134 404 OFFCURVE",
"201 460 OFFCURVE",
"265 460 CURVE SMOOTH",
"336 460 OFFCURVE",
"363 412 OFFCURVE",
"363 340 CURVE SMOOTH",
"363 -9 LINE",
"399 -9 OFFCURVE",
"416 9 OFFCURVE",
"416 44 CURVE SMOOTH",
"416 340 LINE SMOOTH",
"416 404 OFFCURVE",
"476 460 OFFCURVE",
"547 460 CURVE SMOOTH",
"618 460 OFFCURVE",
"644 412 OFFCURVE",
"644 340 CURVE SMOOTH",
"644 -9 LINE",
"680 -9 OFFCURVE",
"698 9 OFFCURVE",
"698 44 CURVE SMOOTH",
"698 340 LINE SMOOTH",
"698 438 OFFCURVE",
"651 509 OFFCURVE",
"550 509 CURVE SMOOTH",
"479 509 OFFCURVE",
"433 472 OFFCURVE",
"398 421 CURVE",
"377 475 OFFCURVE",
"338 509 OFFCURVE",
"268 509 CURVE SMOOTH",
"200 509 OFFCURVE",
"154 465 OFFCURVE",
"116 415 CURVE",
"114 420 LINE",
"119 426 OFFCURVE",
"126 435 OFFCURVE",
"132 441 CURVE",
"132 509 LINE",
"96 509 OFFCURVE",
"80 491 OFFCURVE",
"80 455 CURVE SMOOTH",
"80 -9 LINE"
);
}
);
};
layerId = "671CEF0C-3804-4AAB-8F09-7652EF8CF253";
paths = (
{
closed = 1;
nodes = (
"144 -9 OFFCURVE",
"190 12 OFFCURVE",
"190 71 CURVE SMOOTH",
"190 291 LINE SMOOTH",
"190 353 OFFCURVE",
"212 394 OFFCURVE",
"267 394 CURVE SMOOTH",
"311 394 OFFCURVE",
"328 363 OFFCURVE",
"328 320 CURVE SMOOTH",
"328 -9 LINE",
"416 -9 OFFCURVE",
"461 12 OFFCURVE",
"461 71 CURVE SMOOTH",
"461 296 LINE SMOOTH",
"461 373 OFFCURVE",
"500 394 OFFCURVE",
"537 394 CURVE SMOOTH",
"581 394 OFFCURVE",
"599 363 OFFCURVE",
"599 320 CURVE SMOOTH",
"599 -9 LINE",
"688 -9 OFFCURVE",
"734 12 OFFCURVE",
"734 71 CURVE SMOOTH",
"734 332 LINE SMOOTH",
"734 432 OFFCURVE",
"677 509 OFFCURVE",
"585 509 CURVE SMOOTH",
"519 509 OFFCURVE",
"466 477 OFFCURVE",
"433 424 CURVE",
"413 475 OFFCURVE",
"376 509 OFFCURVE",
"315 509 CURVE SMOOTH",
"247 509 OFFCURVE",
"205 472 OFFCURVE",
"166 412 CURVE",
"159 416 LINE",
"166 428 OFFCURVE",
"175 440 OFFCURVE",
"184 450 CURVE",
"184 509 LINE",
"95 509 OFFCURVE",
"55 470 OFFCURVE",
"55 405 CURVE SMOOTH",
"55 -9 LINE"
);
}
);
width = 784;
}
);
leftKerningGroup = n;
note = m;
rightKerningGroup = n;
unicode = 006D;
},
{
color = 6;
glyphname = n;
lastChange = "2018-05-04 08:46:14 +0000";
layers = (
{
anchors = (
{
name = bottom;
position = "{274, 0}";
},
{
name = top;
position = "{274, 509}";
}
);
background = {
paths = (
{
closed = 1;
nodes = (
"116 -9 OFFCURVE",
"134 9 OFFCURVE",
"134 44 CURVE SMOOTH",
"134 340 LINE SMOOTH",
"134 404 OFFCURVE",
"195 460 OFFCURVE",
"279 460 CURVE SMOOTH",
"363 460 OFFCURVE",
"425 404 OFFCURVE",
"425 340 CURVE SMOOTH",
"425 -9 LINE",
"461 -9 OFFCURVE",
"478 9 OFFCURVE",
"478 44 CURVE SMOOTH",
"478 340 LINE SMOOTH",
"478 433 OFFCURVE",
"390 509 OFFCURVE",
"279 509 CURVE SMOOTH",
"212 509 OFFCURVE",
"151 481 OFFCURVE",
"116 436 CURVE",
"114 441 LINE",
"119 447 OFFCURVE",
"128 457 OFFCURVE",
"134 461 CURVE",
"134 509 LINE",
"98 509 OFFCURVE",
"80 491 OFFCURVE",
"80 455 CURVE SMOOTH",
"80 -9 LINE"
);
}
);
};
layerId = "0B1DFD06-3317-40CA-B510-4969A0718C16";
paths = (
{
closed = 1;
nodes = (
"116 -9 OFFCURVE",
"134 9 OFFCURVE",
"134 44 CURVE SMOOTH",
"134 340 LINE SMOOTH",
"134 404 OFFCURVE",
"216 460 OFFCURVE",
"296 460 CURVE SMOOTH",
"387 460 OFFCURVE",
"424 412 OFFCURVE",
"424 340 CURVE SMOOTH",
"424 -9 LINE",
"460 -9 OFFCURVE",
"478 9 OFFCURVE",
"478 44 CURVE SMOOTH",
"478 340 LINE SMOOTH",
"478 438 OFFCURVE",
"417 509 OFFCURVE",
"299 509 CURVE SMOOTH",
"224 509 OFFCURVE",
"154 465 OFFCURVE",
"116 415 CURVE",
"114 420 LINE",
"119 426 OFFCURVE",
"126 435 OFFCURVE",
"132 441 CURVE",
"132 509 LINE",
"96 509 OFFCURVE",
"80 491 OFFCURVE",
"80 455 CURVE SMOOTH",
"80 -9 LINE"
);
}
);
width = 548;
},
{
anchors = (
{
name = bottom;
position = "{286, 0}";
},
{
name = top;
position = "{286, 509}";
}
);
background = {
paths = (
{
closed = 1;
nodes = (
"115 -9 OFFCURVE",
"133 9 OFFCURVE",
"133 44 CURVE SMOOTH",
"133 340 LINE SMOOTH",
"133 404 OFFCURVE",
"194 460 OFFCURVE",
"278 460 CURVE SMOOTH",
"362 460 OFFCURVE",
"424 404 OFFCURVE",
"424 340 CURVE SMOOTH",
"424 -9 LINE",
"460 -9 OFFCURVE",
"477 9 OFFCURVE",
"477 44 CURVE SMOOTH",
"477 340 LINE SMOOTH",
"477 433 OFFCURVE",
"389 509 OFFCURVE",
"278 509 CURVE SMOOTH",
"211 509 OFFCURVE",
"150 481 OFFCURVE",
"115 436 CURVE",
"113 441 LINE",
"118 447 OFFCURVE",
"127 457 OFFCURVE",
"133 461 CURVE",
"133 509 LINE",
"97 509 OFFCURVE",
"79 491 OFFCURVE",
"79 455 CURVE SMOOTH",
"79 -9 LINE"
);
}
);
};
layerId = "671CEF0C-3804-4AAB-8F09-7652EF8CF253";
paths = (
{
closed = 1;
nodes = (
"146 -9 OFFCURVE",
"192 12 OFFCURVE",
"192 71 CURVE SMOOTH",
"192 282 LINE SMOOTH",
"192 344 OFFCURVE",
"235 391 OFFCURVE",
"300 391 CURVE SMOOTH",
"355 391 OFFCURVE",
"382 354 OFFCURVE",
"382 311 CURVE SMOOTH",
"382 -9 LINE",
"471 -9 OFFCURVE",
"519 12 OFFCURVE",
"519 71 CURVE SMOOTH",
"519 332 LINE SMOOTH",
"519 432 OFFCURVE",
"449 509 OFFCURVE",
"348 509 CURVE SMOOTH",
"270 509 OFFCURVE",
"207 472 OFFCURVE",
"168 412 CURVE",
"161 416 LINE",
"168 428 OFFCURVE",
"177 440 OFFCURVE",
"186 450 CURVE",
"186 509 LINE",
"97 509 OFFCURVE",
"55 470 OFFCURVE",
"55 405 CURVE SMOOTH",
"55 -9 LINE"
);
}
);
width = 569;
}
);
leftKerningGroup = n;
note = n;
rightKerningGroup = n;
unicode = 006E;
},
{
color = 6;
glyphname = o;
lastChange = "2018-05-04 09:24:52 +0000";
layers = (
{
anchors = (
{
name = bottom;
position = "{315, 0}";
},
{
name = center;
position = "{315, 235}";
},
{
name = ogonek;
position = "{562, 10}";
},
{
name = top;
position = "{315, 509}";
},
{
name = topright;
position = "{509, 372}";
}
);
layerId = "0B1DFD06-3317-40CA-B510-4969A0718C16";
paths = (
{
closed = 1;
nodes = (
"457 -9 OFFCURVE",
"574 106 OFFCURVE",
"574 249 CURVE SMOOTH",
"574 392 OFFCURVE",
"457 509 OFFCURVE",
"314 509 CURVE SMOOTH",
"171 509 OFFCURVE",
"55 392 OFFCURVE",
"55 249 CURVE SMOOTH",
"55 106 OFFCURVE",
"171 -9 OFFCURVE",
"314 -9 CURVE SMOOTH"
);
},
{
closed = 1;
nodes = (
"200 40 OFFCURVE",
"110 129 OFFCURVE",
"110 249 CURVE SMOOTH",
"110 370 OFFCURVE",
"200 460 OFFCURVE",
"314 460 CURVE SMOOTH",
"427 460 OFFCURVE",
"519 370 OFFCURVE",
"519 249 CURVE SMOOTH",
"519 129 OFFCURVE",
"427 40 OFFCURVE",
"314 40 CURVE SMOOTH"
);
}
);
width = 629;
},
{
anchors = (
{
name = bottom;
position = "{304, -3}";
},
{
name = center;
position = "{304, 237}";
},
{
name = ogonek;
position = "{524, 36}";
},
{
name = top;
position = "{304, 509}";
},
{
name = topright;
position = "{547, 359}";
}
);
layerId = "671CEF0C-3804-4AAB-8F09-7652EF8CF253";
paths = (
{
closed = 1;
nodes = (
"460 -9 OFFCURVE",
"586 88 OFFCURVE",
"586 249 CURVE SMOOTH",
"586 410 OFFCURVE",
"459 509 OFFCURVE",
"310 509 CURVE SMOOTH",
"161 509 OFFCURVE",
"35 411 OFFCURVE",
"35 249 CURVE SMOOTH",
"35 88 OFFCURVE",
"161 -9 OFFCURVE",
"310 -9 CURVE SMOOTH"
);
},
{
closed = 1;
nodes = (
"235 109 OFFCURVE",
"175 155 OFFCURVE",
"175 249 CURVE SMOOTH",
"175 344 OFFCURVE",
"235 391 OFFCURVE",
"310 391 CURVE SMOOTH",
"385 391 OFFCURVE",
"446 344 OFFCURVE",
"446 249 CURVE SMOOTH",
"446 156 OFFCURVE",
"385 109 OFFCURVE",
"310 109 CURVE SMOOTH"
);
}
);
width = 621;
}
);
note = o;
unicode = 006F;
},
{
color = 6;
glyphname = p;
lastChange = "2018-04-30 06:32:43 +0000";
layers = (
{
anchors = (
{
name = bottom;
position = "{274, 0}";
},
{
name = top;
position = "{274, 509}";
}
);
background = {
paths = (
{
closed = 1;
nodes = (
"116 -209 OFFCURVE",
"134 -192 OFFCURVE",
"134 -156 CURVE SMOOTH",
"134 38 LINE",
"128 43 OFFCURVE",
"119 53 OFFCURVE",
"114 59 CURVE",
"116 63 LINE",
"151 19 OFFCURVE",
"212 -9 OFFCURVE",
"279 -9 CURVE SMOOTH",
"390 -9 OFFCURVE",
"478 65 OFFCURVE",
"478 158 CURVE SMOOTH",
"478 340 LINE SMOOTH",
"478 433 OFFCURVE",
"390 509 OFFCURVE",
"279 509 CURVE SMOOTH",
"212 509 OFFCURVE",
"151 481 OFFCURVE",
"116 436 CURVE",
"114 441 LINE",
"119 447 OFFCURVE",
"128 457 OFFCURVE",
"134 461 CURVE",
"134 509 LINE",
"98 509 OFFCURVE",
"80 491 OFFCURVE",
"80 455 CURVE SMOOTH",
"80 -209 LINE"
);
},
{
closed = 1;
nodes = (
"195 40 OFFCURVE",
"134 96 OFFCURVE",
"134 158 CURVE SMOOTH",
"134 340 LINE SMOOTH",
"134 404 OFFCURVE",
"195 460 OFFCURVE",
"279 460 CURVE SMOOTH",
"363 460 OFFCURVE",
"425 404 OFFCURVE",
"425 340 CURVE SMOOTH",
"425 158 LINE SMOOTH",
"425 96 OFFCURVE",
"363 40 OFFCURVE",
"279 40 CURVE SMOOTH"
);
}
);
};
layerId = "0B1DFD06-3317-40CA-B510-4969A0718C16";
paths = (
{
closed = 1;
nodes = (
"116 -209 OFFCURVE",
"134 -191 OFFCURVE",
"134 -156 CURVE SMOOTH",
"134 45 LINE",
"128 52 OFFCURVE",
"119 62 OFFCURVE",
"114 69 CURVE",
"116 74 LINE",
"153 31 OFFCURVE",
"201 -9 OFFCURVE",
"283 -9 CURVE SMOOTH",
"399 -9 OFFCURVE",
"478 55 OFFCURVE",
"478 158 CURVE SMOOTH",
"478 341 LINE SMOOTH",
"478 446 OFFCURVE",
"399 509 OFFCURVE",
"281 509 CURVE SMOOTH",
"204 509 OFFCURVE",
"151 466 OFFCURVE",
"116 422 CURVE",
"114 426 LINE",
"120 434 OFFCURVE",
"128 444 OFFCURVE",
"134 451 CURVE",
"134 509 LINE",
"95 509 OFFCURVE",
"80 489 OFFCURVE",
"80 451 CURVE SMOOTH",
"80 -209 LINE"
);
},
{
closed = 1;
nodes = (
"187 40 OFFCURVE",
"134 91 OFFCURVE",
"134 153 CURVE SMOOTH",
"134 346 LINE SMOOTH",
"134 409 OFFCURVE",
"199 460 OFFCURVE",
"279 460 CURVE SMOOTH",
"371 460 OFFCURVE",
"425 416 OFFCURVE",
"425 341 CURVE SMOOTH",
"425 158 LINE SMOOTH",
"425 86 OFFCURVE",
"371 40 OFFCURVE",
"281 40 CURVE SMOOTH"
);
}
);
width = 548;
},
{
anchors = (
{
name = bottom;
position = "{284, 0}";
},
{
name = top;
position = "{284, 509}";
}
);
background = {
paths = (
{
closed = 1;
nodes = (
"144 45 LINE",
"138 52 OFFCURVE",
"129 62 OFFCURVE",
"124 69 CURVE",
"126 74 LINE",
"163 31 OFFCURVE",
"211 -9 OFFCURVE",
"293 -9 CURVE SMOOTH",
"409 -9 OFFCURVE",
"488 55 OFFCURVE",
"488 158 CURVE SMOOTH",
"488 341 LINE SMOOTH",
"488 446 OFFCURVE",
"409 509 OFFCURVE",
"291 509 CURVE SMOOTH",
"214 509 OFFCURVE",
"161 466 OFFCURVE",
"126 422 CURVE",
"124 426 LINE",
"130 434 OFFCURVE",
"138 444 OFFCURVE",
"144 451 CURVE",
"144 509 LINE",
"105 509 OFFCURVE",
"90 489 OFFCURVE",
"90 451 CURVE SMOOTH",
"90 -209 LINE",
"126 -209 OFFCURVE",
"144 -191 OFFCURVE",
"144 -156 CURVE SMOOTH"
);
},
{
closed = 1;
nodes = (
"381 460 OFFCURVE",
"435 416 OFFCURVE",
"435 341 CURVE SMOOTH",
"435 158 LINE SMOOTH",
"435 86 OFFCURVE",
"381 40 OFFCURVE",
"291 40 CURVE SMOOTH",
"197 40 OFFCURVE",
"144 91 OFFCURVE",
"144 153 CURVE SMOOTH",
"144 346 LINE SMOOTH",
"144 409 OFFCURVE",
"209 460 OFFCURVE",
"289 460 CURVE SMOOTH"
);
}
);
};
layerId = "671CEF0C-3804-4AAB-8F09-7652EF8CF253";
paths = (
{
closed = 1;
nodes = (
"156 -209 OFFCURVE",
"194 -173 OFFCURVE",
"194 -119 CURVE SMOOTH",
"194 19 LINE",
"186 25 OFFCURVE",
"177 32 OFFCURVE",
"172 39 CURVE",
"176 44 LINE",
"213 9 OFFCURVE",
"273 -9 OFFCURVE",
"315 -9 CURVE SMOOTH",
"431 -9 OFFCURVE",
"519 62 OFFCURVE",
"519 173 CURVE SMOOTH",
"519 327 LINE SMOOTH",
"519 434 OFFCURVE",
"442 509 OFFCURVE",
"333 509 CURVE SMOOTH",
"251 509 OFFCURVE",
"206 477 OFFCURVE",
"167 424 CURVE",
"162 428 LINE",
"167 437 OFFCURVE",
"172 444 OFFCURVE",
"181 455 CURVE",
"181 509 LINE",
"93 509 OFFCURVE",
"55 465 OFFCURVE",
"55 418 CURVE SMOOTH",
"55 -209 LINE"
);
},
{
closed = 1;
nodes = (
"230 109 OFFCURVE",
"192 140 OFFCURVE",
"192 178 CURVE SMOOTH",
"192 322 LINE SMOOTH",
"192 361 OFFCURVE",
"230 391 OFFCURVE",
"287 391 CURVE SMOOTH",
"349 391 OFFCURVE",
"382 365 OFFCURVE",
"382 317 CURVE SMOOTH",
"382 182 LINE SMOOTH",
"382 136 OFFCURVE",
"349 109 OFFCURVE",
"287 109 CURVE SMOOTH"
);
}
);
width = 556;
}
);
leftKerningGroup = b;
note = p;
rightKerningGroup = b;
unicode = 0070;
},
{
color = 6;
glyphname = q;
lastChange = "2018-04-30 06:32:43 +0000";
layers = (
{
anchors = (
{
name = bottom;
position = "{274, 0}";
},
{
name = top;
position = "{274, 509}";
}
);
background = {
paths = (
{
closed = 1;
nodes = (
"450 -209 OFFCURVE",
"468 -192 OFFCURVE",
"468 -156 CURVE SMOOTH",
"468 509 LINE",
"429 509 OFFCURVE",
"416 491 OFFCURVE",
"415 461 CURVE",
"421 457 OFFCURVE",
"429 447 OFFCURVE",
"434 441 CURVE",
"432 436 LINE",
"397 481 OFFCURVE",
"336 509 OFFCURVE",
"269 509 CURVE SMOOTH",
"158 509 OFFCURVE",
"70 433 OFFCURVE",
"70 340 CURVE SMOOTH",
"70 158 LINE SMOOTH",
"70 65 OFFCURVE",
"158 -9 OFFCURVE",
"269 -9 CURVE SMOOTH",
"336 -9 OFFCURVE",
"397 19 OFFCURVE",
"432 63 CURVE",
"434 59 LINE",
"429 53 OFFCURVE",
"421 43 OFFCURVE",
"415 38 CURVE",
"415 -209 LINE"
);
},
{
closed = 1;
nodes = (
"185 40 OFFCURVE",
"123 96 OFFCURVE",
"123 158 CURVE SMOOTH",
"123 340 LINE SMOOTH",
"123 404 OFFCURVE",
"185 460 OFFCURVE",
"269 460 CURVE SMOOTH",
"353 460 OFFCURVE",
"415 404 OFFCURVE",
"415 340 CURVE SMOOTH",
"415 158 LINE SMOOTH",
"415 96 OFFCURVE",
"353 40 OFFCURVE",
"269 40 CURVE SMOOTH"
);
}
);
};
layerId = "0B1DFD06-3317-40CA-B510-4969A0718C16";
paths = (
{
closed = 1;
nodes = (
"429 509 OFFCURVE",
"414 489 OFFCURVE",
"414 451 CURVE",
"420 444 OFFCURVE",
"428 434 OFFCURVE",
"434 426 CURVE",
"432 422 LINE",
"397 466 OFFCURVE",
"344 509 OFFCURVE",
"267 509 CURVE SMOOTH",
"149 509 OFFCURVE",
"70 446 OFFCURVE",
"70 341 CURVE SMOOTH",
"70 158 LINE SMOOTH",
"70 55 OFFCURVE",
"149 -9 OFFCURVE",
"265 -9 CURVE SMOOTH",
"337 -9 OFFCURVE",
"395 31 OFFCURVE",
"432 74 CURVE",
"434 69 LINE",
"429 62 OFFCURVE",
"420 52 OFFCURVE",
"414 45 CURVE",
"414 -209 LINE",
"450 -209 OFFCURVE",
"468 -191 OFFCURVE",
"468 -156 CURVE SMOOTH",
"468 509 LINE"
);
},
{
closed = 1;
nodes = (
"349 460 OFFCURVE",
"414 409 OFFCURVE",
"414 346 CURVE SMOOTH",
"414 153 LINE SMOOTH",
"414 91 OFFCURVE",
"346 40 OFFCURVE",
"267 40 CURVE SMOOTH",
"177 40 OFFCURVE",
"123 86 OFFCURVE",
"123 158 CURVE SMOOTH",
"123 341 LINE SMOOTH",
"123 416 OFFCURVE",
"177 460 OFFCURVE",
"269 460 CURVE SMOOTH"
);
}
);
width = 548;
},
{
anchors = (
{
name = bottom;
position = "{257, 0}";
},
{
name = top;
position = "{257, 509}";
}
);
background = {
paths = (
{
closed = 1;
nodes = (
"412 509 OFFCURVE",
"397 489 OFFCURVE",
"397 451 CURVE",
"403 444 OFFCURVE",
"411 434 OFFCURVE",
"417 426 CURVE",
"415 422 LINE",
"380 466 OFFCURVE",
"327 509 OFFCURVE",
"250 509 CURVE SMOOTH",
"132 509 OFFCURVE",
"53 446 OFFCURVE",
"53 341 CURVE SMOOTH",
"53 158 LINE SMOOTH",
"53 55 OFFCURVE",
"132 -9 OFFCURVE",
"248 -9 CURVE SMOOTH",
"320 -9 OFFCURVE",
"378 31 OFFCURVE",
"415 74 CURVE",
"417 69 LINE",
"412 62 OFFCURVE",
"403 52 OFFCURVE",
"397 45 CURVE",
"397 -209 LINE",
"433 -209 OFFCURVE",
"451 -191 OFFCURVE",
"451 -156 CURVE SMOOTH",
"451 509 LINE"
);
},
{
closed = 1;
nodes = (
"332 460 OFFCURVE",
"397 409 OFFCURVE",
"397 346 CURVE SMOOTH",
"397 153 LINE SMOOTH",
"397 91 OFFCURVE",
"329 40 OFFCURVE",
"250 40 CURVE SMOOTH",
"160 40 OFFCURVE",
"106 86 OFFCURVE",
"106 158 CURVE SMOOTH",
"106 341 LINE SMOOTH",
"106 416 OFFCURVE",
"160 460 OFFCURVE",
"252 460 CURVE SMOOTH"
);
}
);
};
layerId = "671CEF0C-3804-4AAB-8F09-7652EF8CF253";
paths = (
{
closed = 1;
nodes = (
"414 509 OFFCURVE",
"379 487 OFFCURVE",
"379 454 CURVE",
"388 443 OFFCURVE",
"393 437 OFFCURVE",
"398 428 CURVE",
"393 424 LINE",
"354 477 OFFCURVE",
"306 509 OFFCURVE",
"230 509 CURVE SMOOTH",
"133 509 OFFCURVE",
"41 434 OFFCURVE",
"41 327 CURVE SMOOTH",
"41 172 LINE SMOOTH",
"41 66 OFFCURVE",
"116 -9 OFFCURVE",
"236 -9 CURVE SMOOTH",
"278 -9 OFFCURVE",
"347 9 OFFCURVE",
"384 44 CURVE",
"388 39 LINE",
"383 32 OFFCURVE",
"374 25 OFFCURVE",
"366 19 CURVE",
"366 -209 LINE",
"467 -209 OFFCURVE",
"505 -173 OFFCURVE",
"505 -119 CURVE SMOOTH",
"505 509 LINE"
);
},
{
closed = 1;
nodes = (
"330 391 OFFCURVE",
"368 361 OFFCURVE",
"368 322 CURVE SMOOTH",
"368 178 LINE SMOOTH",
"368 140 OFFCURVE",
"330 109 OFFCURVE",
"273 109 CURVE SMOOTH",
"211 109 OFFCURVE",
"178 136 OFFCURVE",
"178 182 CURVE SMOOTH",
"178 317 LINE SMOOTH",
"178 365 OFFCURVE",
"211 391 OFFCURVE",
"273 391 CURVE SMOOTH"
);
}
);
width = 556;
}
);
leftKerningGroup = d;
note = q;
rightKerningGroup = d;
unicode = 0071;
},
{
color = 6;
glyphname = r;
lastChange = "2018-05-04 08:46:56 +0000";
layers = (
{
anchors = (
{
name = bottom;
position = "{107, 0}";
},
{
name = top;
position = "{190, 509}";
}
);
layerId = "0B1DFD06-3317-40CA-B510-4969A0718C16";
paths = (
{
closed = 1;
nodes = (
"291 460 OFFCURVE",
"319 453 OFFCURVE",
"334 445 CURVE",
"338 452 OFFCURVE",
"340 457 OFFCURVE",
"340 466 CURVE SMOOTH",
"340 487 OFFCURVE",
"319 509 OFFCURVE",
"276 509 CURVE SMOOTH",
"203 509 OFFCURVE",
"152 468 OFFCURVE",
"114 416 CURVE",
"112 420 LINE",
"117 428 OFFCURVE",
"124 437 OFFCURVE",
"132 446 CURVE",
"132 509 LINE",
"96 509 OFFCURVE",
"80 491 OFFCURVE",
"80 455 CURVE SMOOTH",
"80 -9 LINE",
"116 -9 OFFCURVE",
"134 9 OFFCURVE",
"134 44 CURVE SMOOTH",
"134 340 LINE SMOOTH",
"134 404 OFFCURVE",
"188 460 OFFCURVE",
"261 460 CURVE SMOOTH"
);
}
);
width = 385;
},
{
anchors = (
{
name = bottom;
position = "{117, 0}";
},
{
name = top;
position = "{190, 509}";
}
);
background = {
paths = (
{
closed = 1;
nodes = (
"291 460 OFFCURVE",
"319 453 OFFCURVE",
"334 445 CURVE",
"338 452 OFFCURVE",
"340 457 OFFCURVE",
"340 466 CURVE SMOOTH",
"340 487 OFFCURVE",
"319 509 OFFCURVE",
"276 509 CURVE SMOOTH",
"203 509 OFFCURVE",
"152 468 OFFCURVE",
"114 416 CURVE",
"112 420 LINE",
"117 428 OFFCURVE",
"124 437 OFFCURVE",
"132 446 CURVE",
"132 509 LINE",
"96 509 OFFCURVE",
"80 491 OFFCURVE",
"80 455 CURVE SMOOTH",
"80 -9 LINE",
"116 -9 OFFCURVE",
"134 9 OFFCURVE",
"134 44 CURVE SMOOTH",
"134 340 LINE SMOOTH",
"134 404 OFFCURVE",
"188 460 OFFCURVE",
"261 460 CURVE SMOOTH"
);
}
);
};
layerId = "671CEF0C-3804-4AAB-8F09-7652EF8CF253";
paths = (
{
closed = 1;
nodes = (
"358 391 OFFCURVE",
"382 386 OFFCURVE",
"401 375 CURVE",
"408 385 OFFCURVE",
"416 403 OFFCURVE",
"416 424 CURVE SMOOTH",
"416 470 OFFCURVE",
"388 509 OFFCURVE",
"325 509 CURVE SMOOTH",
"258 509 OFFCURVE",
"207 472 OFFCURVE",
"168 412 CURVE",
"161 416 LINE",
"168 428 OFFCURVE",
"177 440 OFFCURVE",
"186 450 CURVE",
"186 509 LINE",
"97 509 OFFCURVE",
"55 470 OFFCURVE",
"55 405 CURVE SMOOTH",
"55 -9 LINE",
"146 -9 OFFCURVE",
"192 12 OFFCURVE",
"192 71 CURVE SMOOTH",
"192 282 LINE SMOOTH",
"192 344 OFFCURVE",
"245 391 OFFCURVE",
"326 391 CURVE SMOOTH"
);
}
);
width = 439;
}
);
leftKerningGroup = r;
note = r;
rightKerningGroup = r;
unicode = 0072;
},
{
color = 6;
glyphname = s;
lastChange = "2018-05-03 08:10:40 +0000";
layers = (
{
anchors = (
{
name = bottom;
position = "{247, 0}";
},
{
name = top;
position = "{247, 509}";
}
);
background = {
paths = (
{
closed = 1;
nodes = (
"351 -9 OFFCURVE",
"447 71 OFFCURVE",
"440 158 CURVE SMOOTH",
"434 245 OFFCURVE",
"357 258 OFFCURVE",
"245 282 CURVE SMOOTH",
"158 299 OFFCURVE",
"121 312 OFFCURVE",
"117 360 CURVE SMOOTH",
"112 408 OFFCURVE",
"164 460 OFFCURVE",
"241 460 CURVE SMOOTH",
"320 460 OFFCURVE",
"381 389 OFFCURVE",
"363 315 CURVE",
"397 311 OFFCURVE",
"422 332 OFFCURVE",
"416 368 CURVE SMOOTH",
"403 448 OFFCURVE",
"342 509 OFFCURVE",
"241 509 CURVE SMOOTH",
"129 509 OFFCURVE",
"56 432 OFFCURVE",
"64 354 CURVE SMOOTH",
"71 273 OFFCURVE",
"121 255 OFFCURVE",
"236 233 CURVE SMOOTH",
"322 215 OFFCURVE",
"384 200 OFFCURVE",
"387 155 CURVE SMOOTH",
"391 97 OFFCURVE",
"322 40 OFFCURVE",
"241 40 CURVE SMOOTH",
"163 40 OFFCURVE",
"76 102 OFFCURVE",
"96 183 CURVE",
"56 187 OFFCURVE",
"39 162 OFFCURVE",
"45 130 CURVE SMOOTH",
"59 50 OFFCURVE",
"143 -9 OFFCURVE",
"241 -9 CURVE SMOOTH"
);
}
);
};
layerId = "0B1DFD06-3317-40CA-B510-4969A0718C16";
paths = (
{
closed = 1;
nodes = (
"374 -9 OFFCURVE",
"442 45 OFFCURVE",
"442 131 CURVE SMOOTH",
"442 223 OFFCURVE",
"365 254 OFFCURVE",
"247 278 CURVE SMOOTH",
"160 296 OFFCURVE",
"117 322 OFFCURVE",
"117 377 CURVE SMOOTH",
"117 425 OFFCURVE",
"158 460 OFFCURVE",
"235 460 CURVE SMOOTH",
"328 460 OFFCURVE",
"366 413 OFFCURVE",
"366 340 CURVE",
"393 340 OFFCURVE",
"415 352 OFFCURVE",
"415 381 CURVE SMOOTH",
"415 452 OFFCURVE",
"342 509 OFFCURVE",
"235 509 CURVE SMOOTH",
"128 509 OFFCURVE",
"64 452 OFFCURVE",
"64 377 CURVE SMOOTH",
"64 294 OFFCURVE",
"123 252 OFFCURVE",
"238 229 CURVE SMOOTH",
"342 208 OFFCURVE",
"389 191 OFFCURVE",
"389 128 CURVE SMOOTH",
"389 72 OFFCURVE",
"346 40 OFFCURVE",
"257 40 CURVE SMOOTH",
"164 40 OFFCURVE",
"106 81 OFFCURVE",
"106 173 CURVE",
"81 173 OFFCURVE",
"55 164 OFFCURVE",
"55 134 CURVE SMOOTH",
"55 54 OFFCURVE",
"137 -9 OFFCURVE",
"257 -9 CURVE SMOOTH"
);
}
);
width = 497;
},
{
anchors = (
{
name = bottom;
position = "{254, -3}";
},
{
name = top;
position = "{254, 509}";
}
);
background = {
paths = (
{
closed = 1;
nodes = (
"358 -9 OFFCURVE",
"454 71 OFFCURVE",
"447 158 CURVE SMOOTH",
"441 245 OFFCURVE",
"364 258 OFFCURVE",
"252 282 CURVE SMOOTH",
"165 299 OFFCURVE",
"128 312 OFFCURVE",
"124 360 CURVE SMOOTH",
"119 408 OFFCURVE",
"171 460 OFFCURVE",
"248 460 CURVE SMOOTH",
"327 460 OFFCURVE",
"388 389 OFFCURVE",
"370 315 CURVE",
"404 311 OFFCURVE",
"429 332 OFFCURVE",
"423 368 CURVE SMOOTH",
"410 448 OFFCURVE",
"349 509 OFFCURVE",
"248 509 CURVE SMOOTH",
"136 509 OFFCURVE",
"63 432 OFFCURVE",
"71 354 CURVE SMOOTH",
"78 273 OFFCURVE",
"128 255 OFFCURVE",
"243 233 CURVE SMOOTH",
"329 215 OFFCURVE",
"391 200 OFFCURVE",
"394 155 CURVE SMOOTH",
"398 97 OFFCURVE",
"329 40 OFFCURVE",
"248 40 CURVE SMOOTH",
"170 40 OFFCURVE",
"83 102 OFFCURVE",
"103 183 CURVE",
"63 187 OFFCURVE",
"46 162 OFFCURVE",
"52 130 CURVE SMOOTH",
"66 50 OFFCURVE",
"150 -9 OFFCURVE",
"248 -9 CURVE SMOOTH"
);
}
);
};
layerId = "671CEF0C-3804-4AAB-8F09-7652EF8CF253";
paths = (
{
closed = 1;
nodes = (
"403 -9 OFFCURVE",
"491 41 OFFCURVE",
"491 139 CURVE SMOOTH",
"491 233 OFFCURVE",
"428 276 OFFCURVE",
"275 309 CURVE SMOOTH",
"208 323 OFFCURVE",
"177 335 OFFCURVE",
"177 365 CURVE SMOOTH",
"177 392 OFFCURVE",
"211 405 OFFCURVE",
"256 405 CURVE SMOOTH",
"315 405 OFFCURVE",
"349 378 OFFCURVE",
"346 323 CURVE",
"412 303 OFFCURVE",
"472 326 OFFCURVE",
"472 382 CURVE SMOOTH",
"472 457 OFFCURVE",
"362 509 OFFCURVE",
"256 509 CURVE SMOOTH",
"142 509 OFFCURVE",
"49 453 OFFCURVE",
"49 365 CURVE SMOOTH",
"49 269 OFFCURVE",
"120 230 OFFCURVE",
"251 197 CURVE SMOOTH",
"347 173 OFFCURVE",
"363 163 OFFCURVE",
"363 136 CURVE SMOOTH",
"363 110 OFFCURVE",
"334 95 OFFCURVE",
"273 95 CURVE SMOOTH",
"207 95 OFFCURVE",
"154 125 OFFCURVE",
"161 192 CURVE",
"95 211 OFFCURVE",
"33 189 OFFCURVE",
"33 134 CURVE SMOOTH",
"33 49 OFFCURVE",
"153 -9 OFFCURVE",
"273 -9 CURVE SMOOTH"
);
}
);
width = 518;
}
);
leftKerningGroup = s;
note = s;
rightKerningGroup = s;
unicode = 0073;
},
{
color = 6;
glyphname = t;
lastChange = "2018-05-04 05:00:27 +0000";
layers = (
{
anchors = (
{
name = bottom;
position = "{233, 0}";
},
{
name = center;
position = "{186, 235}";
},
{
name = top;
position = "{186, 610}";
},
{
name = topright;
position = "{346, 470}";
}
);
layerId = "0B1DFD06-3317-40CA-B510-4969A0718C16";
paths = (
{
closed = 1;
nodes = (
"298 -9 OFFCURVE",
"326 13 OFFCURVE",
"326 35 CURVE SMOOTH",
"326 44 OFFCURVE",
"324 51 OFFCURVE",
"320 58 CURVE",
"306 49 OFFCURVE",
"282 40 OFFCURVE",
"258 40 CURVE SMOOTH",
"202 40 OFFCURVE",
"184 64 OFFCURVE",
"184 121 CURVE SMOOTH",
"184 450 LINE",
"269 450 LINE SMOOTH",
"299 450 OFFCURVE",
"317 468 OFFCURVE",
"317 499 CURVE",
"184 499 LINE",
"184 659 LINE",
"149 659 OFFCURVE",
"130 641 OFFCURVE",
"130 606 CURVE SMOOTH",
"130 499 LINE",
"93 499 LINE SMOOTH",
"62 499 OFFCURVE",
"45 481 OFFCURVE",
"45 450 CURVE",
"130 450 LINE",
"130 119 LINE SMOOTH",
"130 44 OFFCURVE",
"167 -9 OFFCURVE",
"255 -9 CURVE SMOOTH"
);
}
);
width = 371;
},
{
anchors = (
{
name = bottom;
position = "{270, 0}";
},
{
name = center;
position = "{223, 235}";
},
{
name = top;
position = "{223, 627}";
},
{
name = topright;
position = "{383, 470}";
}
);
background = {
paths = (
{
closed = 1;
nodes = (
"221 460 LINE",
"306 460 LINE SMOOTH",
"336 460 OFFCURVE",
"354 478 OFFCURVE",
"354 509 CURVE",
"221 509 LINE",
"221 659 LINE",
"186 659 OFFCURVE",
"167 641 OFFCURVE",
"167 606 CURVE SMOOTH",
"167 509 LINE",
"130 509 LINE SMOOTH",
"99 509 OFFCURVE",
"82 491 OFFCURVE",
"82 460 CURVE",
"167 460 LINE",
"167 119 LINE SMOOTH",
"167 44 OFFCURVE",
"204 -9 OFFCURVE",
"292 -9 CURVE SMOOTH",
"335 -9 OFFCURVE",
"363 13 OFFCURVE",
"363 35 CURVE SMOOTH",
"363 44 OFFCURVE",
"361 51 OFFCURVE",
"357 58 CURVE",
"343 49 OFFCURVE",
"319 40 OFFCURVE",
"295 40 CURVE SMOOTH",
"239 40 OFFCURVE",
"221 64 OFFCURVE",
"221 121 CURVE SMOOTH"
);
}
);
};
layerId = "671CEF0C-3804-4AAB-8F09-7652EF8CF253";
paths = (
{
closed = 1;
nodes = (
"392 -9 OFFCURVE",
"432 36 OFFCURVE",
"432 74 CURVE SMOOTH",
"432 94 OFFCURVE",
"423 116 OFFCURVE",
"408 129 CURVE",
"382 115 OFFCURVE",
"360 109 OFFCURVE",
"336 109 CURVE SMOOTH",
"293 109 OFFCURVE",
"278 127 OFFCURVE",
"278 171 CURVE SMOOTH",
"278 398 LINE",
"323 398 LINE SMOOTH",
"384 398 OFFCURVE",
"409 426 OFFCURVE",
"409 499 CURVE",
"276 499 LINE",
"276 659 LINE",
"189 659 OFFCURVE",
"143 638 OFFCURVE",
"143 579 CURVE SMOOTH",
"143 499 LINE",
"104 499 LINE SMOOTH",
"65 499 OFFCURVE",
"35 469 OFFCURVE",
"35 398 CURVE",
"141 398 LINE",
"141 166 LINE SMOOTH",
"141 72 OFFCURVE",
"186 -9 OFFCURVE",
"306 -9 CURVE SMOOTH"
);
}
);
width = 465;
}
);
note = t;
unicode = 0074;
},
{
color = 6;
glyphname = u;
lastChange = "2018-05-04 09:25:09 +0000";
layers = (
{
anchors = (
{
name = bottom;
position = "{274, 0}";
},
{
name = ogonek;
position = "{503, 10}";
},
{
name = top;
position = "{274, 509}";
},
{
name = topright;
position = "{452, 393}";
}
);
background = {
paths = (
{
closed = 1;
nodes = (
"337 -9 OFFCURVE",
"398 19 OFFCURVE",
"433 63 CURVE",
"435 59 LINE",
"430 53 OFFCURVE",
"421 43 OFFCURVE",
"415 38 CURVE",
"415 -9 LINE",
"451 -9 OFFCURVE",
"468 9 OFFCURVE",
"468 44 CURVE SMOOTH",
"468 509 LINE",
"433 509 OFFCURVE",
"415 491 OFFCURVE",
"415 455 CURVE SMOOTH",
"415 159 LINE SMOOTH",
"415 96 OFFCURVE",
"353 40 OFFCURVE",
"269 40 CURVE SMOOTH",
"185 40 OFFCURVE",
"124 96 OFFCURVE",
"124 159 CURVE SMOOTH",
"124 509 LINE",
"88 509 OFFCURVE",
"70 491 OFFCURVE",
"70 455 CURVE SMOOTH",
"70 159 LINE SMOOTH",
"70 66 OFFCURVE",
"159 -9 OFFCURVE",
"269 -9 CURVE SMOOTH"
);
}
);
};
layerId = "0B1DFD06-3317-40CA-B510-4969A0718C16";
paths = (
{
closed = 1;
nodes = (
"432 509 OFFCURVE",
"414 491 OFFCURVE",
"414 456 CURVE SMOOTH",
"414 160 LINE SMOOTH",
"414 96 OFFCURVE",
"336 40 OFFCURVE",
"256 40 CURVE SMOOTH",
"165 40 OFFCURVE",
"124 93 OFFCURVE",
"124 165 CURVE SMOOTH",
"124 509 LINE",
"88 509 OFFCURVE",
"70 491 OFFCURVE",
"70 456 CURVE SMOOTH",
"70 165 LINE SMOOTH",
"70 67 OFFCURVE",
"135 -9 OFFCURVE",
"253 -9 CURVE SMOOTH",
"328 -9 OFFCURVE",
"394 35 OFFCURVE",
"432 85 CURVE",
"434 80 LINE",
"429 74 OFFCURVE",
"422 65 OFFCURVE",
"416 59 CURVE",
"416 -9 LINE",
"452 -9 OFFCURVE",
"468 9 OFFCURVE",
"468 45 CURVE SMOOTH",
"468 509 LINE"
);
}
);
width = 548;
},
{
anchors = (
{
name = bottom;
position = "{286, 0}";
},
{
name = ogonek;
position = "{496, 10}";
},
{
name = top;
position = "{286, 509}";
},
{
name = topright;
position = "{518, 393}";
}
);
background = {
paths = (
{
closed = 1;
nodes = (
"330 -9 OFFCURVE",
"391 19 OFFCURVE",
"426 63 CURVE",
"428 59 LINE",
"423 53 OFFCURVE",
"414 43 OFFCURVE",
"408 38 CURVE",
"408 -9 LINE",
"444 -9 OFFCURVE",
"461 9 OFFCURVE",
"461 44 CURVE SMOOTH",
"461 509 LINE",
"426 509 OFFCURVE",
"408 491 OFFCURVE",
"408 455 CURVE SMOOTH",
"408 159 LINE SMOOTH",
"408 96 OFFCURVE",
"346 40 OFFCURVE",
"262 40 CURVE SMOOTH",
"178 40 OFFCURVE",
"117 96 OFFCURVE",
"117 159 CURVE SMOOTH",
"117 509 LINE",
"81 509 OFFCURVE",
"63 491 OFFCURVE",
"63 455 CURVE SMOOTH",
"63 159 LINE SMOOTH",
"63 66 OFFCURVE",
"152 -9 OFFCURVE",
"262 -9 CURVE SMOOTH"
);
}
);
};
layerId = "671CEF0C-3804-4AAB-8F09-7652EF8CF253";
paths = (
{
closed = 1;
nodes = (
"417 509 OFFCURVE",
"371 488 OFFCURVE",
"371 429 CURVE SMOOTH",
"371 218 LINE SMOOTH",
"371 156 OFFCURVE",
"335 109 OFFCURVE",
"269 109 CURVE SMOOTH",
"212 109 OFFCURVE",
"183 140 OFFCURVE",
"183 187 CURVE SMOOTH",
"183 509 LINE",
"92 509 OFFCURVE",
"46 488 OFFCURVE",
"46 429 CURVE SMOOTH",
"46 177 LINE SMOOTH",
"46 67 OFFCURVE",
"125 -9 OFFCURVE",
"225 -9 CURVE SMOOTH",
"302 -9 OFFCURVE",
"356 28 OFFCURVE",
"395 88 CURVE",
"402 84 LINE",
"395 72 OFFCURVE",
"386 60 OFFCURVE",
"377 50 CURVE",
"377 -9 LINE",
"466 -9 OFFCURVE",
"508 30 OFFCURVE",
"508 95 CURVE SMOOTH",
"508 509 LINE"
);
}
);
width = 563;
}
);
note = u;
unicode = 0075;
},
{
color = 6;
glyphname = v;
lastChange = "2018-04-30 06:32:43 +0000";
layers = (
{
anchors = (
{
name = bottom;
position = "{281, 0}";
},
{
name = top;
position = "{281, 509}";
}
);
layerId = "0B1DFD06-3317-40CA-B510-4969A0718C16";
paths = (
{
closed = 1;
nodes = (
"291 -9 OFFCURVE",
"301 -1 OFFCURVE",
"304 7 CURVE SMOOTH",
"506 504 LINE",
"499 507 OFFCURVE",
"491 509 OFFCURVE",
"483 509 CURVE SMOOTH",
"463 509 OFFCURVE",
"449 499 OFFCURVE",
"441 478 CURVE SMOOTH",
"269 41 LINE",
"266 43 LINE",
"278 77 LINE",
"120 478 LINE SMOOTH",
"112 499 OFFCURVE",
"98 509 OFFCURVE",
"78 509 CURVE SMOOTH",
"70 509 OFFCURVE",
"62 507 OFFCURVE",
"55 504 CURVE",
"257 7 LINE SMOOTH",
"260 -1 OFFCURVE",
"270 -9 OFFCURVE",
"281 -9 CURVE SMOOTH"
);
}
);
width = 561;
},
{
anchors = (
{
name = bottom;
position = "{296, 0}";
},
{
name = top;
position = "{296, 509}";
}
);
layerId = "671CEF0C-3804-4AAB-8F09-7652EF8CF253";
paths = (
{
closed = 1;
nodes = (
"321 -9 OFFCURVE",
"348 8 OFFCURVE",
"359 36 CURVE SMOOTH",
"535 498 LINE",
"524 505 OFFCURVE",
"490 509 OFFCURVE",
"476 509 CURVE SMOOTH",
"437 509 OFFCURVE",
"397 494 OFFCURVE",
"385 459 CURVE SMOOTH",
"270 111 LINE",
"261 114 LINE",
"278 163 LINE",
"185 459 LINE SMOOTH",
"174 494 OFFCURVE",
"133 509 OFFCURVE",
"94 509 CURVE SMOOTH",
"80 509 OFFCURVE",
"46 505 OFFCURVE",
"35 498 CURVE",
"211 36 LINE SMOOTH",
"222 8 OFFCURVE",
"249 -9 OFFCURVE",
"285 -9 CURVE SMOOTH"
);
}
);
width = 570;
}
);
note = v;
unicode = 0076;
},
{
color = 6;
glyphname = w;
lastChange = "2018-05-03 08:10:56 +0000";
layers = (
{
anchors = (
{
name = bottom;
position = "{370, 0}";
},
{
name = top;
position = "{370, 509}";
}
);
layerId = "0B1DFD06-3317-40CA-B510-4969A0718C16";
paths = (
{
closed = 1;
nodes = (
"367 419 LINE",
"359 449 LINE",
"362 450 LINE",
"497 -9 LINE",
"524 -9 OFFCURVE",
"540 6 OFFCURVE",
"547 31 CURVE SMOOTH",
"684 504 LINE",
"677 507 OFFCURVE",
"670 509 OFFCURVE",
"662 509 CURVE SMOOTH",
"642 509 OFFCURVE",
"629 501 OFFCURVE",
"623 478 CURVE SMOOTH",
"506 57 LINE",
"502 59 LINE",
"510 90 LINE",
"395 490 LINE SMOOTH",
"391 503 OFFCURVE",
"380 509 OFFCURVE",
"370 509 CURVE SMOOTH",
"359 509 OFFCURVE",
"349 503 OFFCURVE",
"345 490 CURVE SMOOTH",
"219 57 LINE",
"215 59 LINE",
"223 90 LINE",
"116 478 LINE SMOOTH",
"110 501 OFFCURVE",
"97 509 OFFCURVE",
"77 509 CURVE SMOOTH",
"69 509 OFFCURVE",
"62 507 OFFCURVE",
"55 504 CURVE",
"192 31 LINE SMOOTH",
"199 6 OFFCURVE",
"216 -9 OFFCURVE",
"242 -9 CURVE"
);
}
);
width = 739;
},
{
anchors = (
{
name = bottom;
position = "{360, 0}";
},
{
name = top;
position = "{360, 509}";
}
);
layerId = "671CEF0C-3804-4AAB-8F09-7652EF8CF253";
paths = (
{
closed = 1;
nodes = (
"369 335 LINE",
"357 381 LINE",
"363 383 LINE",
"459 -9 LINE",
"526 -9 OFFCURVE",
"585 18 OFFCURVE",
"598 68 CURVE SMOOTH",
"709 497 LINE",
"697 504 OFFCURVE",
"670 509 OFFCURVE",
"648 509 CURVE SMOOTH",
"604 509 OFFCURVE",
"572 487 OFFCURVE",
"565 457 CURVE SMOOTH",
"495 136 LINE",
"488 138 LINE",
"504 201 LINE",
"440 464 LINE SMOOTH",
"434 489 OFFCURVE",
"410 509 OFFCURVE",
"372 509 CURVE SMOOTH",
"335 509 OFFCURVE",
"313 489 OFFCURVE",
"306 464 CURVE SMOOTH",
"222 147 LINE",
"215 149 LINE",
"229 209 LINE",
"179 457 LINE SMOOTH",
"173 487 OFFCURVE",
"140 509 OFFCURVE",
"96 509 CURVE SMOOTH",
"75 509 OFFCURVE",
"47 504 OFFCURVE",
"35 497 CURVE",
"147 68 LINE SMOOTH",
"160 18 OFFCURVE",
"209 -9 OFFCURVE",
"277 -9 CURVE"
);
}
);
width = 744;
}
);
note = w;
unicode = 0077;
},
{
color = 6;
glyphname = x;
lastChange = "2018-04-30 06:32:43 +0000";
layers = (
{
anchors = (
{
name = bottom;
position = "{276, 0}";
},
{
name = top;
position = "{276, 509}";
}
);
layerId = "0B1DFD06-3317-40CA-B510-4969A0718C16";
paths = (
{
closed = 1;
nodes = (
"101 -9 OFFCURVE",
"113 -2 OFFCURVE",
"123 13 CURVE SMOOTH",
"276 228 LINE",
"429 13 LINE SMOOTH",
"440 -2 OFFCURVE",
"453 -9 OFFCURVE",
"467 -9 CURVE SMOOTH",
"477 -9 OFFCURVE",
"487 -4 OFFCURVE",
"497 4 CURVE",
"307 267 LINE",
"474 497 LINE",
"463 505 OFFCURVE",
"452 509 OFFCURVE",
"442 509 CURVE SMOOTH",
"429 509 OFFCURVE",
"415 502 OFFCURVE",
"404 486 CURVE SMOOTH",
"259 284 LINE",
"255 286 LINE",
"273 311 LINE",
"148 486 LINE SMOOTH",
"137 501 OFFCURVE",
"124 509 OFFCURVE",
"111 509 CURVE SMOOTH",
"101 509 OFFCURVE",
"90 505 OFFCURVE",
"79 497 CURVE",
"245 267 LINE",
"55 4 LINE",
"67 -5 OFFCURVE",
"78 -9 OFFCURVE",
"88 -9 CURVE SMOOTH"
);
}
);
width = 552;
},
{
anchors = (
{
name = bottom;
position = "{276, 0}";
},
{
name = top;
position = "{276, 509}";
}
);
background = {
paths = (
{
closed = 1;
nodes = (
"148 486 LINE SMOOTH",
"137 501 OFFCURVE",
"124 509 OFFCURVE",
"111 509 CURVE SMOOTH",
"101 509 OFFCURVE",
"90 505 OFFCURVE",
"79 497 CURVE",
"245 267 LINE",
"55 4 LINE",
"67 -5 OFFCURVE",
"78 -9 OFFCURVE",
"88 -9 CURVE SMOOTH",
"101 -9 OFFCURVE",
"113 -2 OFFCURVE",
"123 13 CURVE SMOOTH",
"276 228 LINE",
"429 13 LINE SMOOTH",
"440 -2 OFFCURVE",
"453 -9 OFFCURVE",
"467 -9 CURVE SMOOTH",
"477 -9 OFFCURVE",
"487 -4 OFFCURVE",
"497 4 CURVE",
"307 267 LINE",
"474 497 LINE",
"463 505 OFFCURVE",
"452 509 OFFCURVE",
"442 509 CURVE SMOOTH",
"429 509 OFFCURVE",
"415 502 OFFCURVE",
"404 486 CURVE SMOOTH",
"259 284 LINE",
"255 286 LINE",
"273 311 LINE"
);
}
);
};
layerId = "671CEF0C-3804-4AAB-8F09-7652EF8CF253";
paths = (
{
closed = 1;
nodes = (
"127 -9 OFFCURVE",
"151 1 OFFCURVE",
"163 19 CURVE SMOOTH",
"279 183 LINE",
"396 19 LINE SMOOTH",
"408 2 OFFCURVE",
"437 -9 OFFCURVE",
"466 -9 CURVE SMOOTH",
"488 -9 OFFCURVE",
"514 -3 OFFCURVE",
"533 18 CURVE",
"354 257 LINE",
"518 489 LINE",
"506 502 OFFCURVE",
"478 509 OFFCURVE",
"457 509 CURVE SMOOTH",
"417 509 OFFCURVE",
"392 498 OFFCURVE",
"378 477 CURVE SMOOTH",
"260 305 LINE",
"252 311 LINE",
"273 340 LINE",
"181 477 LINE SMOOTH",
"166 499 OFFCURVE",
"146 509 OFFCURVE",
"107 509 CURVE SMOOTH",
"86 509 OFFCURVE",
"53 502 OFFCURVE",
"41 489 CURVE",
"204 257 LINE",
"26 18 LINE",
"45 -3 OFFCURVE",
"75 -9 OFFCURVE",
"98 -9 CURVE SMOOTH"
);
}
);
width = 559;
}
);
note = x;
unicode = 0078;
},
{
color = 6;
glyphname = y;
lastChange = "2018-05-03 08:11:04 +0000";
layers = (
{
anchors = (
{
name = bottom;
position = "{281, 0}";
},
{
name = top;
position = "{281, 509}";
}
);
layerId = "0B1DFD06-3317-40CA-B510-4969A0718C16";
paths = (
{
closed = 1;
nodes = (
"193 -208 OFFCURVE",
"241 -146 OFFCURVE",
"279 -53 CURVE SMOOTH",
"506 504 LINE",
"498 507 OFFCURVE",
"489 509 OFFCURVE",
"482 509 CURVE SMOOTH",
"460 509 OFFCURVE",
"448 496 OFFCURVE",
"441 478 CURVE SMOOTH",
"269 45 LINE",
"265 47 LINE",
"278 81 LINE",
"120 478 LINE SMOOTH",
"113 496 OFFCURVE",
"98 508 OFFCURVE",
"79 509 CURVE SMOOTH",
"72 509 OFFCURVE",
"63 507 OFFCURVE",
"55 504 CURVE",
"254 15 LINE",
"232 -38 LINE SMOOTH",
"197 -123 OFFCURVE",
"163 -167 OFFCURVE",
"92 -167 CURVE SMOOTH",
"79 -167 OFFCURVE",
"68 -166 OFFCURVE",
"56 -164 CURVE",
"59 -192 OFFCURVE",
"74 -208 OFFCURVE",
"104 -208 CURVE SMOOTH"
);
}
);
width = 561;
},
{
anchors = (
{
name = bottom;
position = "{289, 16}";
},
{
name = top;
position = "{289, 509}";
}
);
background = {
paths = (
{
closed = 1;
nodes = (
"201 -208 OFFCURVE",
"249 -146 OFFCURVE",
"287 -53 CURVE SMOOTH",
"514 504 LINE",
"506 507 OFFCURVE",
"497 509 OFFCURVE",
"490 509 CURVE SMOOTH",
"468 509 OFFCURVE",
"456 496 OFFCURVE",
"449 478 CURVE SMOOTH",
"277 45 LINE",
"273 47 LINE",
"286 81 LINE",
"128 478 LINE SMOOTH",
"121 496 OFFCURVE",
"106 508 OFFCURVE",
"87 509 CURVE SMOOTH",
"80 509 OFFCURVE",
"71 507 OFFCURVE",
"63 504 CURVE",
"262 15 LINE",
"240 -38 LINE SMOOTH",
"205 -123 OFFCURVE",
"171 -167 OFFCURVE",
"100 -167 CURVE SMOOTH",
"87 -167 OFFCURVE",
"76 -166 OFFCURVE",
"64 -164 CURVE",
"67 -192 OFFCURVE",
"82 -208 OFFCURVE",
"112 -208 CURVE SMOOTH"
);
}
);
};
layerId = "671CEF0C-3804-4AAB-8F09-7652EF8CF253";
paths = (
{
closed = 1;
nodes = (
"228 -209 OFFCURVE",
"279 -153 OFFCURVE",
"324 -44 CURVE SMOOTH",
"547 498 LINE",
"536 505 OFFCURVE",
"502 509 OFFCURVE",
"488 509 CURVE SMOOTH",
"449 509 OFFCURVE",
"409 494 OFFCURVE",
"395 459 CURVE SMOOTH",
"273 146 LINE",
"264 149 LINE",
"281 198 LINE",
"183 459 LINE SMOOTH",
"170 493 OFFCURVE",
"129 509 OFFCURVE",
"90 509 CURVE SMOOTH",
"76 509 OFFCURVE",
"42 505 OFFCURVE",
"31 498 CURVE",
"223 30 LINE",
"208 -4 LINE SMOOTH",
"173 -83 OFFCURVE",
"151 -99 OFFCURVE",
"104 -99 CURVE SMOOTH",
"87 -99 OFFCURVE",
"70 -97 OFFCURVE",
"51 -93 CURVE",
"51 -171 OFFCURVE",
"87 -209 OFFCURVE",
"141 -209 CURVE SMOOTH"
);
}
);
width = 578;
}
);
note = y;
unicode = 0079;
},
{
color = 6;
glyphname = z;
lastChange = "2018-04-30 06:32:43 +0000";
layers = (
{
anchors = (
{
name = bottom;
position = "{258, 0}";
},
{
name = top;
position = "{258, 509}";
}
);
layerId = "0B1DFD06-3317-40CA-B510-4969A0718C16";
paths = (
{
closed = 1;
nodes = (
"461 0 LINE",
"461 29 OFFCURVE",
"443 47 OFFCURVE",
"412 47 CURVE SMOOTH",
"131 47 LINE",
"114 27 LINE",
"110 29 LINE",
"450 457 LINE SMOOTH",
"464 475 OFFCURVE",
"455 500 OFFCURVE",
"430 500 CURVE SMOOTH",
"65 500 LINE",
"65 471 OFFCURVE",
"83 453 OFFCURVE",
"114 453 CURVE SMOOTH",
"382 453 LINE",
"401 476 LINE",
"404 474 LINE",
"61 42 LINE SMOOTH",
"47 24 OFFCURVE",
"61 0 OFFCURVE",
"82 0 CURVE SMOOTH"
);
}
);
width = 516;
},
{
anchors = (
{
name = bottom;
position = "{259, 0}";
},
{
name = top;
position = "{259, 509}";
}
);
layerId = "671CEF0C-3804-4AAB-8F09-7652EF8CF253";
paths = (
{
closed = 1;
nodes = (
"495 0 LINE",
"495 57 OFFCURVE",
"471 101 OFFCURVE",
"420 101 CURVE SMOOTH",
"222 101 LINE",
"191 67 LINE",
"184 73 LINE",
"482 413 LINE SMOOTH",
"508 442 OFFCURVE",
"494 499 OFFCURVE",
"444 499 CURVE SMOOTH",
"53 499 LINE",
"53 442 OFFCURVE",
"77 398 OFFCURVE",
"129 398 CURVE SMOOTH",
"307 398 LINE",
"338 431 LINE",
"344 426 LINE",
"46 86 LINE SMOOTH",
"22 59 OFFCURVE",
"39 0 OFFCURVE",
"85 0 CURVE SMOOTH"
);
}
);
width = 530;
}
);
note = z;
unicode = 007A;
},
{
color = 6;
glyphname = AE;
lastChange = "2018-05-04 06:25:07 +0000";
layers = (
{
anchors = (
{
name = bottom;
position = "{501, 0}";
},
{
name = ogonek;
position = "{630, 10}";
},
{
name = top;
position = "{498, 700}";
},
{
name = topleft;
position = "{716, 700}";
}
);
layerId = "0B1DFD06-3317-40CA-B510-4969A0718C16";
paths = (
{
closed = 1;
nodes = (
"46 37 OFFCURVE",
"62 3 OFFCURVE",
"93 -9 CURVE",
"197 218 LINE",
"398 218 LINE",
"398 29 LINE SMOOTH",
"398 13 OFFCURVE",
"410 0 OFFCURVE",
"428 0 CURVE SMOOTH",
"844 0 LINE",
"844 35 OFFCURVE",
"826 53 OFFCURVE",
"791 53 CURVE SMOOTH",
"457 53 LINE",
"457 326 LINE",
"650 326 LINE SMOOTH",
"686 326 OFFCURVE",
"704 344 OFFCURVE",
"704 379 CURVE",
"457 379 LINE",
"457 647 LINE",
"770 647 LINE SMOOTH",
"806 647 OFFCURVE",
"824 665 OFFCURVE",
"824 700 CURVE",
"384 700 LINE SMOOTH",
"370 700 OFFCURVE",
"362 694 OFFCURVE",
"356 682 CURVE SMOOTH",
"61 68 LINE SMOOTH"
);
},
{
closed = 1;
nodes = (
"398 653 LINE",
"398 272 LINE",
"217 272 LINE"
);
}
);
width = 899;
},
{
anchors = (
{
name = bottom;
position = "{501, 0}";
},
{
name = ogonek;
position = "{630, 10}";
},
{
name = top;
position = "{498, 700}";
},
{
name = topleft;
position = "{716, 700}";
}
);
layerId = "671CEF0C-3804-4AAB-8F09-7652EF8CF253";
paths = (
{
closed = 1;
nodes = (
"14 75 OFFCURVE",
"42 0 OFFCURVE",
"137 -9 CURVE",
"221 174 LINE",
"373 174 LINE",
"373 67 LINE SMOOTH",
"373 28 OFFCURVE",
"407 0 OFFCURVE",
"447 0 CURVE SMOOTH",
"874 0 LINE",
"874 78 OFFCURVE",
"853 126 OFFCURVE",
"782 126 CURVE SMOOTH",
"520 126 LINE",
"520 290 LINE",
"649 290 LINE SMOOTH",
"721 290 OFFCURVE",
"742 337 OFFCURVE",
"742 416 CURVE",
"520 416 LINE",
"520 574 LINE",
"761 574 LINE SMOOTH",
"833 574 OFFCURVE",
"854 621 OFFCURVE",
"854 700 CURVE",
"365 700 LINE SMOOTH",
"327 700 OFFCURVE",
"291 683 OFFCURVE",
"277 650 CURVE SMOOTH",
"51 157 LINE SMOOTH"
);
},
{
closed = 1;
nodes = (
"373 537 LINE",
"373 300 LINE",
"265 300 LINE"
);
}
);
width = 909;
}
);
leftKerningGroup = A;
note = AE;
rightKerningGroup = E;
unicode = 00C6;
},
{
color = 6;
glyphname = Eth;
lastChange = "2018-05-04 06:32:10 +0000";
layers = (
{
components = (
{
name = D;
transform = "{1, 0, 0, 1, 62, 0}";
}
);
layerId = "0B1DFD06-3317-40CA-B510-4969A0718C16";
paths = (
{
closed = 1;
nodes = (
"353 310 LINE SMOOTH",
"388 310 OFFCURVE",
"403 328 OFFCURVE",
"403 363 CURVE",
"105 363 LINE SMOOTH",
"70 363 OFFCURVE",
"55 346 OFFCURVE",
"55 310 CURVE"
);
}
);
width = 764;
},
{
components = (
{
name = D;
transform = "{1, 0, 0, 1, 62, 0}";
}
);
layerId = "671CEF0C-3804-4AAB-8F09-7652EF8CF253";
paths = (
{
closed = 1;
nodes = (
"363 290 LINE SMOOTH",
"398 290 OFFCURVE",
"423 328 OFFCURVE",
"423 383 CURVE",
"95 383 LINE SMOOTH",
"60 383 OFFCURVE",
"35 346 OFFCURVE",
"35 290 CURVE"
);
}
);
width = 764;
}
);
note = Eth;
rightKerningGroup = D;
unicode = 00D0;
},
{
color = 6;
glyphname = Dcroat;
lastChange = "2018-05-04 06:32:18 +0000";
layers = (
{
components = (
{
name = D;
transform = "{1, 0, 0, 1, 65, 0}";
}
);
layerId = "0B1DFD06-3317-40CA-B510-4969A0718C16";
paths = (
{
closed = 1;
nodes = (
"353 310 LINE SMOOTH",
"388 310 OFFCURVE",
"403 328 OFFCURVE",
"403 363 CURVE",
"105 363 LINE SMOOTH",
"70 363 OFFCURVE",
"55 346 OFFCURVE",
"55 310 CURVE"
);
}
);
width = 767;
},
{
components = (
{
name = D;
transform = "{1, 0, 0, 1, 65, 0}";
}
);
layerId = "671CEF0C-3804-4AAB-8F09-7652EF8CF253";
paths = (
{
closed = 1;
nodes = (
"363 290 LINE SMOOTH",
"398 290 OFFCURVE",
"423 328 OFFCURVE",
"423 383 CURVE",
"95 383 LINE SMOOTH",
"60 383 OFFCURVE",
"35 346 OFFCURVE",
"35 290 CURVE"
);
}
);
width = 767;
}
);
note = Dcroat;
rightKerningGroup = D;
unicode = 0110;
},
{
color = 6;
glyphname = Eacute;
lastChange = "2018-05-03 08:04:38 +0000";
layers = (
{
background = {
paths = (
{
closed = 1;
nodes = (
"554 0 LINE",
"571 179 LINE",
"544 179 LINE",
"538 124 OFFCURVE",
"520 40 OFFCURVE",
"456 40 CURVE SMOOTH",
"201 40 LINE",
"201 659 LINE",
"441 659 LINE SMOOTH",
"516 659 OFFCURVE",
"525 567 OFFCURVE",
"528 527 CURVE",
"555 527 LINE",
"555 700 LINE",
"16 700 LINE",
"16 673 LINE",
"44 673 LINE SMOOTH",
"83 673 OFFCURVE",
"103 662 OFFCURVE",
"103 637 CURVE SMOOTH",
"103 62 LINE SMOOTH",
"103 37 OFFCURVE",
"83 26 OFFCURVE",
"44 26 CURVE SMOOTH",
"16 26 LINE",
"16 0 LINE"
);
},
{
closed = 1;
nodes = (
"455 251 LINE",
"455 485 LINE",
"431 485 LINE",
"427 436 OFFCURVE",
"424 388 OFFCURVE",
"379 388 CURVE SMOOTH",
"162 388 LINE",
"162 348 LINE",
"379 348 LINE SMOOTH",
"424 348 OFFCURVE",
"427 300 OFFCURVE",
"431 251 CURVE"
);
},
{
closed = 1;
nodes = (
"398 865 LINE SMOOTH",
"420 877 OFFCURVE",
"432 890 OFFCURVE",
"432 907 CURVE SMOOTH",
"432 922 OFFCURVE",
"420 937 OFFCURVE",
"398 937 CURVE SMOOTH",
"377 937 OFFCURVE",
"362 921 OFFCURVE",
"354 914 CURVE SMOOTH",
"239 807 LINE",
"256 782 LINE"
);
}
);
};
components = (
{
name = E;
},
{
name = acutecomb;
transform = "{1, 0, 0, 1, 227, 230}";
}
);
layerId = "0B1DFD06-3317-40CA-B510-4969A0718C16";
width = 626;
},
{
background = {
paths = (
{
closed = 1;
nodes = (
"554 0 LINE",
"571 179 LINE",
"544 179 LINE",
"538 124 OFFCURVE",
"520 40 OFFCURVE",
"456 40 CURVE SMOOTH",
"201 40 LINE",
"201 659 LINE",
"441 659 LINE SMOOTH",
"516 659 OFFCURVE",
"525 567 OFFCURVE",
"528 527 CURVE",
"555 527 LINE",
"555 700 LINE",
"16 700 LINE",
"16 673 LINE",
"44 673 LINE SMOOTH",
"83 673 OFFCURVE",
"103 662 OFFCURVE",
"103 637 CURVE SMOOTH",
"103 62 LINE SMOOTH",
"103 37 OFFCURVE",
"83 26 OFFCURVE",
"44 26 CURVE SMOOTH",
"16 26 LINE",
"16 0 LINE"
);
},
{
closed = 1;
nodes = (
"455 251 LINE",
"455 485 LINE",
"431 485 LINE",
"427 436 OFFCURVE",
"424 388 OFFCURVE",
"379 388 CURVE SMOOTH",
"162 388 LINE",
"162 348 LINE",
"379 348 LINE SMOOTH",
"424 348 OFFCURVE",
"427 300 OFFCURVE",
"431 251 CURVE"
);
},
{
closed = 1;
nodes = (
"398 865 LINE SMOOTH",
"420 877 OFFCURVE",
"432 890 OFFCURVE",
"432 907 CURVE SMOOTH",
"432 922 OFFCURVE",
"420 937 OFFCURVE",
"398 937 CURVE SMOOTH",
"377 937 OFFCURVE",
"362 921 OFFCURVE",
"354 914 CURVE SMOOTH",
"239 807 LINE",
"256 782 LINE"
);
}
);
};
components = (
{
name = E;
},
{
name = acutecomb;
transform = "{1, 0, 0, 1, 236, 230}";
}
);
layerId = "671CEF0C-3804-4AAB-8F09-7652EF8CF253";
width = 636;
}
);
note = Eacute;
rightKerningGroup = E;
unicode = 00C9;
},
{
color = 6;
glyphname = Ebreve;
lastChange = "2018-05-04 06:13:51 +0000";
layers = (
{
background = {
paths = (
{
closed = 1;
nodes = (
"554 0 LINE",
"571 179 LINE",
"544 179 LINE",
"538 124 OFFCURVE",
"520 40 OFFCURVE",
"456 40 CURVE SMOOTH",
"201 40 LINE",
"201 659 LINE",
"441 659 LINE SMOOTH",
"516 659 OFFCURVE",
"525 567 OFFCURVE",
"528 527 CURVE",
"555 527 LINE",
"555 700 LINE",
"16 700 LINE",
"16 673 LINE",
"44 673 LINE SMOOTH",
"83 673 OFFCURVE",
"103 662 OFFCURVE",
"103 637 CURVE SMOOTH",
"103 62 LINE SMOOTH",
"103 37 OFFCURVE",
"83 26 OFFCURVE",
"44 26 CURVE SMOOTH",
"16 26 LINE",
"16 0 LINE"
);
},
{
closed = 1;
nodes = (
"455 251 LINE",
"455 485 LINE",
"431 485 LINE",
"427 436 OFFCURVE",
"424 388 OFFCURVE",
"379 388 CURVE SMOOTH",
"162 388 LINE",
"162 348 LINE",
"379 348 LINE SMOOTH",
"424 348 OFFCURVE",
"427 300 OFFCURVE",
"431 251 CURVE"
);
},
{
closed = 1;
nodes = (
"432 776 OFFCURVE",
"474 832 OFFCURVE",
"478 907 CURVE",
"445 907 LINE",
"439 848 OFFCURVE",
"397 822 OFFCURVE",
"333 822 CURVE SMOOTH",
"269 822 OFFCURVE",
"226 848 OFFCURVE",
"219 907 CURVE",
"186 907 LINE",
"190 829 OFFCURVE",
"232 776 OFFCURVE",
"333 776 CURVE SMOOTH"
);
}
);
};
components = (
{
name = E;
},
{
name = brevecomb;
transform = "{1, 0, 0, 1, 311, 230}";
}
);
layerId = "0B1DFD06-3317-40CA-B510-4969A0718C16";
width = 626;
},
{
background = {
paths = (
{
closed = 1;
nodes = (
"554 0 LINE",
"571 179 LINE",
"544 179 LINE",
"538 124 OFFCURVE",
"520 40 OFFCURVE",
"456 40 CURVE SMOOTH",
"201 40 LINE",
"201 659 LINE",
"441 659 LINE SMOOTH",
"516 659 OFFCURVE",
"525 567 OFFCURVE",
"528 527 CURVE",
"555 527 LINE",
"555 700 LINE",
"16 700 LINE",
"16 673 LINE",
"44 673 LINE SMOOTH",
"83 673 OFFCURVE",
"103 662 OFFCURVE",
"103 637 CURVE SMOOTH",
"103 62 LINE SMOOTH",
"103 37 OFFCURVE",
"83 26 OFFCURVE",
"44 26 CURVE SMOOTH",
"16 26 LINE",
"16 0 LINE"
);
},
{
closed = 1;
nodes = (
"455 251 LINE",
"455 485 LINE",
"431 485 LINE",
"427 436 OFFCURVE",
"424 388 OFFCURVE",
"379 388 CURVE SMOOTH",
"162 388 LINE",
"162 348 LINE",
"379 348 LINE SMOOTH",
"424 348 OFFCURVE",
"427 300 OFFCURVE",
"431 251 CURVE"
);
},
{
closed = 1;
nodes = (
"432 776 OFFCURVE",
"474 832 OFFCURVE",
"478 907 CURVE",
"445 907 LINE",
"439 848 OFFCURVE",
"397 822 OFFCURVE",
"333 822 CURVE SMOOTH",
"269 822 OFFCURVE",
"226 848 OFFCURVE",
"219 907 CURVE",
"186 907 LINE",
"190 829 OFFCURVE",
"232 776 OFFCURVE",
"333 776 CURVE SMOOTH"
);
}
);
};
components = (
{
name = E;
},
{
name = brevecomb;
transform = "{1, 0, 0, 1, 310, 230}";
}
);
layerId = "671CEF0C-3804-4AAB-8F09-7652EF8CF253";
width = 636;
}
);
note = Ebreve;
rightKerningGroup = E;
unicode = 0114;
},
{
color = 6;
glyphname = Ecaron;
lastChange = "2018-05-04 05:27:01 +0000";
layers = (
{
background = {
paths = (
{
closed = 1;
nodes = (
"554 0 LINE",
"571 179 LINE",
"544 179 LINE",
"538 124 OFFCURVE",
"520 40 OFFCURVE",
"456 40 CURVE SMOOTH",
"201 40 LINE",
"201 659 LINE",
"441 659 LINE SMOOTH",
"516 659 OFFCURVE",
"525 567 OFFCURVE",
"528 527 CURVE",
"555 527 LINE",
"555 700 LINE",
"16 700 LINE",
"16 673 LINE",
"44 673 LINE SMOOTH",
"83 673 OFFCURVE",
"103 662 OFFCURVE",
"103 637 CURVE SMOOTH",
"103 62 LINE SMOOTH",
"103 37 OFFCURVE",
"83 26 OFFCURVE",
"44 26 CURVE SMOOTH",
"16 26 LINE",
"16 0 LINE"
);
},
{
closed = 1;
nodes = (
"455 251 LINE",
"455 485 LINE",
"431 485 LINE",
"427 436 OFFCURVE",
"424 388 OFFCURVE",
"379 388 CURVE SMOOTH",
"162 388 LINE",
"162 348 LINE",
"379 348 LINE SMOOTH",
"424 348 OFFCURVE",
"427 300 OFFCURVE",
"431 251 CURVE"
);
},
{
closed = 1;
nodes = (
"357 782 LINE",
"481 911 LINE",
"462 932 LINE",
"354 847 LINE",
"346 840 OFFCURVE",
"337 836 OFFCURVE",
"331 836 CURVE SMOOTH",
"325 836 OFFCURVE",
"317 840 OFFCURVE",
"307 847 CURVE",
"199 932 LINE",
"180 911 LINE",
"304 782 LINE"
);
}
);
};
components = (
{
name = E;
},
{
name = caroncomb;
transform = "{1, 0, 0, 1, 312, 230}";
}
);
layerId = "0B1DFD06-3317-40CA-B510-4969A0718C16";
width = 626;
},
{
background = {
paths = (
{
closed = 1;
nodes = (
"554 0 LINE",
"571 179 LINE",
"544 179 LINE",
"538 124 OFFCURVE",
"520 40 OFFCURVE",
"456 40 CURVE SMOOTH",
"201 40 LINE",
"201 659 LINE",
"441 659 LINE SMOOTH",
"516 659 OFFCURVE",
"525 567 OFFCURVE",
"528 527 CURVE",
"555 527 LINE",
"555 700 LINE",
"16 700 LINE",
"16 673 LINE",
"44 673 LINE SMOOTH",
"83 673 OFFCURVE",
"103 662 OFFCURVE",
"103 637 CURVE SMOOTH",
"103 62 LINE SMOOTH",
"103 37 OFFCURVE",
"83 26 OFFCURVE",
"44 26 CURVE SMOOTH",
"16 26 LINE",
"16 0 LINE"
);
},
{
closed = 1;
nodes = (
"455 251 LINE",
"455 485 LINE",
"431 485 LINE",
"427 436 OFFCURVE",
"424 388 OFFCURVE",
"379 388 CURVE SMOOTH",
"162 388 LINE",
"162 348 LINE",
"379 348 LINE SMOOTH",
"424 348 OFFCURVE",
"427 300 OFFCURVE",
"431 251 CURVE"
);
},
{
closed = 1;
nodes = (
"357 782 LINE",
"481 911 LINE",
"462 932 LINE",
"354 847 LINE",
"346 840 OFFCURVE",
"337 836 OFFCURVE",
"331 836 CURVE SMOOTH",
"325 836 OFFCURVE",
"317 840 OFFCURVE",
"307 847 CURVE",
"199 932 LINE",
"180 911 LINE",
"304 782 LINE"
);
}
);
};
components = (
{
name = E;
},
{
name = caroncomb;
transform = "{1, 0, 0, 1, 311, 230}";
}
);
layerId = "671CEF0C-3804-4AAB-8F09-7652EF8CF253";
width = 636;
}
);
note = Ecaron;
rightKerningGroup = E;
unicode = 011A;
},
{
color = 6;
glyphname = Ecircumflex;
lastChange = "2018-05-04 05:30:17 +0000";
layers = (
{
background = {
paths = (
{
closed = 1;
nodes = (
"554 0 LINE",
"571 179 LINE",
"544 179 LINE",
"538 124 OFFCURVE",
"520 40 OFFCURVE",
"456 40 CURVE SMOOTH",
"201 40 LINE",
"201 659 LINE",
"441 659 LINE SMOOTH",
"516 659 OFFCURVE",
"525 567 OFFCURVE",
"528 527 CURVE",
"555 527 LINE",
"555 700 LINE",
"16 700 LINE",
"16 673 LINE",
"44 673 LINE SMOOTH",
"83 673 OFFCURVE",
"103 662 OFFCURVE",
"103 637 CURVE SMOOTH",
"103 62 LINE SMOOTH",
"103 37 OFFCURVE",
"83 26 OFFCURVE",
"44 26 CURVE SMOOTH",
"16 26 LINE",
"16 0 LINE"
);
},
{
closed = 1;
nodes = (
"455 251 LINE",
"455 485 LINE",
"431 485 LINE",
"427 436 OFFCURVE",
"424 388 OFFCURVE",
"379 388 CURVE SMOOTH",
"162 388 LINE",
"162 348 LINE",
"379 348 LINE SMOOTH",
"424 348 OFFCURVE",
"427 300 OFFCURVE",
"431 251 CURVE"
);
},
{
closed = 1;
nodes = (
"304 868 LINE SMOOTH",
"312 874 OFFCURVE",
"322 879 OFFCURVE",
"328 879 CURVE SMOOTH",
"334 879 OFFCURVE",
"342 874 OFFCURVE",
"351 868 CURVE",
"459 782 LINE",
"478 803 LINE",
"354 932 LINE",
"301 932 LINE",
"177 803 LINE",
"196 782 LINE"
);
}
);
};
components = (
{
name = E;
},
{
name = circumflexcomb;
transform = "{1, 0, 0, 1, 312, 230}";
}
);
layerId = "0B1DFD06-3317-40CA-B510-4969A0718C16";
width = 626;
},
{
background = {
paths = (
{
closed = 1;
nodes = (
"554 0 LINE",
"571 179 LINE",
"544 179 LINE",
"538 124 OFFCURVE",
"520 40 OFFCURVE",
"456 40 CURVE SMOOTH",
"201 40 LINE",
"201 659 LINE",
"441 659 LINE SMOOTH",
"516 659 OFFCURVE",
"525 567 OFFCURVE",
"528 527 CURVE",
"555 527 LINE",
"555 700 LINE",
"16 700 LINE",
"16 673 LINE",
"44 673 LINE SMOOTH",
"83 673 OFFCURVE",
"103 662 OFFCURVE",
"103 637 CURVE SMOOTH",
"103 62 LINE SMOOTH",
"103 37 OFFCURVE",
"83 26 OFFCURVE",
"44 26 CURVE SMOOTH",
"16 26 LINE",
"16 0 LINE"
);
},
{
closed = 1;
nodes = (
"455 251 LINE",
"455 485 LINE",
"431 485 LINE",
"427 436 OFFCURVE",
"424 388 OFFCURVE",
"379 388 CURVE SMOOTH",
"162 388 LINE",
"162 348 LINE",
"379 348 LINE SMOOTH",
"424 348 OFFCURVE",
"427 300 OFFCURVE",
"431 251 CURVE"
);
},
{
closed = 1;
nodes = (
"304 868 LINE SMOOTH",
"312 874 OFFCURVE",
"322 879 OFFCURVE",
"328 879 CURVE SMOOTH",
"334 879 OFFCURVE",
"342 874 OFFCURVE",
"351 868 CURVE",
"459 782 LINE",
"478 803 LINE",
"354 932 LINE",
"301 932 LINE",
"177 803 LINE",
"196 782 LINE"
);
}
);
};
components = (
{
name = E;
},
{
name = circumflexcomb;
transform = "{1, 0, 0, 1, 311, 230}";
}
);
layerId = "671CEF0C-3804-4AAB-8F09-7652EF8CF253";
width = 636;
}
);
note = Ecircumflex;
rightKerningGroup = E;
unicode = 00CA;
},
{
color = 6;
glyphname = Ecircumflexacute;
lastChange = "2018-05-04 09:21:21 +0000";
layers = (
{
background = {
paths = (
{
closed = 1;
nodes = (
"554 0 LINE",
"571 179 LINE",
"544 179 LINE",
"538 124 OFFCURVE",
"520 40 OFFCURVE",
"456 40 CURVE SMOOTH",
"201 40 LINE",
"201 659 LINE",
"441 659 LINE SMOOTH",
"516 659 OFFCURVE",
"525 567 OFFCURVE",
"528 527 CURVE",
"555 527 LINE",
"555 700 LINE",
"16 700 LINE",
"16 673 LINE",
"44 673 LINE SMOOTH",
"83 673 OFFCURVE",
"103 662 OFFCURVE",
"103 637 CURVE SMOOTH",
"103 62 LINE SMOOTH",
"103 37 OFFCURVE",
"83 26 OFFCURVE",
"44 26 CURVE SMOOTH",
"16 26 LINE",
"16 0 LINE"
);
},
{
closed = 1;
nodes = (
"455 251 LINE",
"455 485 LINE",
"431 485 LINE",
"427 436 OFFCURVE",
"424 388 OFFCURVE",
"379 388 CURVE SMOOTH",
"162 388 LINE",
"162 348 LINE",
"379 348 LINE SMOOTH",
"424 348 OFFCURVE",
"427 300 OFFCURVE",
"431 251 CURVE"
);
},
{
closed = 1;
nodes = (
"290 862 LINE SMOOTH",
"300 870 OFFCURVE",
"310 878 OFFCURVE",
"318 878 CURVE SMOOTH",
"324 878 OFFCURVE",
"332 873 OFFCURVE",
"341 867 CURVE",
"447 781 LINE",
"466 803 LINE",
"344 932 LINE",
"293 932 LINE",
"171 803 LINE",
"189 781 LINE"
);
},
{
closed = 1;
nodes = (
"555 960 LINE SMOOTH",
"578 972 OFFCURVE",
"591 988 OFFCURVE",
"591 1003 CURVE SMOOTH",
"591 1017 OFFCURVE",
"580 1034 OFFCURVE",
"557 1034 CURVE SMOOTH",
"538 1034 OFFCURVE",
"521 1018 OFFCURVE",
"511 1008 CURVE SMOOTH",
"415 915 LINE",
"433 893 LINE"
);
}
);
};
components = (
{
name = E;
},
{
name = circumflexacute;
transform = "{1, 0, 0, 1, 108, 230}";
}
);
layerId = "0B1DFD06-3317-40CA-B510-4969A0718C16";
width = 626;
},
{
background = {
paths = (
{
closed = 1;
nodes = (
"554 0 LINE",
"571 179 LINE",
"544 179 LINE",
"538 124 OFFCURVE",
"520 40 OFFCURVE",
"456 40 CURVE SMOOTH",
"201 40 LINE",
"201 659 LINE",
"441 659 LINE SMOOTH",
"516 659 OFFCURVE",
"525 567 OFFCURVE",
"528 527 CURVE",
"555 527 LINE",
"555 700 LINE",
"16 700 LINE",
"16 673 LINE",
"44 673 LINE SMOOTH",
"83 673 OFFCURVE",
"103 662 OFFCURVE",
"103 637 CURVE SMOOTH",
"103 62 LINE SMOOTH",
"103 37 OFFCURVE",
"83 26 OFFCURVE",
"44 26 CURVE SMOOTH",
"16 26 LINE",
"16 0 LINE"
);
},
{
closed = 1;
nodes = (
"455 251 LINE",
"455 485 LINE",
"431 485 LINE",
"427 436 OFFCURVE",
"424 388 OFFCURVE",
"379 388 CURVE SMOOTH",
"162 388 LINE",
"162 348 LINE",
"379 348 LINE SMOOTH",
"424 348 OFFCURVE",
"427 300 OFFCURVE",
"431 251 CURVE"
);
},
{
closed = 1;
nodes = (
"290 862 LINE SMOOTH",
"300 870 OFFCURVE",
"310 878 OFFCURVE",
"318 878 CURVE SMOOTH",
"324 878 OFFCURVE",
"332 873 OFFCURVE",
"341 867 CURVE",
"447 781 LINE",
"466 803 LINE",
"344 932 LINE",
"293 932 LINE",
"171 803 LINE",
"189 781 LINE"
);
},
{
closed = 1;
nodes = (
"555 960 LINE SMOOTH",
"578 972 OFFCURVE",
"591 988 OFFCURVE",
"591 1003 CURVE SMOOTH",
"591 1017 OFFCURVE",
"580 1034 OFFCURVE",
"557 1034 CURVE SMOOTH",
"538 1034 OFFCURVE",
"521 1018 OFFCURVE",
"511 1008 CURVE SMOOTH",
"415 915 LINE",
"433 893 LINE"
);
}
);
};
components = (
{
name = E;
},
{
name = circumflexacute;
transform = "{1, 0, 0, 1, 107, 230}";
}
);
layerId = "671CEF0C-3804-4AAB-8F09-7652EF8CF253";
width = 636;
}
);
note = Ecircumflexacute;
rightKerningGroup = E;
unicode = 1EBE;
},
{
color = 6;
glyphname = Ecircumflexdotbelow;
lastChange = "2018-05-04 06:13:07 +0000";
layers = (
{
background = {
paths = (
{
closed = 1;
nodes = (
"554 0 LINE",
"571 179 LINE",
"544 179 LINE",
"538 124 OFFCURVE",
"520 40 OFFCURVE",
"456 40 CURVE SMOOTH",
"201 40 LINE",
"201 659 LINE",
"441 659 LINE SMOOTH",
"516 659 OFFCURVE",
"525 567 OFFCURVE",
"528 527 CURVE",
"555 527 LINE",
"555 700 LINE",
"16 700 LINE",
"16 673 LINE",
"44 673 LINE SMOOTH",
"83 673 OFFCURVE",
"103 662 OFFCURVE",
"103 637 CURVE SMOOTH",
"103 62 LINE SMOOTH",
"103 37 OFFCURVE",
"83 26 OFFCURVE",
"44 26 CURVE SMOOTH",
"16 26 LINE",
"16 0 LINE"
);
},
{
closed = 1;
nodes = (
"350 -159 OFFCURVE",
"368 -140 OFFCURVE",
"368 -112 CURVE SMOOTH",
"368 -84 OFFCURVE",
"350 -64 OFFCURVE",
"322 -64 CURVE SMOOTH",
"294 -64 OFFCURVE",
"275 -84 OFFCURVE",
"275 -112 CURVE SMOOTH",
"275 -140 OFFCURVE",
"294 -159 OFFCURVE",
"322 -159 CURVE SMOOTH"
);
},
{
closed = 1;
nodes = (
"455 251 LINE",
"455 485 LINE",
"431 485 LINE",
"427 436 OFFCURVE",
"424 388 OFFCURVE",
"379 388 CURVE SMOOTH",
"162 388 LINE",
"162 348 LINE",
"379 348 LINE SMOOTH",
"424 348 OFFCURVE",
"427 300 OFFCURVE",
"431 251 CURVE"
);
},
{
closed = 1;
nodes = (
"294 868 LINE SMOOTH",
"302 874 OFFCURVE",
"312 879 OFFCURVE",
"318 879 CURVE SMOOTH",
"324 879 OFFCURVE",
"332 874 OFFCURVE",
"341 868 CURVE",
"449 782 LINE",
"468 803 LINE",
"344 932 LINE",
"291 932 LINE",
"167 803 LINE",
"186 782 LINE"
);
}
);
};
components = (
{
name = E;
},
{
name = dotbelowcomb;
transform = "{1, 0, 0, 1, 214, 0}";
},
{
name = circumflexcomb;
transform = "{1, 0, 0, 1, 312, 230}";
}
);
layerId = "0B1DFD06-3317-40CA-B510-4969A0718C16";
width = 626;
},
{
background = {
paths = (
{
closed = 1;
nodes = (
"554 0 LINE",
"571 179 LINE",
"544 179 LINE",
"538 124 OFFCURVE",
"520 40 OFFCURVE",
"456 40 CURVE SMOOTH",
"201 40 LINE",
"201 659 LINE",
"441 659 LINE SMOOTH",
"516 659 OFFCURVE",
"525 567 OFFCURVE",
"528 527 CURVE",
"555 527 LINE",
"555 700 LINE",
"16 700 LINE",
"16 673 LINE",
"44 673 LINE SMOOTH",
"83 673 OFFCURVE",
"103 662 OFFCURVE",
"103 637 CURVE SMOOTH",
"103 62 LINE SMOOTH",
"103 37 OFFCURVE",
"83 26 OFFCURVE",
"44 26 CURVE SMOOTH",
"16 26 LINE",
"16 0 LINE"
);
},
{
closed = 1;
nodes = (
"350 -159 OFFCURVE",
"368 -140 OFFCURVE",
"368 -112 CURVE SMOOTH",
"368 -84 OFFCURVE",
"350 -64 OFFCURVE",
"322 -64 CURVE SMOOTH",
"294 -64 OFFCURVE",
"275 -84 OFFCURVE",
"275 -112 CURVE SMOOTH",
"275 -140 OFFCURVE",
"294 -159 OFFCURVE",
"322 -159 CURVE SMOOTH"
);
},
{
closed = 1;
nodes = (
"455 251 LINE",
"455 485 LINE",
"431 485 LINE",
"427 436 OFFCURVE",
"424 388 OFFCURVE",
"379 388 CURVE SMOOTH",
"162 388 LINE",
"162 348 LINE",
"379 348 LINE SMOOTH",
"424 348 OFFCURVE",
"427 300 OFFCURVE",
"431 251 CURVE"
);
},
{
closed = 1;
nodes = (
"294 868 LINE SMOOTH",
"302 874 OFFCURVE",
"312 879 OFFCURVE",
"318 879 CURVE SMOOTH",
"324 879 OFFCURVE",
"332 874 OFFCURVE",
"341 868 CURVE",
"449 782 LINE",
"468 803 LINE",
"344 932 LINE",
"291 932 LINE",
"167 803 LINE",
"186 782 LINE"
);
}
);
};
components = (
{
name = E;
},
{
name = dotbelowcomb;
transform = "{1, 0, 0, 1, 200, 0}";
},
{
name = circumflexcomb;
transform = "{1, 0, 0, 1, 311, 230}";
}
);
layerId = "671CEF0C-3804-4AAB-8F09-7652EF8CF253";
width = 636;
}
);
note = Ecircumflexdotbelow;
rightKerningGroup = E;
unicode = 1EC6;
},
{
color = 6;
glyphname = Ecircumflexgrave;
lastChange = "2018-05-04 09:21:21 +0000";
layers = (
{
background = {
paths = (
{
closed = 1;
nodes = (
"554 0 LINE",
"571 179 LINE",
"544 179 LINE",
"538 124 OFFCURVE",
"520 40 OFFCURVE",
"456 40 CURVE SMOOTH",
"201 40 LINE",
"201 659 LINE",
"441 659 LINE SMOOTH",
"516 659 OFFCURVE",
"525 567 OFFCURVE",
"528 527 CURVE",
"555 527 LINE",
"555 700 LINE",
"16 700 LINE",
"16 673 LINE",
"44 673 LINE SMOOTH",
"83 673 OFFCURVE",
"103 662 OFFCURVE",
"103 637 CURVE SMOOTH",
"103 62 LINE SMOOTH",
"103 37 OFFCURVE",
"83 26 OFFCURVE",
"44 26 CURVE SMOOTH",
"16 26 LINE",
"16 0 LINE"
);
},
{
closed = 1;
nodes = (
"455 251 LINE",
"455 485 LINE",
"431 485 LINE",
"427 436 OFFCURVE",
"424 388 OFFCURVE",
"379 388 CURVE SMOOTH",
"162 388 LINE",
"162 348 LINE",
"379 348 LINE SMOOTH",
"424 348 OFFCURVE",
"427 300 OFFCURVE",
"431 251 CURVE"
);
},
{
closed = 1;
nodes = (
"227 915 LINE",
"132 1008 LINE SMOOTH",
"122 1018 OFFCURVE",
"105 1034 OFFCURVE",
"85 1034 CURVE SMOOTH",
"63 1034 OFFCURVE",
"52 1017 OFFCURVE",
"52 1003 CURVE SMOOTH",
"52 988 OFFCURVE",
"65 972 OFFCURVE",
"88 960 CURVE SMOOTH",
"210 893 LINE"
);
},
{
closed = 1;
nodes = (
"290 862 LINE SMOOTH",
"300 870 OFFCURVE",
"310 878 OFFCURVE",
"318 878 CURVE SMOOTH",
"324 878 OFFCURVE",
"332 873 OFFCURVE",
"341 867 CURVE",
"447 781 LINE",
"466 803 LINE",
"344 932 LINE",
"293 932 LINE",
"171 803 LINE",
"189 781 LINE"
);
}
);
};
components = (
{
name = E;
},
{
name = circumflexgrave;
transform = "{1, 0, 0, 1, 108, 230}";
}
);
layerId = "0B1DFD06-3317-40CA-B510-4969A0718C16";
width = 626;
},
{
background = {
paths = (
{
closed = 1;
nodes = (
"554 0 LINE",
"571 179 LINE",
"544 179 LINE",
"538 124 OFFCURVE",
"520 40 OFFCURVE",
"456 40 CURVE SMOOTH",
"201 40 LINE",
"201 659 LINE",
"441 659 LINE SMOOTH",
"516 659 OFFCURVE",
"525 567 OFFCURVE",
"528 527 CURVE",
"555 527 LINE",
"555 700 LINE",
"16 700 LINE",
"16 673 LINE",
"44 673 LINE SMOOTH",
"83 673 OFFCURVE",
"103 662 OFFCURVE",
"103 637 CURVE SMOOTH",
"103 62 LINE SMOOTH",
"103 37 OFFCURVE",
"83 26 OFFCURVE",
"44 26 CURVE SMOOTH",
"16 26 LINE",
"16 0 LINE"
);
},
{
closed = 1;
nodes = (
"455 251 LINE",
"455 485 LINE",
"431 485 LINE",
"427 436 OFFCURVE",
"424 388 OFFCURVE",
"379 388 CURVE SMOOTH",
"162 388 LINE",
"162 348 LINE",
"379 348 LINE SMOOTH",
"424 348 OFFCURVE",
"427 300 OFFCURVE",
"431 251 CURVE"
);
},
{
closed = 1;
nodes = (
"227 915 LINE",
"132 1008 LINE SMOOTH",
"122 1018 OFFCURVE",
"105 1034 OFFCURVE",
"85 1034 CURVE SMOOTH",
"63 1034 OFFCURVE",
"52 1017 OFFCURVE",
"52 1003 CURVE SMOOTH",
"52 988 OFFCURVE",
"65 972 OFFCURVE",
"88 960 CURVE SMOOTH",
"210 893 LINE"
);
},
{
closed = 1;
nodes = (
"290 862 LINE SMOOTH",
"300 870 OFFCURVE",
"310 878 OFFCURVE",
"318 878 CURVE SMOOTH",
"324 878 OFFCURVE",
"332 873 OFFCURVE",
"341 867 CURVE",
"447 781 LINE",
"466 803 LINE",
"344 932 LINE",
"293 932 LINE",
"171 803 LINE",
"189 781 LINE"
);
}
);
};
components = (
{
name = E;
},
{
name = circumflexgrave;
transform = "{1, 0, 0, 1, 107, 230}";
}
);
layerId = "671CEF0C-3804-4AAB-8F09-7652EF8CF253";
width = 636;
}
);
note = Ecircumflexgrave;
rightKerningGroup = E;
unicode = 1EC0;
},
{
glyphname = Ecircumflexhookabove;
lastChange = "2018-05-03 08:04:42 +0000";
layers = (
{
background = {
paths = (
{
closed = 1;
nodes = (
"554 0 LINE",
"571 179 LINE",
"544 179 LINE",
"538 124 OFFCURVE",
"520 40 OFFCURVE",
"456 40 CURVE SMOOTH",
"201 40 LINE",
"201 659 LINE",
"441 659 LINE SMOOTH",
"516 659 OFFCURVE",
"525 567 OFFCURVE",
"528 527 CURVE",
"555 527 LINE",
"555 700 LINE",
"16 700 LINE",
"16 673 LINE",
"44 673 LINE SMOOTH",
"83 673 OFFCURVE",
"103 662 OFFCURVE",
"103 637 CURVE SMOOTH",
"103 62 LINE SMOOTH",
"103 37 OFFCURVE",
"83 26 OFFCURVE",
"44 26 CURVE SMOOTH",
"16 26 LINE",
"16 0 LINE"
);
},
{
closed = 1;
nodes = (
"455 251 LINE",
"455 485 LINE",
"431 485 LINE",
"427 436 OFFCURVE",
"424 388 OFFCURVE",
"379 388 CURVE SMOOTH",
"162 388 LINE",
"162 348 LINE",
"379 348 LINE SMOOTH",
"424 348 OFFCURVE",
"427 300 OFFCURVE",
"431 251 CURVE"
);
},
{
closed = 1;
nodes = (
"286 858 LINE",
"297 868 OFFCURVE",
"309 878 OFFCURVE",
"318 878 CURVE SMOOTH",
"324 878 OFFCURVE",
"332 873 OFFCURVE",
"341 867 CURVE",
"447 781 LINE",
"466 803 LINE",
"344 932 LINE",
"293 932 LINE",
"171 803 LINE",
"189 781 LINE"
);
},
{
closed = 1;
nodes = (
"493 898 LINE",
"474 905 OFFCURVE",
"464 912 OFFCURVE",
"464 926 CURVE SMOOTH",
"464 954 OFFCURVE",
"544 965 OFFCURVE",
"544 1010 CURVE SMOOTH",
"544 1047 OFFCURVE",
"502 1063 OFFCURVE",
"460 1063 CURVE SMOOTH",
"429 1063 OFFCURVE",
"384 1053 OFFCURVE",
"384 1022 CURVE SMOOTH",
"384 1010 OFFCURVE",
"395 1001 OFFCURVE",
"405 1001 CURVE SMOOTH",
"434 1001 OFFCURVE",
"421 1040 OFFCURVE",
"464 1040 CURVE SMOOTH",
"483 1040 OFFCURVE",
"494 1028 OFFCURVE",
"494 1013 CURVE SMOOTH",
"494 973 OFFCURVE",
"421 965 OFFCURVE",
"421 925 CURVE SMOOTH",
"421 901 OFFCURVE",
"437 880 OFFCURVE",
"484 880 CURVE"
);
}
);
};
components = (
{
name = E;
},
{
name = circumflexhookabove;
transform = "{1, 0, 0, 1, 108, 230}";
}
);
layerId = "0B1DFD06-3317-40CA-B510-4969A0718C16";
width = 626;
},
{
background = {
paths = (
{
closed = 1;
nodes = (
"554 0 LINE",
"571 179 LINE",
"544 179 LINE",
"538 124 OFFCURVE",
"520 40 OFFCURVE",
"456 40 CURVE SMOOTH",
"201 40 LINE",
"201 659 LINE",
"441 659 LINE SMOOTH",
"516 659 OFFCURVE",
"525 567 OFFCURVE",
"528 527 CURVE",
"555 527 LINE",
"555 700 LINE",
"16 700 LINE",
"16 673 LINE",
"44 673 LINE SMOOTH",
"83 673 OFFCURVE",
"103 662 OFFCURVE",
"103 637 CURVE SMOOTH",
"103 62 LINE SMOOTH",
"103 37 OFFCURVE",
"83 26 OFFCURVE",
"44 26 CURVE SMOOTH",
"16 26 LINE",
"16 0 LINE"
);
},
{
closed = 1;
nodes = (
"455 251 LINE",
"455 485 LINE",
"431 485 LINE",
"427 436 OFFCURVE",
"424 388 OFFCURVE",
"379 388 CURVE SMOOTH",
"162 388 LINE",
"162 348 LINE",
"379 348 LINE SMOOTH",
"424 348 OFFCURVE",
"427 300 OFFCURVE",
"431 251 CURVE"
);
},
{
closed = 1;
nodes = (
"286 858 LINE",
"297 868 OFFCURVE",
"309 878 OFFCURVE",
"318 878 CURVE SMOOTH",
"324 878 OFFCURVE",
"332 873 OFFCURVE",
"341 867 CURVE",
"447 781 LINE",
"466 803 LINE",
"344 932 LINE",
"293 932 LINE",
"171 803 LINE",
"189 781 LINE"
);
},
{
closed = 1;
nodes = (
"493 898 LINE",
"474 905 OFFCURVE",
"464 912 OFFCURVE",
"464 926 CURVE SMOOTH",
"464 954 OFFCURVE",
"544 965 OFFCURVE",
"544 1010 CURVE SMOOTH",
"544 1047 OFFCURVE",
"502 1063 OFFCURVE",
"460 1063 CURVE SMOOTH",
"429 1063 OFFCURVE",
"384 1053 OFFCURVE",
"384 1022 CURVE SMOOTH",
"384 1010 OFFCURVE",
"395 1001 OFFCURVE",
"405 1001 CURVE SMOOTH",
"434 1001 OFFCURVE",
"421 1040 OFFCURVE",
"464 1040 CURVE SMOOTH",
"483 1040 OFFCURVE",
"494 1028 OFFCURVE",
"494 1013 CURVE SMOOTH",
"494 973 OFFCURVE",
"421 965 OFFCURVE",
"421 925 CURVE SMOOTH",
"421 901 OFFCURVE",
"437 880 OFFCURVE",
"484 880 CURVE"
);
}
);
};
components = (
{
name = E;
},
{
name = circumflexhookabove;
transform = "{1, 0, 0, 1, 107, 230}";
}
);
layerId = "671CEF0C-3804-4AAB-8F09-7652EF8CF253";
width = 636;
}
);
note = Ecircumflexhookabove;
rightKerningGroup = E;
unicode = 1EC2;
},
{
glyphname = Ecircumflextilde;
lastChange = "2018-05-03 08:04:42 +0000";
layers = (
{
background = {
paths = (
{
closed = 1;
nodes = (
"554 0 LINE",
"571 179 LINE",
"544 179 LINE",
"538 124 OFFCURVE",
"520 40 OFFCURVE",
"456 40 CURVE SMOOTH",
"201 40 LINE",
"201 659 LINE",
"441 659 LINE SMOOTH",
"516 659 OFFCURVE",
"525 567 OFFCURVE",
"528 527 CURVE",
"555 527 LINE",
"555 700 LINE",
"16 700 LINE",
"16 673 LINE",
"44 673 LINE SMOOTH",
"83 673 OFFCURVE",
"103 662 OFFCURVE",
"103 637 CURVE SMOOTH",
"103 62 LINE SMOOTH",
"103 37 OFFCURVE",
"83 26 OFFCURVE",
"44 26 CURVE SMOOTH",
"16 26 LINE",
"16 0 LINE"
);
},
{
closed = 1;
nodes = (
"455 251 LINE",
"455 485 LINE",
"431 485 LINE",
"427 436 OFFCURVE",
"424 388 OFFCURVE",
"379 388 CURVE SMOOTH",
"162 388 LINE",
"162 348 LINE",
"379 348 LINE SMOOTH",
"424 348 OFFCURVE",
"427 300 OFFCURVE",
"431 251 CURVE"
);
},
{
closed = 1;
nodes = (
"290 862 LINE SMOOTH",
"300 870 OFFCURVE",
"310 878 OFFCURVE",
"318 878 CURVE SMOOTH",
"324 878 OFFCURVE",
"332 873 OFFCURVE",
"341 867 CURVE",
"447 781 LINE",
"466 803 LINE",
"344 932 LINE",
"293 932 LINE",
"171 803 LINE",
"189 781 LINE"
);
},
{
closed = 1;
nodes = (
"193 997 OFFCURVE",
"211 1018 OFFCURVE",
"242 1018 CURVE SMOOTH",
"291 1018 OFFCURVE",
"338 964 OFFCURVE",
"387 964 CURVE SMOOTH",
"440 964 OFFCURVE",
"469 1012 OFFCURVE",
"481 1063 CURVE",
"460 1075 LINE",
"447 1035 OFFCURVE",
"431 1012 OFFCURVE",
"398 1012 CURVE SMOOTH",
"351 1012 OFFCURVE",
"302 1065 OFFCURVE",
"253 1065 CURVE SMOOTH",
"202 1065 OFFCURVE",
"170 1021 OFFCURVE",
"160 970 CURVE",
"180 958 LINE"
);
}
);
};
components = (
{
name = E;
},
{
name = circumflextilde;
transform = "{1, 0, 0, 1, 108, 230}";
}
);
layerId = "0B1DFD06-3317-40CA-B510-4969A0718C16";
width = 626;
},
{
background = {
paths = (
{
closed = 1;
nodes = (
"554 0 LINE",
"571 179 LINE",
"544 179 LINE",
"538 124 OFFCURVE",
"520 40 OFFCURVE",
"456 40 CURVE SMOOTH",
"201 40 LINE",
"201 659 LINE",
"441 659 LINE SMOOTH",
"516 659 OFFCURVE",
"525 567 OFFCURVE",
"528 527 CURVE",
"555 527 LINE",
"555 700 LINE",
"16 700 LINE",
"16 673 LINE",
"44 673 LINE SMOOTH",
"83 673 OFFCURVE",
"103 662 OFFCURVE",
"103 637 CURVE SMOOTH",
"103 62 LINE SMOOTH",
"103 37 OFFCURVE",
"83 26 OFFCURVE",
"44 26 CURVE SMOOTH",
"16 26 LINE",
"16 0 LINE"
);
},
{
closed = 1;
nodes = (
"455 251 LINE",
"455 485 LINE",
"431 485 LINE",
"427 436 OFFCURVE",
"424 388 OFFCURVE",
"379 388 CURVE SMOOTH",
"162 388 LINE",
"162 348 LINE",
"379 348 LINE SMOOTH",
"424 348 OFFCURVE",
"427 300 OFFCURVE",
"431 251 CURVE"
);
},
{
closed = 1;
nodes = (
"290 862 LINE SMOOTH",
"300 870 OFFCURVE",
"310 878 OFFCURVE",
"318 878 CURVE SMOOTH",
"324 878 OFFCURVE",
"332 873 OFFCURVE",
"341 867 CURVE",
"447 781 LINE",
"466 803 LINE",
"344 932 LINE",
"293 932 LINE",
"171 803 LINE",
"189 781 LINE"
);
},
{
closed = 1;
nodes = (
"193 997 OFFCURVE",
"211 1018 OFFCURVE",
"242 1018 CURVE SMOOTH",
"291 1018 OFFCURVE",
"338 964 OFFCURVE",
"387 964 CURVE SMOOTH",
"440 964 OFFCURVE",
"469 1012 OFFCURVE",
"481 1063 CURVE",
"460 1075 LINE",
"447 1035 OFFCURVE",
"431 1012 OFFCURVE",
"398 1012 CURVE SMOOTH",
"351 1012 OFFCURVE",
"302 1065 OFFCURVE",
"253 1065 CURVE SMOOTH",
"202 1065 OFFCURVE",
"170 1021 OFFCURVE",
"160 970 CURVE",
"180 958 LINE"
);
}
);
};
components = (
{
name = E;
},
{
name = circumflextilde;
transform = "{1, 0, 0, 1, 107, 230}";
}
);
layerId = "671CEF0C-3804-4AAB-8F09-7652EF8CF253";
width = 636;
}
);
note = Ecircumflextilde;
rightKerningGroup = E;
unicode = 1EC4;
},
{
color = 6;
glyphname = Edieresis;
lastChange = "2018-05-04 04:56:41 +0000";
layers = (
{
background = {
paths = (
{
closed = 1;
nodes = (
"554 0 LINE",
"571 179 LINE",
"544 179 LINE",
"538 124 OFFCURVE",
"520 40 OFFCURVE",
"456 40 CURVE SMOOTH",
"201 40 LINE",
"201 659 LINE",
"441 659 LINE SMOOTH",
"516 659 OFFCURVE",
"525 567 OFFCURVE",
"528 527 CURVE",
"555 527 LINE",
"555 700 LINE",
"16 700 LINE",
"16 673 LINE",
"44 673 LINE SMOOTH",
"83 673 OFFCURVE",
"103 662 OFFCURVE",
"103 637 CURVE SMOOTH",
"103 62 LINE SMOOTH",
"103 37 OFFCURVE",
"83 26 OFFCURVE",
"44 26 CURVE SMOOTH",
"16 26 LINE",
"16 0 LINE"
);
},
{
closed = 1;
nodes = (
"455 251 LINE",
"455 485 LINE",
"431 485 LINE",
"427 436 OFFCURVE",
"424 388 OFFCURVE",
"379 388 CURVE SMOOTH",
"162 388 LINE",
"162 348 LINE",
"379 348 LINE SMOOTH",
"424 348 OFFCURVE",
"427 300 OFFCURVE",
"431 251 CURVE"
);
},
{
closed = 1;
nodes = (
"254 781 OFFCURVE",
"272 800 OFFCURVE",
"272 827 CURVE SMOOTH",
"272 855 OFFCURVE",
"254 875 OFFCURVE",
"225 875 CURVE SMOOTH",
"197 875 OFFCURVE",
"179 855 OFFCURVE",
"179 827 CURVE SMOOTH",
"179 800 OFFCURVE",
"197 781 OFFCURVE",
"225 781 CURVE SMOOTH"
);
},
{
closed = 1;
nodes = (
"470 781 OFFCURVE",
"488 800 OFFCURVE",
"488 827 CURVE SMOOTH",
"488 855 OFFCURVE",
"470 875 OFFCURVE",
"441 875 CURVE SMOOTH",
"412 875 OFFCURVE",
"394 855 OFFCURVE",
"394 827 CURVE SMOOTH",
"394 800 OFFCURVE",
"412 781 OFFCURVE",
"441 781 CURVE SMOOTH"
);
}
);
};
components = (
{
name = E;
},
{
name = dieresiscomb;
transform = "{1, 0, 0, 1, 312, 230}";
}
);
layerId = "0B1DFD06-3317-40CA-B510-4969A0718C16";
width = 626;
},
{
background = {
paths = (
{
closed = 1;
nodes = (
"554 0 LINE",
"571 179 LINE",
"544 179 LINE",
"538 124 OFFCURVE",
"520 40 OFFCURVE",
"456 40 CURVE SMOOTH",
"201 40 LINE",
"201 659 LINE",
"441 659 LINE SMOOTH",
"516 659 OFFCURVE",
"525 567 OFFCURVE",
"528 527 CURVE",
"555 527 LINE",
"555 700 LINE",
"16 700 LINE",
"16 673 LINE",
"44 673 LINE SMOOTH",
"83 673 OFFCURVE",
"103 662 OFFCURVE",
"103 637 CURVE SMOOTH",
"103 62 LINE SMOOTH",
"103 37 OFFCURVE",
"83 26 OFFCURVE",
"44 26 CURVE SMOOTH",
"16 26 LINE",
"16 0 LINE"
);
},
{
closed = 1;
nodes = (
"455 251 LINE",
"455 485 LINE",
"431 485 LINE",
"427 436 OFFCURVE",
"424 388 OFFCURVE",
"379 388 CURVE SMOOTH",
"162 388 LINE",
"162 348 LINE",
"379 348 LINE SMOOTH",
"424 348 OFFCURVE",
"427 300 OFFCURVE",
"431 251 CURVE"
);
},
{
closed = 1;
nodes = (
"254 781 OFFCURVE",
"272 800 OFFCURVE",
"272 827 CURVE SMOOTH",
"272 855 OFFCURVE",
"254 875 OFFCURVE",
"225 875 CURVE SMOOTH",
"197 875 OFFCURVE",
"179 855 OFFCURVE",
"179 827 CURVE SMOOTH",
"179 800 OFFCURVE",
"197 781 OFFCURVE",
"225 781 CURVE SMOOTH"
);
},
{
closed = 1;
nodes = (
"470 781 OFFCURVE",
"488 800 OFFCURVE",
"488 827 CURVE SMOOTH",
"488 855 OFFCURVE",
"470 875 OFFCURVE",
"441 875 CURVE SMOOTH",
"412 875 OFFCURVE",
"394 855 OFFCURVE",
"394 827 CURVE SMOOTH",
"394 800 OFFCURVE",
"412 781 OFFCURVE",
"441 781 CURVE SMOOTH"
);
}
);
};
components = (
{
name = E;
},
{
name = dieresiscomb;
transform = "{1, 0, 0, 1, 311, 230}";
}
);
layerId = "671CEF0C-3804-4AAB-8F09-7652EF8CF253";
width = 636;
}
);
note = Edieresis;
rightKerningGroup = E;
unicode = 00CB;
},
{
color = 6;
glyphname = Edotaccent;
lastChange = "2018-05-04 04:58:56 +0000";
layers = (
{
background = {
paths = (
{
closed = 1;
nodes = (
"554 0 LINE",
"571 179 LINE",
"544 179 LINE",
"538 124 OFFCURVE",
"520 40 OFFCURVE",
"456 40 CURVE SMOOTH",
"201 40 LINE",
"201 659 LINE",
"441 659 LINE SMOOTH",
"516 659 OFFCURVE",
"525 567 OFFCURVE",
"528 527 CURVE",
"555 527 LINE",
"555 700 LINE",
"16 700 LINE",
"16 673 LINE",
"44 673 LINE SMOOTH",
"83 673 OFFCURVE",
"103 662 OFFCURVE",
"103 637 CURVE SMOOTH",
"103 62 LINE SMOOTH",
"103 37 OFFCURVE",
"83 26 OFFCURVE",
"44 26 CURVE SMOOTH",
"16 26 LINE",
"16 0 LINE"
);
},
{
closed = 1;
nodes = (
"455 251 LINE",
"455 485 LINE",
"431 485 LINE",
"427 436 OFFCURVE",
"424 388 OFFCURVE",
"379 388 CURVE SMOOTH",
"162 388 LINE",
"162 348 LINE",
"379 348 LINE SMOOTH",
"424 348 OFFCURVE",
"427 300 OFFCURVE",
"431 251 CURVE"
);
},
{
closed = 1;
nodes = (
"362 765 OFFCURVE",
"380 784 OFFCURVE",
"380 811 CURVE SMOOTH",
"380 839 OFFCURVE",
"362 858 OFFCURVE",
"334 858 CURVE SMOOTH",
"305 858 OFFCURVE",
"287 839 OFFCURVE",
"287 811 CURVE SMOOTH",
"287 784 OFFCURVE",
"305 765 OFFCURVE",
"334 765 CURVE SMOOTH"
);
}
);
};
components = (
{
name = E;
},
{
name = dotaccentcomb;
transform = "{1, 0, 0, 1, 312, 230}";
}
);
layerId = "0B1DFD06-3317-40CA-B510-4969A0718C16";
width = 626;
},
{
background = {
paths = (
{
closed = 1;
nodes = (
"554 0 LINE",
"571 179 LINE",
"544 179 LINE",
"538 124 OFFCURVE",
"520 40 OFFCURVE",
"456 40 CURVE SMOOTH",
"201 40 LINE",
"201 659 LINE",
"441 659 LINE SMOOTH",
"516 659 OFFCURVE",
"525 567 OFFCURVE",
"528 527 CURVE",
"555 527 LINE",
"555 700 LINE",
"16 700 LINE",
"16 673 LINE",
"44 673 LINE SMOOTH",
"83 673 OFFCURVE",
"103 662 OFFCURVE",
"103 637 CURVE SMOOTH",
"103 62 LINE SMOOTH",
"103 37 OFFCURVE",
"83 26 OFFCURVE",
"44 26 CURVE SMOOTH",
"16 26 LINE",
"16 0 LINE"
);
},
{
closed = 1;
nodes = (
"455 251 LINE",
"455 485 LINE",
"431 485 LINE",
"427 436 OFFCURVE",
"424 388 OFFCURVE",
"379 388 CURVE SMOOTH",
"162 388 LINE",
"162 348 LINE",
"379 348 LINE SMOOTH",
"424 348 OFFCURVE",
"427 300 OFFCURVE",
"431 251 CURVE"
);
},
{
closed = 1;
nodes = (
"362 765 OFFCURVE",
"380 784 OFFCURVE",
"380 811 CURVE SMOOTH",
"380 839 OFFCURVE",
"362 858 OFFCURVE",
"334 858 CURVE SMOOTH",
"305 858 OFFCURVE",
"287 839 OFFCURVE",
"287 811 CURVE SMOOTH",
"287 784 OFFCURVE",
"305 765 OFFCURVE",
"334 765 CURVE SMOOTH"
);
}
);
};
components = (
{
name = E;
},
{
name = dotaccentcomb;
transform = "{1, 0, 0, 1, 311, 230}";
}
);
layerId = "671CEF0C-3804-4AAB-8F09-7652EF8CF253";
width = 636;
}
);
note = Edotaccent;
rightKerningGroup = E;
unicode = 0116;
},
{
color = 6;
glyphname = Edotbelow;
lastChange = "2018-05-04 05:01:35 +0000";
layers = (
{
background = {
paths = (
{
closed = 1;
nodes = (
"554 0 LINE",
"571 179 LINE",
"544 179 LINE",
"538 124 OFFCURVE",
"520 40 OFFCURVE",
"456 40 CURVE SMOOTH",
"201 40 LINE",
"201 659 LINE",
"441 659 LINE SMOOTH",
"516 659 OFFCURVE",
"525 567 OFFCURVE",
"528 527 CURVE",
"555 527 LINE",
"555 700 LINE",
"16 700 LINE",
"16 673 LINE",
"44 673 LINE SMOOTH",
"83 673 OFFCURVE",
"103 662 OFFCURVE",
"103 637 CURVE SMOOTH",
"103 62 LINE SMOOTH",
"103 37 OFFCURVE",
"83 26 OFFCURVE",
"44 26 CURVE SMOOTH",
"16 26 LINE",
"16 0 LINE"
);
},
{
closed = 1;
nodes = (
"343 -159 OFFCURVE",
"361 -140 OFFCURVE",
"361 -112 CURVE SMOOTH",
"361 -84 OFFCURVE",
"343 -64 OFFCURVE",
"315 -64 CURVE SMOOTH",
"287 -64 OFFCURVE",
"268 -84 OFFCURVE",
"268 -112 CURVE SMOOTH",
"268 -140 OFFCURVE",
"287 -159 OFFCURVE",
"315 -159 CURVE SMOOTH"
);
},
{
closed = 1;
nodes = (
"455 251 LINE",
"455 485 LINE",
"431 485 LINE",
"427 436 OFFCURVE",
"424 388 OFFCURVE",
"379 388 CURVE SMOOTH",
"162 388 LINE",
"162 348 LINE",
"379 348 LINE SMOOTH",
"424 348 OFFCURVE",
"427 300 OFFCURVE",
"431 251 CURVE"
);
}
);
};
components = (
{
name = E;
},
{
name = dotbelowcomb;
transform = "{1, 0, 0, 1, 214, 0}";
}
);
layerId = "0B1DFD06-3317-40CA-B510-4969A0718C16";
width = 626;
},
{
background = {
paths = (
{
closed = 1;
nodes = (
"554 0 LINE",
"571 179 LINE",
"544 179 LINE",
"538 124 OFFCURVE",
"520 40 OFFCURVE",
"456 40 CURVE SMOOTH",
"201 40 LINE",
"201 659 LINE",
"441 659 LINE SMOOTH",
"516 659 OFFCURVE",
"525 567 OFFCURVE",
"528 527 CURVE",
"555 527 LINE",
"555 700 LINE",
"16 700 LINE",
"16 673 LINE",
"44 673 LINE SMOOTH",
"83 673 OFFCURVE",
"103 662 OFFCURVE",
"103 637 CURVE SMOOTH",
"103 62 LINE SMOOTH",
"103 37 OFFCURVE",
"83 26 OFFCURVE",
"44 26 CURVE SMOOTH",
"16 26 LINE",
"16 0 LINE"
);
},
{
closed = 1;
nodes = (
"343 -159 OFFCURVE",
"361 -140 OFFCURVE",
"361 -112 CURVE SMOOTH",
"361 -84 OFFCURVE",
"343 -64 OFFCURVE",
"315 -64 CURVE SMOOTH",
"287 -64 OFFCURVE",
"268 -84 OFFCURVE",
"268 -112 CURVE SMOOTH",
"268 -140 OFFCURVE",
"287 -159 OFFCURVE",
"315 -159 CURVE SMOOTH"
);
},
{
closed = 1;
nodes = (
"455 251 LINE",
"455 485 LINE",
"431 485 LINE",
"427 436 OFFCURVE",
"424 388 OFFCURVE",
"379 388 CURVE SMOOTH",
"162 388 LINE",
"162 348 LINE",
"379 348 LINE SMOOTH",
"424 348 OFFCURVE",
"427 300 OFFCURVE",
"431 251 CURVE"
);
}
);
};
components = (
{
name = E;
},
{
name = dotbelowcomb;
transform = "{1, 0, 0, 1, 200, 0}";
}
);
layerId = "671CEF0C-3804-4AAB-8F09-7652EF8CF253";
width = 636;
}
);
note = Edotbelow;
rightKerningGroup = E;
unicode = 1EB8;
},
{
color = 6;
glyphname = Egrave;
lastChange = "2018-05-03 08:05:40 +0000";
layers = (
{
background = {
paths = (
{
closed = 1;
nodes = (
"554 0 LINE",
"571 179 LINE",
"544 179 LINE",
"538 124 OFFCURVE",
"520 40 OFFCURVE",
"456 40 CURVE SMOOTH",
"201 40 LINE",
"201 659 LINE",
"441 659 LINE SMOOTH",
"516 659 OFFCURVE",
"525 567 OFFCURVE",
"528 527 CURVE",
"555 527 LINE",
"555 700 LINE",
"16 700 LINE",
"16 673 LINE",
"44 673 LINE SMOOTH",
"83 673 OFFCURVE",
"103 662 OFFCURVE",
"103 637 CURVE SMOOTH",
"103 62 LINE SMOOTH",
"103 37 OFFCURVE",
"83 26 OFFCURVE",
"44 26 CURVE SMOOTH",
"16 26 LINE",
"16 0 LINE"
);
},
{
closed = 1;
nodes = (
"455 251 LINE",
"455 485 LINE",
"431 485 LINE",
"427 436 OFFCURVE",
"424 388 OFFCURVE",
"379 388 CURVE SMOOTH",
"162 388 LINE",
"162 348 LINE",
"379 348 LINE SMOOTH",
"424 348 OFFCURVE",
"427 300 OFFCURVE",
"431 251 CURVE"
);
},
{
closed = 1;
nodes = (
"425 807 LINE",
"310 913 LINE",
"301 922 OFFCURVE",
"285 937 OFFCURVE",
"265 937 CURVE SMOOTH",
"245 937 OFFCURVE",
"233 924 OFFCURVE",
"233 908 CURVE SMOOTH",
"233 890 OFFCURVE",
"245 876 OFFCURVE",
"264 865 CURVE SMOOTH",
"407 782 LINE"
);
}
);
};
components = (
{
name = E;
},
{
name = gravecomb;
transform = "{1, 0, 0, 1, 118, 230}";
}
);
layerId = "0B1DFD06-3317-40CA-B510-4969A0718C16";
width = 626;
},
{
background = {
paths = (
{
closed = 1;
nodes = (
"554 0 LINE",
"571 179 LINE",
"544 179 LINE",
"538 124 OFFCURVE",
"520 40 OFFCURVE",
"456 40 CURVE SMOOTH",
"201 40 LINE",
"201 659 LINE",
"441 659 LINE SMOOTH",
"516 659 OFFCURVE",
"525 567 OFFCURVE",
"528 527 CURVE",
"555 527 LINE",
"555 700 LINE",
"16 700 LINE",
"16 673 LINE",
"44 673 LINE SMOOTH",
"83 673 OFFCURVE",
"103 662 OFFCURVE",
"103 637 CURVE SMOOTH",
"103 62 LINE SMOOTH",
"103 37 OFFCURVE",
"83 26 OFFCURVE",
"44 26 CURVE SMOOTH",
"16 26 LINE",
"16 0 LINE"
);
},
{
closed = 1;
nodes = (
"455 251 LINE",
"455 485 LINE",
"431 485 LINE",
"427 436 OFFCURVE",
"424 388 OFFCURVE",
"379 388 CURVE SMOOTH",
"162 388 LINE",
"162 348 LINE",
"379 348 LINE SMOOTH",
"424 348 OFFCURVE",
"427 300 OFFCURVE",
"431 251 CURVE"
);
},
{
closed = 1;
nodes = (
"425 807 LINE",
"310 913 LINE",
"301 922 OFFCURVE",
"285 937 OFFCURVE",
"265 937 CURVE SMOOTH",
"245 937 OFFCURVE",
"233 924 OFFCURVE",
"233 908 CURVE SMOOTH",
"233 890 OFFCURVE",
"245 876 OFFCURVE",
"264 865 CURVE SMOOTH",
"407 782 LINE"
);
}
);
};
components = (
{
name = E;
},
{
name = gravecomb;
transform = "{1, 0, 0, 1, 117, 230}";
}
);
layerId = "671CEF0C-3804-4AAB-8F09-7652EF8CF253";
width = 636;
}
);
note = Egrave;
rightKerningGroup = E;
unicode = 00C8;
},
{
glyphname = Ehookabove;
lastChange = "2018-05-03 08:04:42 +0000";
layers = (
{
background = {
paths = (
{
closed = 1;
nodes = (
"554 0 LINE",
"571 179 LINE",
"544 179 LINE",
"538 124 OFFCURVE",
"520 40 OFFCURVE",
"456 40 CURVE SMOOTH",
"201 40 LINE",
"201 659 LINE",
"441 659 LINE SMOOTH",
"516 659 OFFCURVE",
"525 567 OFFCURVE",
"528 527 CURVE",
"555 527 LINE",
"555 700 LINE",
"16 700 LINE",
"16 673 LINE",
"44 673 LINE SMOOTH",
"83 673 OFFCURVE",
"103 662 OFFCURVE",
"103 637 CURVE SMOOTH",
"103 62 LINE SMOOTH",
"103 37 OFFCURVE",
"83 26 OFFCURVE",
"44 26 CURVE SMOOTH",
"16 26 LINE",
"16 0 LINE"
);
},
{
closed = 1;
nodes = (
"455 251 LINE",
"455 485 LINE",
"431 485 LINE",
"427 436 OFFCURVE",
"424 388 OFFCURVE",
"379 388 CURVE SMOOTH",
"162 388 LINE",
"162 348 LINE",
"379 348 LINE SMOOTH",
"424 348 OFFCURVE",
"427 300 OFFCURVE",
"431 251 CURVE"
);
},
{
closed = 1;
nodes = (
"367 798 LINE",
"348 805 OFFCURVE",
"336 811 OFFCURVE",
"336 828 CURVE SMOOTH",
"336 861 OFFCURVE",
"425 876 OFFCURVE",
"425 927 CURVE SMOOTH",
"425 969 OFFCURVE",
"389 991 OFFCURVE",
"336 991 CURVE SMOOTH",
"289 991 OFFCURVE",
"248 974 OFFCURVE",
"248 940 CURVE SMOOTH",
"248 923 OFFCURVE",
"256 915 OFFCURVE",
"271 915 CURVE SMOOTH",
"294 915 OFFCURVE",
"296 934 OFFCURVE",
"299 942 CURVE SMOOTH",
"304 956 OFFCURVE",
"321 962 OFFCURVE",
"337 962 CURVE SMOOTH",
"358 962 OFFCURVE",
"371 947 OFFCURVE",
"371 930 CURVE SMOOTH",
"371 885 OFFCURVE",
"289 874 OFFCURVE",
"289 828 CURVE SMOOTH",
"289 801 OFFCURVE",
"307 778 OFFCURVE",
"358 778 CURVE"
);
}
);
};
components = (
{
name = E;
},
{
name = hookabovecomb;
transform = "{1, 0, 0, 1, 195, 230}";
}
);
layerId = "0B1DFD06-3317-40CA-B510-4969A0718C16";
width = 626;
},
{
background = {
paths = (
{
closed = 1;
nodes = (
"554 0 LINE",
"571 179 LINE",
"544 179 LINE",
"538 124 OFFCURVE",
"520 40 OFFCURVE",
"456 40 CURVE SMOOTH",
"201 40 LINE",
"201 659 LINE",
"441 659 LINE SMOOTH",
"516 659 OFFCURVE",
"525 567 OFFCURVE",
"528 527 CURVE",
"555 527 LINE",
"555 700 LINE",
"16 700 LINE",
"16 673 LINE",
"44 673 LINE SMOOTH",
"83 673 OFFCURVE",
"103 662 OFFCURVE",
"103 637 CURVE SMOOTH",
"103 62 LINE SMOOTH",
"103 37 OFFCURVE",
"83 26 OFFCURVE",
"44 26 CURVE SMOOTH",
"16 26 LINE",
"16 0 LINE"
);
},
{
closed = 1;
nodes = (
"455 251 LINE",
"455 485 LINE",
"431 485 LINE",
"427 436 OFFCURVE",
"424 388 OFFCURVE",
"379 388 CURVE SMOOTH",
"162 388 LINE",
"162 348 LINE",
"379 348 LINE SMOOTH",
"424 348 OFFCURVE",
"427 300 OFFCURVE",
"431 251 CURVE"
);
},
{
closed = 1;
nodes = (
"367 798 LINE",
"348 805 OFFCURVE",
"336 811 OFFCURVE",
"336 828 CURVE SMOOTH",
"336 861 OFFCURVE",
"425 876 OFFCURVE",
"425 927 CURVE SMOOTH",
"425 969 OFFCURVE",
"389 991 OFFCURVE",
"336 991 CURVE SMOOTH",
"289 991 OFFCURVE",
"248 974 OFFCURVE",
"248 940 CURVE SMOOTH",
"248 923 OFFCURVE",
"256 915 OFFCURVE",
"271 915 CURVE SMOOTH",
"294 915 OFFCURVE",
"296 934 OFFCURVE",
"299 942 CURVE SMOOTH",
"304 956 OFFCURVE",
"321 962 OFFCURVE",
"337 962 CURVE SMOOTH",
"358 962 OFFCURVE",
"371 947 OFFCURVE",
"371 930 CURVE SMOOTH",
"371 885 OFFCURVE",
"289 874 OFFCURVE",
"289 828 CURVE SMOOTH",
"289 801 OFFCURVE",
"307 778 OFFCURVE",
"358 778 CURVE"
);
}
);
};
components = (
{
name = E;
},
{
name = hookabovecomb;
transform = "{1, 0, 0, 1, 194, 230}";
}
);
layerId = "671CEF0C-3804-4AAB-8F09-7652EF8CF253";
width = 636;
}
);
note = Ehookabove;
rightKerningGroup = E;
unicode = 1EBA;
},
{
color = 6;
glyphname = Emacron;
lastChange = "2018-05-04 08:23:04 +0000";
layers = (
{
background = {
paths = (
{
closed = 1;
nodes = (
"554 0 LINE",
"571 179 LINE",
"544 179 LINE",
"538 124 OFFCURVE",
"520 40 OFFCURVE",
"456 40 CURVE SMOOTH",
"201 40 LINE",
"201 659 LINE",
"441 659 LINE SMOOTH",
"516 659 OFFCURVE",
"525 567 OFFCURVE",
"528 527 CURVE",
"555 527 LINE",
"555 700 LINE",
"16 700 LINE",
"16 673 LINE",
"44 673 LINE SMOOTH",
"83 673 OFFCURVE",
"103 662 OFFCURVE",
"103 637 CURVE SMOOTH",
"103 62 LINE SMOOTH",
"103 37 OFFCURVE",
"83 26 OFFCURVE",
"44 26 CURVE SMOOTH",
"16 26 LINE",
"16 0 LINE"
);
},
{
closed = 1;
nodes = (
"455 251 LINE",
"455 485 LINE",
"431 485 LINE",
"427 436 OFFCURVE",
"424 388 OFFCURVE",
"379 388 CURVE SMOOTH",
"162 388 LINE",
"162 348 LINE",
"379 348 LINE SMOOTH",
"424 348 OFFCURVE",
"427 300 OFFCURVE",
"431 251 CURVE"
);
},
{
closed = 1;
nodes = (
"495 782 LINE",
"495 824 LINE",
"162 824 LINE",
"162 782 LINE"
);
}
);
};
components = (
{
name = E;
},
{
name = macroncomb;
transform = "{1, 0, 0, 1, 311, 230}";
}
);
layerId = "0B1DFD06-3317-40CA-B510-4969A0718C16";
width = 626;
},
{
background = {
paths = (
{
closed = 1;
nodes = (
"554 0 LINE",
"571 179 LINE",
"544 179 LINE",
"538 124 OFFCURVE",
"520 40 OFFCURVE",
"456 40 CURVE SMOOTH",
"201 40 LINE",
"201 659 LINE",
"441 659 LINE SMOOTH",
"516 659 OFFCURVE",
"525 567 OFFCURVE",
"528 527 CURVE",
"555 527 LINE",
"555 700 LINE",
"16 700 LINE",
"16 673 LINE",
"44 673 LINE SMOOTH",
"83 673 OFFCURVE",
"103 662 OFFCURVE",
"103 637 CURVE SMOOTH",
"103 62 LINE SMOOTH",
"103 37 OFFCURVE",
"83 26 OFFCURVE",
"44 26 CURVE SMOOTH",
"16 26 LINE",
"16 0 LINE"
);
},
{
closed = 1;
nodes = (
"455 251 LINE",
"455 485 LINE",
"431 485 LINE",
"427 436 OFFCURVE",
"424 388 OFFCURVE",
"379 388 CURVE SMOOTH",
"162 388 LINE",
"162 348 LINE",
"379 348 LINE SMOOTH",
"424 348 OFFCURVE",
"427 300 OFFCURVE",
"431 251 CURVE"
);
},
{
closed = 1;
nodes = (
"495 782 LINE",
"495 824 LINE",
"162 824 LINE",
"162 782 LINE"
);
}
);
};
components = (
{
name = E;
},
{
name = macroncomb;
transform = "{1, 0, 0, 1, 310, 230}";
}
);
layerId = "671CEF0C-3804-4AAB-8F09-7652EF8CF253";
width = 636;
}
);
note = Emacron;
rightKerningGroup = E;
unicode = 0112;
},
